{
.appVersion = "3133";
.formatVersion = 3;
axes = (
{
name = wght;
tag = wght;
}
);
customParameters = (
{
name = "Write lastChange";
value = 0;
},
{
name = "Use Typo Metrics";
value = 1;
},
{
name = fsType;
value = (
);
}
);
date = "2022-03-20 03:42:48 +0000";
familyName = "Edu SA Beginner Outline";
featurePrefixes = (
{
automatic = 1;
code = "languagesystem DFLT dflt;
";
name = Languagesystems;
}
);
features = (
{
automatic = 1;
code = "feature ss01;
";
tag = aalt;
},
{
automatic = 1;
code = "sub A by A.ss01;
sub B by B.ss01;
sub C by C.ss01;
sub D by D.ss01;
sub E by E.ss01;
sub F by F.ss01;
sub G by G.ss01;
sub H by H.ss01;
sub I by I.ss01;
sub J by J.ss01;
sub K by K.ss01;
sub L by L.ss01;
sub M by M.ss01;
sub N by N.ss01;
sub O by O.ss01;
sub P by P.ss01;
sub Q by Q.ss01;
sub R by R.ss01;
sub S by S.ss01;
sub T by T.ss01;
sub U by U.ss01;
sub V by V.ss01;
sub W by W.ss01;
sub X by X.ss01;
sub Y by Y.ss01;
sub Z by Z.ss01;
sub a by a.ss01;
sub b by b.ss01;
sub c by c.ss01;
sub d by d.ss01;
sub e by e.ss01;
sub f by f.ss01;
sub g by g.ss01;
sub h by h.ss01;
sub i by i.ss01;
sub j by j.ss01;
sub k by k.ss01;
sub l by l.ss01;
sub m by m.ss01;
sub n by n.ss01;
sub o by o.ss01;
sub p by p.ss01;
sub q by q.ss01;
sub r by r.ss01;
sub s by s.ss01;
sub t by t.ss01;
sub u by u.ss01;
sub v by v.ss01;
sub w by w.ss01;
sub x by x.ss01;
sub y by y.ss01;
sub z by z.ss01;
sub zero by zero.ss01;
sub one by one.ss01;
sub two by two.ss01;
sub three by three.ss01;
sub four by four.ss01;
sub five by five.ss01;
sub six by six.ss01;
sub seven by seven.ss01;
sub eight by eight.ss01;
sub nine by nine.ss01;
";
labels = (
{
language = dflt;
value = "";
}
);
tag = ss01;
}
);
fontMaster = (
{
axesValues = (
400
);
customParameters = (
{
name = hheaAscender;
value = 1016;
},
{
name = hheaDescender;
value = -244;
},
{
name = hheaLineGap;
value = 0;
},
{
name = typoAscender;
value = 1016;
},
{
name = typoDescender;
value = -244;
},
{
name = typoLineGap;
value = 0;
},
{
name = winAscent;

glyphs = (
{
glyphname = A;
layers = (
{
layerId = m01;
shapes = (
{
closed = 1;
nodes = (
(480,-5,o),
(486,18,o),
(482,41,cs),
(374,744,ls),
(372,763,o),
(363,780,o),
(336,780,cs),
(312,780,o),
(302,766,o),
(293,747,cs),
(-19,51,ls),
(-33,20,o),
(-25,-1,o),
(-2,-7,cs),
(22,-14,o),
(40,5,o),
(49,26,cs),
(203,381,l),
(360,381,l),
(411,32,ls),
(413,12,o),
(419,-10,o),
(451,-7,cs)
);
},
{
closed = 1;
nodes = (
(430,6,o),
(428,16,o),
(425,34,cs),
(373,389,ls),
(373,393,o),
(370,396,o),
(365,396,cs),
(199,396,ls),
(195,396,o),
(193,394,o),
(191,390,cs),
(35,32,ls),
(27,14,o),
(17,3,o),
(2,7,cs),
(-12,11,o),
(-16,21,o),
(-5,45,cs),
(307,741,ls),
(315,758,o),
(320,765,o),
(336,765,cs),
(353,765,o),
(357,758,o),
(360,742,cs),
(468,39,ls),
(471,20,o),
(467,9,o),
(449,7,cs)
);
},
{
closed = 1;
nodes = (
(320,651,l),
(349,450,l),
(233,450,l)
);
},
{
closed = 1;
nodes = (
(359,434,ls),
(364,434,o),
(366,437,o),
(366,442,cs),
(333,673,ls),
(332,677,o),
(329,679,o),
(324,680,cs),
(319,681,o),
(317,679,o),
(315,675,cs),
(214,443,ls),
(212,438,o),
(214,434,o),
(220,434,cs)
);
},
{
closed = 1;
nodes = (
(179,575,l),
(212,614,l),
(204,618,l),
(256,735,l),
(248,739,l),
(195,622,l),
(186,626,l)
);
},
{
closed = 1;
nodes = (
(340,731,o),
(345,736,o),
(345,742,cs),
(345,748,o),
(340,753,o),
(334,753,cs),
(328,753,o),
(323,748,o),
(323,742,cs),
(323,736,o),
(328,731,o),
(334,731,cs)
);
}
);
vertWidth = 0;
width = 539;
},
{
layerId = m002;
shapes = (
{
closed = 1;
nodes = (
(498.8,-1.6,o),
(517,29,o),
(510.4,73.2,cs),
(406.4,736,ls),
(402,764,o),
(378,779.6,o),
(342,779.6,cs),
(300.8,779.6,o),
(289,763,o),
(276,735.2,cs),
(-18.8,81.2,ls),
(-36,43,o),
(-17.2,7.6,o),
(14.4,-5.2,cs),
(44.4,-16.4,o),
(86,-3,o),
(102.8,36,cs),
(208,285.6,l),
(355.2,285.6,l),
(384.4,57.2,ls),
(391,9,o),
(418.8,-14,o),
(461.2,-7.6,cs)
);
},
{
closed = 1;
nodes = (
(424,2,o),
(405,18,o),
(399.6,58.8,cs),
(369.6,293.6,ls),
(369,298,o),
(366,300,o),
(361.6,300.4,cs),
(204.4,300.4,ls),
(200,300,o),
(197,298,o),
(195.6,294.8,cs),
(89.2,42,ls),
(76,10,o),
(44,0,o),
(19.6,9.2,cs),
(-5.6,18.8,o),
(-19,44,o),
(-5.2,74.8,cs),
(290,728.8,ls),
(302,755,o),
(308.8,764.4,o),
(342,764.4,cs),
(372.8,764.4,o),
(388,754,o),
(391.6,734,cs),
(495.6,70.8,ls),
(502,33,o),
(488.4,12,o),
(458.8,7.6,cs)
);
},
{
closed = 1;
nodes = (
(322,556,l),
(341.6,395.6,l),
(254.4,395.6,l)
);
},
{
closed = 1;
nodes = (
(350.4,380.4,ls),
(356,380,o),
(358,383,o),
(357.6,388.4,cs),
(334.4,579.6,ls),
(334,584,o),
(331.6,586.4,o),
(325.6,587.2,cs),
(321.2,587.6,o),
(318,586,o),
(316.8,582,cs),
(235.2,389.2,ls),
(233,384,o),
(236,380,o),
(241.2,380.4,cs)
);
},
{
closed = 1;
nodes = (
(153,551,l),
(186,589,l),
(178,593,l),
(231,711,l),
(219,716,l),
(166,599,l),
(159,602,l)
);
},
{
closed = 1;
nodes = (
(337,713,o),
(342,718,o),
(342,724,cs),
(342,730,o),
(337,735,o),
(331,735,cs),
(325,735,o),
(320,730,o),
(320,724,cs),
(320,718,o),
(325,713,o),
(331,713,cs)
);
}
);
vertWidth = 0;
width = 558;
}
);
unicode = 65;
},
{
glyphname = B;
kernLeft = H_left;
layers = (
{
layerId = m01;
shapes = (
{
closed = 1;
nodes = (
(349,-7,o),
(525,76,o),
(539,215,cs),
(549,310,o),
(495,377,o),
(391,410,c),
(509,447,o),
(531,508,o),
(539,574,cs),
(557,712,o),
(413,796,o),
(153,779,cs),
(129,778,o),
(115,767,o),
(113,741,cs),
(39,38,ls),
(36,14,o),
(52,-7,o),
(75,-7,cs)
);
},
{
closed = 1;
nodes = (
(336,50,o),
(469,119,o),
(480,224,cs),
(491,333,o),
(358,397,o),
(141,379,cs),
(137,379,o),
(134,376,o),
(133,372,cs),
(101,56,ls),
(100,50,o),
(103,48,o),
(108,48,cs)
);
},
{
closed = 1;
nodes = (
(148,365,l),
(356,380,o),
(475,322,o),
(466,226,cs),
(455,131,o),
(334,66,o),
(116,63,c)
);
},
{
closed = 1;
nodes = (
(61,8,o),
(52,19,o),
(53,36,cs),
(127,739,ls),
(129,758,o),
(136,764,o),
(153,765,cs),
(409,780,o),
(541,702,o),
(525,576,cs),
(516,509,o),
(495,453,o),
(369,419,cs),
(364,418,o),
(362,415,o),
(362,411,cs),
(362,405,o),
(364,402,o),
(369,401,cs),
(479,372,o),
(534,310,o),
(525,217,cs),
(511,87,o),
(344,8,o),
(75,8,cs)
);
},
{
closed = 1;
nodes = (
(424,428,o),
(470,500,o),
(480,579,cs),
(490,666,o),
(384,740,o),
(177,726,cs),
(173,726,o),
(170,724,o),
(169,719,cs),
(139,424,ls),
(138,419,o),
(141,416,o),
(146,416,cs)
);
},
{
closed = 1;
nodes = (
(184,712,l),
(380,723,o),
(474,657,o),
(466,581,cs),
(456,507,o),
(416,444,o),
(154,432,c)
);
},
{
closed = 1;
nodes = (
(63,565,l),
(81,613,l),
(72,614,l),
(83,742,l),
(74,743,l),
(62,615,l),
(53,616,l)
);
},
{
closed = 1;
nodes = (
(159,729,o),
(164,734,o),
(164,740,cs),
(164,746,o),
(159,751,o),
(153,751,cs),
(147,751,o),
(142,746,o),
(142,740,cs),
(142,734,o),
(147,729,o),
(153,729,cs)
);
}
);
vertWidth = 0;
width = 613;
},
{
layerId = m002;
shapes = (
{
closed = 1;
nodes = (
(383.6,-7.6,o),
(568.8,76,o),
(584.4,215.2,cs),
(593.2,300,o),
(548.8,363.6,o),
(458.8,400.8,c),
(556.8,438.4,o),
(576.8,495.6,o),
(583.6,556,cs),
(601.2,717.2,o),
(454,797.6,o),
(177.6,779.6,cs),
(137.2,777.6,o),
(111,770,o),
(105.6,715.6,cs),
(35.6,64,ls),
(31,24,o),
(58.8,-7.6,o),
(99.2,-7.6,cs)
);
},
{
closed = 1;
nodes = (
(341.6,110.8,o),
(452.4,158.8,o),
(462.4,230.8,cs),
(472.8,303.6,o),
(368,347.2,o),
(186.4,344.4,cs),
(181.6,344.4,o),
(179,342,o),
(178.4,337.2,cs),
(155.6,115.2,ls),
(155,110,o),
(157.6,107.2,o),
(163.2,107.2,cs)
);
},
{
closed = 1;
nodes = (
(192.8,329.6,l),
(366.8,331.6,o),
(455.6,291.6,o),
(447.6,233.2,cs),
(439.2,171.2,o),
(340.8,126.8,o),
(171.2,122.8,c)
);
},
{
closed = 1;
nodes = (
(66.4,7.6,o),
(47,30,o),
(50.4,62,cs),
(120.4,714.4,ls),
(125,758,o),
(140.4,762.4,o),
(178.4,764.4,cs),
(449.2,782.4,o),
(584.8,708,o),
(568.4,558,cs),
(561.6,496.8,o),
(543.2,445.2,o),
(441.2,410,cs),
(436.8,408.8,o),
(435,406,o),
(434.8,401.6,cs),
(435,396,o),
(436.4,393.2,o),
(440.4,391.6,cs),
(534.4,357.2,o),
(578.4,299.2,o),
(569.6,216.8,cs),
(555.2,87.2,o),
(379.2,7.6,o),
(99.2,7.6,cs)
);
},
{
closed = 1;
nodes = (
(420.4,436.8,o),
(458.8,487.6,o),
(466.4,551.2,cs),
(474.4,622,o),
(383.2,682.8,o),
(221.6,671.6,cs),
(216.8,671.6,o),
(214,669,o),
(213.6,664.4,cs),
(188.4,431.2,ls),
(188,426,o),
(190.8,423.2,o),
(196.4,423.6,cs)
);
},
{
closed = 1;
nodes = (
(227.6,656.8,l),
(379.2,666,o),
(458,612.4,o),
(451.6,552.8,cs),
(444.8,495.6,o),
(412,452.4,o),
(204.4,439.2,c)
);
},
{
closed = 1;
nodes = (
(50,548,l),
(70,595,l),
(61,596,l),
(75,725,l),
(62,726,l),
(48,598,l),
(40,599,l)
);
},
{
closed = 1;
nodes = (
(167,718,o),
(172,723,o),
(172,729,cs),
(172,735,o),
(167,740,o),
(161,740,cs),
(155,740,o),
(150,735,o),
(150,729,cs),
(150,723,o),
(155,718,o),
(161,718,cs)
);
}
);
vertWidth = 0;
width = 650;
}
);
unicode = 66;
},
{
glyphname = C;
kernLeft = O_left;
layers = (
{
layerId = m01;
shapes = (
{
closed = 1;
nodes = (
(363,-13,o),
(459,70,o),
(496,146,cs),
(513,177,o),
(516,200,o),
(490,214,cs),
(465,226,o),
(447,209,o),
(432,180,cs),
(403,122,o),
(341,57,o),
(248,57,cs),
(137,57,o),
(93,183,o),
(132,396,cs),
(168,593,o),
(257,716,o),
(367,716,cs),
(421,716,o),
(465,674,o),
(490,656,cs),
(504,645,o),
(531,635,o),
(550,657,cs),
(568,680,o),
(556,701,o),
(544,713,cs),
(511,743,o),
(459,786,o),
(363,786,cs),
(219,786,o),
(102,640,o),
(58,405,cs),
(9,149,o),
(82,-13,o),
(253,-13,cs)
);
},
{
closed = 1;
nodes = (
(93,2,o),
(25,152,o),
(72,403,cs),
(116,633,o),
(227,771,o),
(363,771,cs),
(453,771,o),
(501,731,o),
(534,701,cs),
(544,692,o),
(550,681,o),
(538,667,cs),
(527,653,o),
(511,659,o),
(500,668,cs),
(475,686,o),
(427,731,o),
(367,731,cs),
(248,731,o),
(154,600,o),
(118,398,cs),
(77,180,o),
(125,42,o),
(248,42,cs),
(348,42,o),
(415,113,o),
(446,174,cs),
(459,199,o),
(468,208,o),
(484,200,cs),
(499,192,o),
(498,181,o),
(482,152,cs),
(447,80,o),
(357,2,o),
(253,2,cs)
);
},
{
closed = 1;
nodes = (
(394,825,l),
(434,794,l),
(436,803,l),
(457,796,o),
(474,788,o),
(491,779,cs),
(512,768,o),
(531,756,o),
(549,741,c),
(555,749,l),
(537,765,o),
(516,778,o),
(496,787,cs),
(478,798,o),
(461,804,o),
(442,811,c),
(445,820,l)
);
},
{
closed = 1;
nodes = (
(527,672,o),
(532,677,o),
(532,683,cs),
(532,689,o),
(527,694,o),
(521,694,cs),
(515,694,o),
(510,689,o),
(510,683,cs),
(510,677,o),
(515,672,o),
(521,672,cs)
);
}
);
vertWidth = 0;
width = 584;
},
{
layerId = m002;
shapes = (
{
closed = 1;
nodes = (
(406.8,-13.6,o),
(508.4,59.6,o),
(549.6,134.4,cs),
(578.8,188.8,o),
(558.8,232,o),
(526.4,248.8,cs),
(492.4,266.8,o),
(460.8,252.8,o),
(444.4,218.4,cs),
(417.6,161.2,o),
(364,106.4,o),
(276,106.4,cs),
(192,106.4,o),
(158.8,194.8,o),
(183.6,392,cs),
(204.4,564.4,o),
(274,663.6,o),
(398,663.6,cs),
(441.6,663.6,o),
(488.8,630.8,o),
(513.6,612.8,cs),
(542.8,592.8,o),
(578,597.2,o),
(599.6,634.4,cs),
(621.6,674.4,o),
(604.8,713.2,o),
(580.4,731.2,cs),
(549.6,753.6,o),
(463.2,785.6,o),
(390,785.6,cs),
(199.6,785.6,o),
(84,653.2,o),
(48.4,408,cs),
(11.2,154.8,o),
(87.2,-13.6,o),
(274,-13.6,cs)
);
},
{
closed = 1;
nodes = (
(98,1.6,o),
(26.8,158,o),
(63.6,406,cs),
(98,645.6,o),
(207.6,770.4,o),
(390,770.4,cs),
(460.8,770.4,o),
(542.4,740.4,o),
(571.6,718.8,cs),
(592,704,o),
(604.8,674.4,o),
(586.4,641.6,cs),
(569.2,612,o),
(546,608.8,o),
(522.4,625.2,cs),
(497.2,643.2,o),
(446.4,678.4,o),
(398,678.4,cs),
(265.2,678.4,o),
(190,570.4,o),
(168.4,394,cs),
(143.2,192,o),
(180.8,91.6,o),
(276,91.6,cs),
(370.4,91.6,o),
(430,152.4,o),
(457.6,211.6,cs),
(471.6,240.4,o),
(492.8,249.6,o),
(519.6,235.2,cs),
(546.4,221.6,o),
(561.6,188.4,o),
(536.4,141.6,cs),
(497.2,70,o),
(401.6,1.6,o),
(274,1.6,cs)
);
},
{
closed = 1;
nodes = (
(407,821,l),
(451,795,l),
(453,804,l),
(474,801,o),
(493,795,o),
(513,789,cs),
(534,782,o),
(552,773,o),
(570,757,c),
(576,769,l),
(559,784,o),
(538,794,o),
(516,801,cs),
(498,808,o),
(477,814,o),
(456,817,c),
(458,826,l)
);
},
{
closed = 1;
nodes = (
(559,672,o),
(564,677,o),
(564,683,cs),
(564,689,o),
(559,694,o),
(553,694,cs),
(547,694,o),
(542,689,o),
(542,683,cs),
(542,677,o),
(547,672,o),
(553,672,cs)
);
}
);
vertWidth = 0;
width = 632;
}
);
unicode = 67;
},
{
glyphname = D;
kernLeft = H_left;
kernRight = O_right;
layers = (
{
layerId = m01;
shapes = (
{
closed = 1;
nodes = (
(152,-7,ls),
(392,-7,o),
(524,148,o),
(552,403,cs),
(578,628,o),
(449,780,o),
(222,780,cs),
(156,780,ls),
(124,780,o),
(116,762,o),
(114,741,cs),
(39,33,ls),
(36,11,o),
(50,-7,o),
(76,-7,cs)
);
},
{
closed = 1;
nodes = (
(59,8,o),
(52,16,o),
(53,31,cs),
(128,739,ls),
(130,757,o),
(134,765,o),
(156,765,cs),
(222,765,ls),
(442,765,o),
(562,623,o),
(538,405,cs),
(510,155,o),
(385,8,o),
(152,8,cs),
(76,8,ls)
);
},
{
closed = 1;
nodes = (
(148,48,ls),
(359,48,o),
(468,177,o),
(494,408,cs),
(515,592,o),
(412,726,o),
(230,726,cs),
(179,726,ls),
(174,726,o),
(171,723,o),
(171,719,cs),
(101,55,ls),
(100,50,o),
(103,48,o),
(108,48,cs)
);
},
{
closed = 1;
nodes = (
(185,711,l),
(230,711,ls),
(403,711,o),
(499,587,o),
(480,410,cs),
(454,184,o),
(352,63,o),
(148,63,cs),
(116,63,l)
);
},
{
closed = 1;
nodes = (
(63,565,l),
(81,613,l),
(72,614,l),
(83,742,l),
(74,743,l),
(62,615,l),
(53,616,l)
);
},
{
closed = 1;
nodes = (
(159,729,o),
(164,734,o),
(164,740,cs),
(164,746,o),
(159,751,o),
(153,751,cs),
(147,751,o),
(142,746,o),
(142,740,cs),
(142,734,o),
(147,729,o),
(153,729,cs)
);
}
);
vertWidth = 0;
width = 604;
},
{
layerId = m002;
shapes = (
{
closed = 1;
nodes = (
(189.2,-7.6,ls),
(422,-7.6,o),
(575.2,148.8,o),
(601.6,398.4,cs),
(624.8,624.4,o),
(485.2,779.6,o),
(253.2,779.6,cs),
(169.2,779.6,ls),
(129.2,779.6,o),
(108,760.4,o),
(104.4,723.6,cs),
(34.4,58.8,ls),
(30,22.4,o),
(58.8,-7.6,o),
(99.2,-7.6,cs)
);
},
{
closed = 1;
nodes = (
(66,7.6,o),
(46,28.8,o),
(49.6,57.2,cs),
(119.6,722.4,ls),
(122.4,752.4,o),
(136,764.4,o),
(169.2,764.4,cs),
(253.2,764.4,ls),
(477.6,764.4,o),
(609.2,618.4,o),
(586.4,399.6,cs),
(560.8,156.4,o),
(414.8,7.6,o),
(189.2,7.6,cs),
(99.2,7.6,ls)
);
},
{
closed = 1;
nodes = (
(182,98.4,ls),
(355.6,98.4,o),
(468,201.6,o),
(486.4,402.4,cs),
(502.8,585.2,o),
(402.8,675.6,o),
(240,675.6,cs),
(226.4,675.6,ls),
(221.6,675.6,o),
(218.8,673.2,o),
(218.4,668.4,cs),
(158.4,106.4,ls),
(158,101.2,o),
(160.4,98.4,o),
(165.6,98.4,cs)
);
},
{
closed = 1;
nodes = (
(232.8,660.4,l),
(240,660.4,ls),
(396,660.4,o),
(487.2,578,o),
(471.6,403.6,cs),
(453.6,209.6,o),
(349.2,113.6,o),
(182,113.6,cs),
(174.4,113.6,l)
);
},
{
closed = 1;
nodes = (
(50,548,l),
(70,595,l),
(61,596,l),
(75,725,l),
(62,726,l),
(48,598,l),
(40,599,l)
);
},
{
closed = 1;
nodes = (
(167,718,o),
(172,723,o),
(172,729,cs),
(172,735,o),
(167,740,o),
(161,740,cs),
(155,740,o),
(150,735,o),
(150,729,cs),
(150,723,o),
(155,718,o),
(161,718,cs)
);
}
);
vertWidth = 0;
width = 647;
}
);
unicode = 68;
},
{
glyphname = E;
kernLeft = H_left;
layers = (
{
layerId = m01;
shapes = (
{
closed = 1;
nodes = (
(449,-7,ls),
(478,-7,o),
(489,11,o),
(489,29,cs),
(489,46,o),
(478,63,o),
(449,63,cs),
(117,63,l),
(151,381,l),
(460,381,ls),
(487,381,o),
(503,398,o),
(503,416,cs),
(503,433,o),
(491,451,o),
(462,451,cs),
(157,451,l),
(185,711,l),
(525,711,ls),
(554,711,o),
(565,728,o),
(565,745,cs),
(565,762,o),
(554,780,o),
(525,780,cs),
(156,780,ls),
(124,780,o),
(116,762,o),
(114,741,cs),
(39,33,ls),
(36,11,o),
(50,-7,o),
(76,-7,cs)
);
},
{
closed = 1;
nodes = (
(59,8,o),
(52,16,o),
(53,31,cs),
(128,739,ls),
(130,757,o),
(134,765,o),
(156,765,cs),
(525,765,ls),
(545,765,o),
(550,757,o),
(550,745,cs),
(550,733,o),
(545,726,o),
(525,726,cs),
(179,726,ls),
(174,726,o),
(171,723,o),
(171,719,cs),
(141,443,ls),
(141,438,o),
(143,436,o),
(149,436,cs),
(462,436,ls),
(482,436,o),
(488,428,o),
(488,416,cs),
(488,405,o),
(480,396,o),
(460,396,cs),
(145,396,ls),
(140,396,o),
(137,393,o),
(137,389,cs),
(101,55,ls),
(101,50,o),
(103,48,o),
(109,48,cs),
(449,48,ls),
(469,48,o),
(474,41,o),
(474,29,cs),
(474,16,o),
(469,8,o),
(449,8,cs),
(76,8,ls)
);
},
{
closed = 1;
nodes = (
(63,565,l),
(81,613,l),
(72,614,l),
(83,742,l),
(74,743,l),
(62,615,l),
(53,616,l)
);
},
{
closed = 1;
nodes = (
(159,729,o),
(164,734,o),
(164,740,cs),
(164,746,o),
(159,751,o),
(153,751,cs),
(147,751,o),
(142,746,o),
(142,740,cs),
(142,734,o),
(147,729,o),
(153,729,cs)
);
}
);
vertWidth = 0;
width = 582;
},
{
layerId = m002;
shapes = (
{
closed = 1;
nodes = (
(484,-7.6,ls),
(524,-7.6,o),
(546.4,28,o),
(546.4,62,cs),
(546.4,94.8,o),
(520.4,114.4,o),
(479.2,114.4,cs),
(174.4,114.4,l),
(197.6,334.4,l),
(487.2,334.4,ls),
(529.2,334.4,o),
(555.6,360.8,o),
(555.6,393.2,cs),
(555.6,428.8,o),
(525.6,450.4,o),
(486,450.4,cs),
(210.4,450.4,l),
(231.6,657.6,l),
(554,657.6,ls),
(593.2,657.6,o),
(618.4,685.2,o),
(618.4,720,cs),
(618.4,754.4,o),
(590,779.6,o),
(549.2,779.6,cs),
(172,779.6,ls),
(132,779.6,o),
(108,764,o),
(104.4,726.8,cs),
(34.4,60,ls),
(30,23.6,o),
(47.6,-7.6,o),
(89.2,-7.6,cs)
);
},
{
closed = 1;
nodes = (
(57.2,7.6,o),
(45.6,27.6,o),
(49.6,58,cs),
(119.6,725.2,ls),
(122,754.8,o),
(137.2,764.4,o),
(172,764.4,cs),
(549.2,764.4,ls),
(583.2,764.4,o),
(603.6,746.8,o),
(603.6,720,cs),
(603.6,692,o),
(585.6,672.4,o),
(554,672.4,cs),
(225.6,672.4,ls),
(220.8,672.4,o),
(218,670,o),
(217.6,665.2,cs),
(194.4,443.6,ls),
(194,438.4,o),
(196.4,435.6,o),
(201.6,435.6,cs),
(486,435.6,ls),
(519.6,435.6,o),
(540.4,420,o),
(540.4,393.2,cs),
(540.4,368,o),
(522,349.6,o),
(487.2,349.6,cs),
(191.6,349.6,ls),
(186.8,349.6,o),
(184,347.2,o),
(183.6,342.4,cs),
(158.4,107.6,ls),
(158,102.4,o),
(160.4,99.6,o),
(165.6,99.6,cs),
(479.2,99.6,ls),
(514.4,99.6,o),
(531.6,86.4,o),
(531.6,62,cs),
(531.6,33.2,o),
(514.8,7.6,o),
(484,7.6,cs),
(89.2,7.6,ls)
);
},
{
closed = 1;
nodes = (
(50,548,l),
(70,595,l),
(61,596,l),
(75,725,l),
(62,726,l),
(48,598,l),
(40,599,l)
);
},
{
closed = 1;
nodes = (
(167,718,o),
(172,723,o),
(172,729,cs),
(172,735,o),
(167,740,o),
(161,740,cs),
(155,740,o),
(150,735,o),
(150,729,cs),
(150,723,o),
(155,718,o),
(161,718,cs)
);
}
);
vertWidth = 0;
width = 631;
}
);
unicode = 69;
},
{
glyphname = F;
kernLeft = H_left;
layers = (
{
layerId = m01;
shapes = (
{
closed = 1;
nodes = (
(109,-7,o),
(111,17,o),
(113,29,cs),
(150,381,l),
(451,381,ls),
(480,381,o),
(493,399,o),
(493,416,cs),
(493,434,o),
(480,451,o),
(451,451,cs),
(157,451,l),
(185,711,l),
(525,711,ls),
(554,711,o),
(565,728,o),
(565,745,cs),
(565,762,o),
(554,780,o),
(525,780,cs),
(156,780,ls),
(124,780,o),
(116,762,o),
(114,741,cs),
(39,33,ls),
(36,11,o),
(50,-7,o),
(76,-7,cs)
);
},
{
closed = 1;
nodes = (
(59,8,o),
(52,16,o),
(53,31,cs),
(128,739,ls),
(130,757,o),
(134,765,o),
(156,765,cs),
(525,765,ls),
(545,765,o),
(550,757,o),
(550,745,cs),
(550,733,o),
(545,726,o),
(525,726,cs),
(179,726,ls),
(174,726,o),
(171,723,o),
(171,719,cs),
(141,443,ls),
(141,438,o),
(143,436,o),
(149,436,cs),
(451,436,ls),
(471,436,o),
(478,427,o),
(478,416,cs),
(478,404,o),
(471,396,o),
(451,396,cs),
(143,396,ls),
(139,396,o),
(136,393,o),
(135,389,cs),
(99,31,ls),
(97,19,o),
(95,8,o),
(76,8,cs)
);
},
{
closed = 1;
nodes = (
(63,565,l),
(81,613,l),
(72,614,l),
(83,742,l),
(74,743,l),
(62,615,l),
(53,616,l)
);
},
{
closed = 1;
nodes = (
(159,729,o),
(164,734,o),
(164,740,cs),
(164,746,o),
(159,751,o),
(153,751,cs),
(147,751,o),
(142,746,o),
(142,740,cs),
(142,734,o),
(147,729,o),
(153,729,cs)
);
}
);
vertWidth = 0;
width = 582;
},
{
layerId = m002;
shapes = (
{
closed = 1;
nodes = (
(142.4,-7.6,o),
(165,21,o),
(169.6,60,cs),
(197.6,322.4,l),
(475.2,322.4,ls),
(518,322,o),
(537.6,349.6,o),
(537.6,381.2,cs),
(537.6,416.8,o),
(508,438,o),
(469.2,438.4,cs),
(209.2,438.4,l),
(232.8,657.6,l),
(539.2,657.6,ls),
(578,658,o),
(607.6,678.4,o),
(607.6,718,cs),
(607.6,755.6,o),
(579,780,o),
(538,779.6,cs),
(171.2,779.6,ls),
(131,780,o),
(110,763,o),
(105.6,725.6,cs),
(35.6,64.8,ls),
(32,30,o),
(50.4,-7.6,o),
(89.2,-7.6,cs)
);
},
{
closed = 1;
nodes = (
(60.4,7.6,o),
(47,34,o),
(50.4,63.2,cs),
(120.4,724.4,ls),
(124,754,o),
(136,764,o),
(171.2,764.4,cs),
(538,764.4,ls),
(572,764,o),
(592.4,747.6,o),
(592.4,718,cs),
(592.4,686.8,o),
(572,672,o),
(539.2,672.4,cs),
(226.4,672.4,ls),
(222,672,o),
(219,670,o),
(218.4,665.2,cs),
(193.6,431.6,ls),
(193,426,o),
(196,424,o),
(200.8,423.6,cs),
(469.2,423.6,ls),
(502,424,o),
(522.4,408.4,o),
(522.4,381.2,cs),
(522.4,355.6,o),
(509,338,o),
(475.2,337.6,cs),
(191.6,337.6,ls),
(187,338,o),
(184,335,o),
(183.6,330.4,cs),
(154.4,62,ls),
(151,28,o),
(134.4,7.6,o),
(89.2,7.6,cs)
);
},
{
closed = 1;
nodes = (
(56,565,l),
(74,613,l),
(65,614,l),
(76,742,l),
(67,743,l),
(55,615,l),
(46,616,l)
);
},
{
closed = 1;
nodes = (
(152,729,o),
(157,734,o),
(157,740,cs),
(157,746,o),
(152,751,o),
(146,751,cs),
(140,751,o),
(135,746,o),
(135,740,cs),
(135,734,o),
(140,729,o),
(146,729,cs)
);
}
);
vertWidth = 0;
width = 620;
}
);
unicode = 70;
},
{
glyphname = G;
kernLeft = O_left;
layers = (
{
layerId = m01;
shapes = (
{
closed = 1;
nodes = (
(320,-12,o),
(401,56,o),
(468,188,c),
(454,44,ls),
(451,17,o),
(455,-6,o),
(486,-7,cs),
(519,-9,o),
(525,18,o),
(527,42,cs),
(563,383,ls),
(566,408,o),
(547,424,o),
(523,424,cs),
(497,424,o),
(489,407,o),
(485,390,c),
(409,168,o),
(307,58,o),
(236,58,cs),
(136,58,o),
(95,183,o),
(129,396,cs),
(164,596,o),
(258,716,o),
(379,716,cs),
(459,716,o),
(494,677,o),
(521,648,cs),
(535,633,o),
(558,623,o),
(575,638,cs),
(593,655,o),
(589,674,o),
(575,693,cs),
(544,732,o),
(471,786,o),
(387,786,cs),
(226,786,o),
(100,640,o),
(57,406,cs),
(10,150,o),
(72,-12,o),
(226,-12,cs)
);
},
{
closed = 1;
nodes = (
(83,3,o),
(26,153,o),
(71,404,cs),
(114,633,o),
(233,771,o),
(387,771,cs),
(466,771,o),
(534,721,o),
(563,683,cs),
(574,669,o),
(576,660,o),
(565,650,cs),
(556,641,o),
(543,646,o),
(531,658,cs),
(506,687,o),
(465,731,o),
(379,731,cs),
(250,731,o),
(150,603,o),
(115,398,cs),
(79,180,o),
(124,43,o),
(236,43,cs),
(314,43,o),
(422,159,o),
(499,386,c),
(503,401,o),
(507,409,o),
(523,409,cs),
(540,409,o),
(550,401,o),
(549,385,cs),
(513,44,ls),
(510,20,o),
(507,7,o),
(486,7,cs),
(468,8,o),
(466,18,o),
(468,42,cs),
(487,223,ls),
(487,228,o),
(485,231,o),
(481,232,cs),
(475,233,o),
(472,232,o),
(470,228,cs),
(402,77,o),
(321,2,o),
(226,3,cs)
);
},
{
closed = 1;
nodes = (
(428,822,l),
(465,787,l),
(468,796,l),
(488,787,o),
(504,778,o),
(521,768,cs),
(541,755,o),
(558,741,o),
(575,725,c),
(582,732,l),
(565,750,o),
(545,764,o),
(526,775,cs),
(509,788,o),
(493,795,o),
(475,804,c),
(478,812,l)
);
},
{
closed = 1;
nodes = (
(554,658,o),
(559,663,o),
(559,669,cs),
(559,675,o),
(554,680,o),
(548,680,cs),
(542,680,o),
(537,675,o),
(537,669,cs),
(537,663,o),
(542,658,o),
(548,658,cs)
);
}
);
vertWidth = 0;
width = 619;
},
{
layerId = m002;
shapes = (
{
closed = 1;
nodes = (
(308.4,-13.6,o),
(372.8,56.4,o),
(425.6,144,c),
(416.4,58.8,ls),
(412,17,o),
(442.4,-7.6,o),
(486,-7.6,cs),
(532,-7.6,o),
(547,18,o),
(550.4,49.2,cs),
(586.4,379.2,ls),
(591,421,o),
(560.8,447.6,o),
(520,447.6,cs),
(470,447.6,o),
(463.2,432.4,o),
(402.4,325.6,cs),
(365.6,261.6,o),
(274.8,108.4,o),
(233.2,108.4,cs),
(179.2,108.4,o),
(158.4,203.2,o),
(180.4,390,cs),
(199.2,547.2,o),
(239.2,663.6,o),
(369.2,663.6,cs),
(434.4,663.6,o),
(461.2,650.4,o),
(478.4,615.6,cs),
(497.2,576.8,o),
(517.6,558.8,o),
(562,569.6,cs),
(599.6,580.4,o),
(604,618,o),
(594,649.2,cs),
(567.2,734.4,o),
(480.8,785.6,o),
(369.2,785.6,cs),
(174,785.6,o),
(82,634.4,o),
(48.4,407.2,cs),
(12.4,164,o),
(48,-13.6,o),
(226,-13.6,cs)
);
},
{
closed = 1;
nodes = (
(61.2,1.6,o),
(27.6,165.2,o),
(63.6,404.8,cs),
(96,628.4,o),
(183.2,770.4,o),
(369.2,770.4,cs),
(476,770.4,o),
(554.8,724,o),
(580,644.8,cs),
(588.4,617.2,o),
(585.2,592,o),
(558,584.4,cs),
(522,575.2,o),
(509.2,586.8,o),
(491.6,622.4,cs),
(472.4,662,o),
(438.4,678.4,o),
(369.2,678.4,cs),
(228.4,678.4,o),
(184.8,551.2,o),
(165.6,392,cs),
(143.2,202.4,o),
(164.8,93.6,o),
(233.2,93.6,cs),
(285.2,93.6,o),
(378.8,254.8,o),
(415.6,318.4,cs),
(476.8,425.6,o),
(480,432.4,o),
(520,432.4,cs),
(554,432.4,o),
(575,414,o),
(571.6,380.8,cs),
(535.6,50.8,ls),
(533,23,o),
(522.8,7.6,o),
(486,7.6,cs),
(448.8,7.6,o),
(428,24,o),
(431.6,57.2,cs),
(443.6,170.4,ls),
(444,175,o),
(442,178,o),
(436.8,179.6,cs),
(432,181,o),
(429.2,179.6,o),
(427.2,175.6,cs),
(372,78.8,o),
(308.8,1.6,o),
(226,1.6,cs)
);
},
{
closed = 1;
nodes = (
(528,793,l),
(549,745,l),
(555,752,l),
(571,738,o),
(583,722,o),
(596,706,cs),
(610,687,o),
(619,670,o),
(624,647,c),
(636,653,l),
(631,675,o),
(620,696,o),
(606,713,cs),
(594,730,o),
(581,746,o),
(565,761,c),
(573,767,l)
);
},
{
closed = 1;
nodes = (
(566,609,o),
(572,613,o),
(573,619,cs),
(574,625,o),
(570,631,o),
(564,632,cs),
(558,632,o),
(552,628,o),
(551,622,cs),
(550,616,o),
(554,611,o),
(560,610,cs)
);
}
);
vertWidth = 0;
width = 633;
}
);
unicode = 71;
},
{
glyphname = H;
kernLeft = H_left;
kernRight = H_right;
layers = (
{
layerId = m01;
shapes = (
{
closed = 1;
nodes = (
(109,-7,o),
(111,17,o),
(113,29,cs),
(151,381,l),
(475,381,l),
(438,33,ls),
(436,17,o),
(441,-7,o),
(475,-7,cs),
(503,-7,o),
(511,13,o),
(512,25,cs),
(588,737,ls),
(591,761,o),
(580,780,o),
(551,780,cs),
(525,780,o),
(516,761,o),
(514,747,cs),
(482,451,l),
(157,451,l),
(187,734,ls),
(191,759,o),
(182,780,o),
(156,780,cs),
(129,780,o),
(116,763,o),
(114,741,cs),
(39,33,ls),
(36,11,o),
(50,-7,o),
(76,-7,cs)
);
},
{
closed = 1;
nodes = (
(59,8,o),
(52,16,o),
(53,31,cs),
(128,739,ls),
(130,756,o),
(137,765,o),
(156,765,cs),
(171,765,o),
(175,756,o),
(173,736,cs),
(141,443,ls),
(141,438,o),
(143,436,o),
(149,436,cs),
(489,436,ls),
(493,436,o),
(496,438,o),
(497,443,cs),
(528,745,ls),
(530,756,o),
(535,765,o),
(551,765,cs),
(571,765,o),
(575,756,o),
(574,739,cs),
(498,27,ls),
(497,17,o),
(493,8,o),
(475,8,cs),
(454,8,o),
(452,19,o),
(452,31,cs),
(491,388,ls),
(491,393,o),
(489,396,o),
(483,396,cs),
(145,396,ls),
(140,396,o),
(137,393,o),
(137,389,cs),
(99,31,ls),
(97,19,o),
(95,8,o),
(76,8,cs)
);
},
{
closed = 1;
nodes = (
(63,565,l),
(81,613,l),
(72,614,l),
(83,742,l),
(74,743,l),
(62,615,l),
(53,616,l)
);
},
{
closed = 1;
nodes = (
(159,729,o),
(164,734,o),
(164,740,cs),
(164,746,o),
(159,751,o),
(153,751,cs),
(147,751,o),
(142,746,o),
(142,740,cs),
(142,734,o),
(147,729,o),
(153,729,cs)
);
}
);
vertWidth = 0;
width = 629;
},
{
layerId = m002;
shapes = (
{
closed = 1;
nodes = (
(148,-7.6,o),
(166,20.4,o),
(169.6,47.2,cs),
(198.8,333.6,l),
(462.8,333.6,l),
(433.6,58.8,ls),
(429.2,20.4,o),
(454.8,-7.6,o),
(498,-7.6,cs),
(535.6,-7.6,o),
(563.2,15.6,o),
(565.6,43.2,cs),
(635.6,711.2,ls),
(640,754,o),
(610.8,779.6,o),
(570,779.6,cs),
(533.6,779.6,o),
(506,758.8,o),
(503.6,728.8,cs),
(475.2,455.6,l),
(211.2,455.6,l),
(236.4,708,ls),
(242,754.8,o),
(217.2,779.6,o),
(178,779.6,cs),
(143.6,779.6,o),
(108,762.8,o),
(104.4,723.6,cs),
(35.6,58.8,ls),
(30.8,21.2,o),
(60,-7.6,o),
(102,-7.6,cs)
);
},
{
closed = 1;
nodes = (
(67.2,7.6,o),
(46.8,27.6,o),
(50.4,57.2,cs),
(119.6,722.4,ls),
(122,752,o),
(147.6,764.4,o),
(178,764.4,cs),
(210,764.4,o),
(226,748.4,o),
(221.6,710,cs),
(195.6,448.4,ls),
(195.2,443.2,o),
(197.6,440.4,o),
(202.8,440.4,cs),
(481.6,440.4,ls),
(486.4,440.4,o),
(489.2,442.8,o),
(489.6,447.6,cs),
(518.4,727.2,ls),
(520.4,750,o),
(539.6,764.4,o),
(570,764.4,cs),
(604,764.4,o),
(624,746.8,o),
(620.4,712.8,cs),
(550.4,44.8,ls),
(548.8,23.6,o),
(529.2,7.6,o),
(498,7.6,cs),
(462.4,7.6,o),
(444.8,26.4,o),
(448.4,57.2,cs),
(478.4,340.4,ls),
(478.8,345.6,o),
(476.4,348.4,o),
(471.2,348.4,cs),
(192.4,348.4,ls),
(187.6,348.4,o),
(184.8,346,o),
(184.4,341.2,cs),
(154.4,48.8,ls),
(151.6,26.8,o),
(138.8,7.6,o),
(102,7.6,cs)
);
},
{
closed = 1;
nodes = (
(50,548,l),
(70,595,l),
(61,596,l),
(75,725,l),
(62,726,l),
(48,598,l),
(40,599,l)
);
},
{
closed = 1;
nodes = (
(167,718,o),
(172,723,o),
(172,729,cs),
(172,735,o),
(167,740,o),
(161,740,cs),
(155,740,o),
(150,735,o),
(150,729,cs),
(150,723,o),
(155,718,o),
(161,718,cs)
);
}
);
vertWidth = 0;
width = 672;
}
);
unicode = 72;
},
{
glyphname = I;
layers = (
{
layerId = m01;
shapes = (
{
closed = 1;
nodes = (
(185,-7,ls),
(215,-8,o),
(222,11,o),
(222,27,cs),
(222,45,o),
(210,62,o),
(182,63,cs),
(171,63,l),
(241,711,l),
(260,711,ls),
(290,710,o),
(297,729,o),
(297,745,cs),
(297,762,o),
(285,780,o),
(256,780,cs),
(151,780,ls),
(121,780,o),
(114,761,o),
(114,745,cs),
(114,727,o),
(126,710,o),
(154,711,cs),
(165,711,l),
(96,63,l),
(76,63,ls),
(47,62,o),
(39,44,o),
(39,27,cs),
(39,9,o),
(51,-8,o),
(79,-7,cs)
);
},
{
closed = 1;
nodes = (
(60,8,o),
(54,16,o),
(54,27,cs),
(54,40,o),
(57,48,o),
(76,48,cs),
(103,48,ls),
(107,48,o),
(110,50,o),
(111,55,cs),
(181,718,ls),
(181,723,o),
(179,726,o),
(173,726,cs),
(154,726,ls),
(135,726,o),
(129,734,o),
(129,745,cs),
(129,757,o),
(132,764,o),
(151,765,cs),
(256,765,ls),
(276,764,o),
(282,757,o),
(282,745,cs),
(282,732,o),
(279,726,o),
(260,726,cs),
(235,726,ls),
(230,726,o),
(227,723,o),
(227,719,cs),
(155,55,ls),
(155,50,o),
(157,48,o),
(163,48,cs),
(182,48,ls),
(201,48,o),
(207,40,o),
(207,27,cs),
(207,14,o),
(204,8,o),
(185,8,cs),
(79,8,ls)
);
},
{
closed = 1;
nodes = (
(212,729,o),
(217,734,o),
(217,740,cs),
(217,746,o),
(212,751,o),
(206,751,cs),
(200,751,o),
(195,746,o),
(195,740,cs),
(195,734,o),
(200,729,o),
(206,729,cs)
);
},
{
closed = 1;
nodes = (
(115,513,l),
(133,561,l),
(124,562,l),
(135,690,l),
(126,691,l),
(114,563,l),
(105,564,l)
);
}
);
vertWidth = 0;
width = 338;
},
{
layerId = m002;
shapes = (
{
closed = 1;
nodes = (
(255.2,-7.6,ls),
(302,-8,o),
(331.6,16.4,o),
(331.6,55.2,cs),
(331.6,91.2,o),
(306,114,o),
(266,114.4,cs),
(254.4,114.4,l),
(312.8,657.6,l),
(327.2,657.6,ls),
(373,658,o),
(403.6,682.4,o),
(403.6,720,cs),
(403.6,756.4,o),
(377,780,o),
(337.2,779.6,cs),
(177.2,779.6,ls),
(130,780,o),
(100.4,755.6,o),
(100.4,718,cs),
(100.4,680.4,o),
(127,658,o),
(166,657.6,cs),
(178.8,657.6,l),
(120.4,114.4,l),
(106,114.4,ls),
(59,114,o),
(29.6,90.4,o),
(29.6,52,cs),
(29.6,15.6,o),
(55,-8,o),
(95.2,-7.6,cs)
);
},
{
closed = 1;
nodes = (
(62,8,o),
(44.4,23.2,o),
(44.4,52,cs),
(44.4,82.4,o),
(66,100,o),
(106,99.6,cs),
(126.4,99.6,ls),
(131,100,o),
(134,102,o),
(134.4,106.8,cs),
(194.4,664.4,ls),
(195,670,o),
(192,672,o),
(187.2,672.4,cs),
(166,672.4,ls),
(134,672,o),
(115.6,688.4,o),
(115.6,718,cs),
(115.6,747.6,o),
(137,764,o),
(177.2,764.4,cs),
(337.2,764.4,ls),
(370,764,o),
(388.4,748.4,o),
(388.4,720,cs),
(388.4,690.4,o),
(366,672,o),
(327.2,672.4,cs),
(306.4,672.4,ls),
(302,672,o),
(299,670,o),
(298.4,665.2,cs),
(238.4,107.6,ls),
(238,102,o),
(240,100,o),
(245.6,99.6,cs),
(266,99.6,ls),
(299,100,o),
(316.4,83.6,o),
(316.4,55.2,cs),
(316.4,24.4,o),
(295,8,o),
(255.2,7.6,cs),
(95.2,7.6,ls)
);
},
{
closed = 1;
nodes = (
(258,705,o),
(263,710,o),
(263,716,cs),
(263,722,o),
(258,727,o),
(252,727,cs),
(246,727,o),
(241,722,o),
(241,716,cs),
(241,710,o),
(246,705,o),
(252,705,cs)
);
},
{
closed = 1;
nodes = (
(126,460,l),
(146,507,l),
(137,508,l),
(151,637,l),
(138,638,l),
(124,510,l),
(116,511,l)
);
}
);
vertWidth = 0;
width = 436;
}
);
unicode = 73;
},
{
glyphname = J;
kernRight = H_right;
layers = (
{
layerId = m01;
shapes = (
{
closed = 1;
nodes = (
(298,-13,o),
(361,64,o),
(378,243,cs),
(426,711,l),
(448,711,ls),
(478,710,o),
(484,729,o),
(484,745,cs),
(484,762,o),
(473,780,o),
(444,780,cs),
(338,780,ls),
(309,780,o),
(302,761,o),
(302,745,cs),
(302,728,o),
(313,710,o),
(342,711,cs),
(351,711,l),
(304,245,ls),
(290,108,o),
(248,57,o),
(175,57,cs),
(128,57,o),
(101,89,o),
(77,119,cs),
(62,139,o),
(38,144,o),
(22,127,cs),
(4,110,o),
(10,88,o),
(21,72,cs),
(57,28,o),
(107,-13,o),
(175,-13,cs)
);
},
{
closed = 1;
nodes = (
(113,2,o),
(67,38,o),
(33,82,cs),
(24,94,o),
(21,106,o),
(32,117,cs),
(42,127,o),
(54,124,o),
(65,109,cs),
(89,79,o),
(122,42,o),
(175,42,cs),
(257,42,o),
(304,101,o),
(318,243,cs),
(367,718,ls),
(367,723,o),
(365,726,o),
(359,726,cs),
(342,726,ls),
(322,726,o),
(317,733,o),
(317,745,cs),
(317,757,o),
(320,764,o),
(338,765,cs),
(444,765,ls),
(464,764,o),
(469,757,o),
(469,745,cs),
(469,732,o),
(467,726,o),
(448,726,cs),
(419,726,ls),
(415,726,o),
(412,723,o),
(411,719,cs),
(364,245,ls),
(346,71,o),
(290,2,o),
(175,2,cs)
);
},
{
closed = 1;
nodes = (
(395,729,o),
(400,734,o),
(400,740,cs),
(400,746,o),
(395,751,o),
(389,751,cs),
(383,751,o),
(378,746,o),
(378,740,cs),
(378,734,o),
(383,729,o),
(389,729,cs)
);
},
{
closed = 1;
nodes = (
(298,513,l),
(316,561,l),
(307,562,l),
(318,690,l),
(309,691,l),
(297,563,l),
(288,564,l)
);
}
);
vertWidth = 0;
width = 525;
},
{
layerId = m002;
shapes = (
{
closed = 1;
nodes = (
(292.4,-12.4,o),
(383,59,o),
(401.6,228.4,cs),
(447.6,657.6,l),
(463.2,657.6,ls),
(510,658,o),
(539.6,682.4,o),
(539.6,720,cs),
(539.6,756.4,o),
(514,780,o),
(474,779.6,cs),
(314,779.6,ls),
(267,780,o),
(237.6,755.6,o),
(237.6,718,cs),
(237.6,680.8,o),
(263,658,o),
(303.2,657.6,cs),
(315.6,657.6,l),
(272.4,258.8,ls),
(259,131,o),
(229.6,108.4,o),
(188,108.4,cs),
(158,108.4,o),
(124.4,126,o),
(87.2,163.2,cs),
(58,192.4,o),
(16,188.8,o),
(-10.8,156.8,cs),
(-31.2,132.8,o),
(-26.8,91.2,o),
(-6.4,70,cs),
(44.8,16.8,o),
(106,-12.4,o),
(173.2,-12.4,cs)
);
},
{
closed = 1;
nodes = (
(109.6,2.4,o),
(53.6,29.2,o),
(4.4,80,cs),
(-12,97.2,o),
(-15.2,128.4,o),
(0.8,147.2,cs),
(22.8,173.6,o),
(53.2,176.4,o),
(76.8,152.8,cs),
(115.6,113.6,o),
(154,93.6,o),
(188,93.6,cs),
(236,93.6,o),
(273,122,o),
(287.6,257.2,cs),
(331.6,664.4,ls),
(332,670,o),
(330,672,o),
(324.4,672.4,cs),
(303.2,672.4,ls),
(270,672,o),
(252.4,688.4,o),
(252.4,718,cs),
(252.4,747.6,o),
(274,764,o),
(314,764.4,cs),
(474,764.4,ls),
(507,764,o),
(524.4,748.8,o),
(524.4,720,cs),
(524.4,690.4,o),
(503,672,o),
(463.2,672.4,cs),
(441.6,672.4,ls),
(437,672,o),
(434,670,o),
(433.6,665.2,cs),
(386.4,229.6,ls),
(369,68,o),
(286.4,2.4,o),
(173.2,2.4,cs)
);
},
{
closed = 1;
nodes = (
(396,701,o),
(401,706,o),
(401,712,cs),
(401,718,o),
(396,723,o),
(390,723,cs),
(384,723,o),
(379,718,o),
(379,712,cs),
(379,706,o),
(384,701,o),
(390,701,cs)
);
},
{
closed = 1;
nodes = (
(264,456,l),
(284,503,l),
(275,504,l),
(289,633,l),
(276,634,l),
(262,506,l),
(254,507,l)
);
}
);
vertWidth = 0;
width = 571;
}
);
unicode = 74;
},
{
glyphname = K;
kernLeft = H_left;
layers = (
{
layerId = m01;
shapes = (
{
closed = 1;
nodes = (
(108,-7,o),
(111,20,o),
(113,36,cs),
(150,375,l),
(435,18,ls),
(445,6,o),
(459,-7,o),
(477,-7,cs),
(497,-7,o),
(513,8,o),
(513,27,cs),
(513,38,o),
(507,47,o),
(501,55,cs),
(210,416,l),
(561,709,l),
(577,724,o),
(586,738,o),
(586,750,cs),
(586,768,o),
(573,780,o),
(553,780,cs),
(542,780,o),
(529,776,o),
(514,763,cs),
(158,461,l),
(187,734,ls),
(191,759,o),
(184,780,o),
(156,780,cs),
(127,780,o),
(116,762,o),
(114,741,cs),
(39,39,ls),
(36,17,o),
(50,-7,o),
(76,-7,cs)
);
},
{
closed = 1;
nodes = (
(59,8,o),
(52,22,o),
(53,37,cs),
(128,739,ls),
(130,756,o),
(136,765,o),
(156,765,cs),
(173,765,o),
(175,756,o),
(173,736,cs),
(141,439,ls),
(140,432,o),
(144,429,o),
(150,434,cs),
(524,751,ls),
(537,762,o),
(544,765,o),
(553,765,cs),
(566,765,o),
(571,761,o),
(571,750,cs),
(571,742,o),
(565,734,o),
(551,721,cs),
(195,423,ls),
(191,420,o),
(191,416,o),
(194,412,cs),
(489,45,ls),
(495,39,o),
(498,34,o),
(498,27,cs),
(498,15,o),
(490,8,o),
(477,8,cs),
(465,8,o),
(456,16,o),
(447,28,cs),
(147,403,ls),
(143,408,o),
(138,406,o),
(137,400,cs),
(99,38,ls),
(97,22,o),
(94,8,o),
(76,8,cs)
);
},
{
closed = 1;
nodes = (
(63,565,l),
(81,613,l),
(72,614,l),
(83,742,l),
(74,743,l),
(62,615,l),
(53,616,l)
);
},
{
closed = 1;
nodes = (
(159,729,o),
(164,734,o),
(164,740,cs),
(164,746,o),
(159,751,o),
(153,751,cs),
(147,751,o),
(142,746,o),
(142,740,cs),
(142,734,o),
(147,729,o),
(153,729,cs)
);
}
);
vertWidth = 0;
width = 570;
},
{
layerId = m002;
shapes = (
{
closed = 1;
nodes = (
(145.6,-7.6,o),
(165.2,19.2,o),
(169.6,52,cs),
(197.6,312.8,l),
(443.2,25.2,ls),
(460.4,6,o),
(484,-7.6,o),
(508,-7.6,cs),
(541.2,-7.6,o),
(569.6,23.2,o),
(569.6,55.2,cs),
(569.6,71.6,o),
(561.2,88,o),
(547.6,104.8,cs),
(280.8,414,l),
(605.6,662,ls),
(623.6,675.6,o),
(637.2,694,o),
(638.4,714.8,cs),
(639.6,746.4,o),
(613.6,779.6,o),
(575.2,779.6,cs),
(554.4,779.6,o),
(534.8,770.4,o),
(517.2,755.6,cs),
(218.4,507.6,l),
(239.6,708.4,ls),
(244,761.2,o),
(208.8,779.6,o),
(177.2,779.6,cs),
(143.2,779.6,o),
(111.2,762.4,o),
(106.4,724,cs),
(35.6,64.8,ls),
(31.2,25.2,o),
(62.8,-7.6,o),
(105.2,-7.6,cs)
);
},
{
closed = 1;
nodes = (
(70,7.6,o),
(46.8,31.6,o),
(50.4,63.2,cs),
(121.6,722,ls),
(124.8,752.4,o),
(148,764.4,o),
(177.2,764.4,cs),
(204,764.4,o),
(228,751.6,o),
(224.4,709.6,cs),
(200.8,485.6,ls),
(200.4,478.8,o),
(204.4,476.4,o),
(209.6,480.8,cs),
(526.8,744.4,ls),
(543.2,757.6,o),
(557.6,764.4,o),
(575.2,764.4,cs),
(605.2,764.4,o),
(624.4,740.4,o),
(623.6,715.2,cs),
(622.8,699.6,o),
(612.8,686.4,o),
(596.4,674,cs),
(265.2,420.8,ls),
(261.2,417.6,o),
(261.2,414,o),
(264.4,410,cs),
(536.4,95.2,ls),
(548.8,80,o),
(554.4,68.4,o),
(554.4,55.2,cs),
(554.4,30,o),
(533.6,7.6,o),
(508,7.6,cs),
(488,7.6,o),
(469.6,18,o),
(454.8,34.8,cs),
(194.8,339.6,ls),
(190.4,344.8,o),
(185.6,343.2,o),
(185.2,336.4,cs),
(154.4,54,ls),
(150.8,26,o),
(137.2,7.6,o),
(105.2,7.6,cs)
);
},
{
closed = 1;
nodes = (
(50,548,l),
(70,595,l),
(61,596,l),
(75,725,l),
(62,726,l),
(48,598,l),
(40,599,l)
);
},
{
closed = 1;
nodes = (
(167,718,o),
(172,723,o),
(172,729,cs),
(172,735,o),
(167,740,o),
(161,740,cs),
(155,740,o),
(150,735,o),
(150,729,cs),
(150,723,o),
(155,718,o),
(161,718,cs)
);
}
);
vertWidth = 0;
width = 615;
}
);
unicode = 75;
},
{
glyphname = L;
kernLeft = H_left;
layers = (
{
layerId = m01;
shapes = (
{
closed = 1;
nodes = (
(433,-7,ls),
(460,-7,o),
(472,10,o),
(472,29,cs),
(472,49,o),
(458,63,o),
(432,63,cs),
(117,63,l),
(187,734,ls),
(191,758,o),
(186,780,o),
(156,780,cs),
(127,780,o),
(116,762,o),
(114,741,cs),
(39,33,ls),
(36,11,o),
(50,-7,o),
(76,-7,cs)
);
},
{
closed = 1;
nodes = (
(59,8,o),
(52,16,o),
(53,31,cs),
(128,739,ls),
(130,756,o),
(136,765,o),
(156,765,cs),
(173,765,o),
(175,757,o),
(173,736,cs),
(101,55,ls),
(101,50,o),
(103,48,o),
(109,48,cs),
(432,48,ls),
(451,48,o),
(457,42,o),
(457,29,cs),
(457,15,o),
(451,8,o),
(433,8,cs),
(76,8,ls)
);
},
{
closed = 1;
nodes = (
(63,565,l),
(81,613,l),
(72,614,l),
(83,742,l),
(74,743,l),
(62,615,l),
(53,616,l)
);
},
{
closed = 1;
nodes = (
(159,729,o),
(164,734,o),
(164,740,cs),
(164,746,o),
(159,751,o),
(153,751,cs),
(147,751,o),
(142,746,o),
(142,740,cs),
(142,734,o),
(147,729,o),
(153,729,cs)
);
}
);
vertWidth = 0;
width = 528;
},
{
layerId = m002;
shapes = (
{
closed = 1;
nodes = (
(468,-7.6,ls),
(508.4,-7.6,o),
(531.6,22.8,o),
(531.6,55.2,cs),
(531.6,87.2,o),
(500.8,115.6,o),
(461.2,115.6,cs),
(173.2,115.6,l),
(236.4,708.4,ls),
(242,764.4,o),
(206.4,779.6,o),
(175.2,779.6,cs),
(137.2,779.6,o),
(108,762.4,o),
(104.4,723.6,cs),
(34.4,58.8,ls),
(30,22,o),
(52.4,-7.6,o),
(93.2,-7.6,cs)
);
},
{
closed = 1;
nodes = (
(60.8,7.6,o),
(46,27.2,o),
(49.6,57.2,cs),
(119.6,722.4,ls),
(122,752.4,o),
(142,764.4,o),
(175.2,764.4,cs),
(202.4,764.4,o),
(226,754.4,o),
(221.6,709.6,cs),
(157.6,108.4,ls),
(157.2,103.2,o),
(159.6,100.4,o),
(164.8,100.4,cs),
(461.2,100.4,ls),
(494,100.4,o),
(516.4,79.6,o),
(516.4,55.2,cs),
(516.4,28.4,o),
(500.4,7.6,o),
(468,7.6,cs),
(93.2,7.6,ls)
);
},
{
closed = 1;
nodes = (
(50,548,l),
(70,595,l),
(61,596,l),
(75,725,l),
(62,726,l),
(48,598,l),
(40,599,l)
);
},
{
closed = 1;
nodes = (
(167,718,o),
(172,723,o),
(172,729,cs),
(172,735,o),
(167,740,o),
(161,740,cs),
(155,740,o),
(150,735,o),
(150,729,cs),
(150,723,o),
(155,718,o),
(161,718,cs)
);
}
);
vertWidth = 0;
width = 577;
}
);
unicode = 76;
},
{
glyphname = M;
kernLeft = H_left;
kernRight = H_right;
layers = (
{
layerId = m01;
shapes = (
{
closed = 1;
nodes = (
(23,-7,o),
(39,2,o),
(52,27,cs),
(341,620,l),
(410,28,ls),
(411,15,o),
(417,-7,o),
(450,-7,cs),
(478,-7,o),
(489,17,o),
(494,26,cs),
(783,623,l),
(852,28,ls),
(853,15,o),
(860,-7,o),
(891,-7,cs),
(915,-7,o),
(928,10,o),
(925,32,cs),
(843,740,ls),
(841,759,o),
(837,780,o),
(798,780,cs),
(775,780,o),
(765,757,o),
(759,744,cs),
(470,147,l),
(400,751,ls),
(399,762,o),
(388,780,o),
(362,780,cs),
(338,780,o),
(327,763,o),
(319,746,cs),
(-20,48,ls),
(-34,19,o),
(-22,-7,o),
(7,-7,cs)
);
},
{
closed = 1;
nodes = (
(-11,8,o),
(-17,20,o),
(-6,42,cs),
(333,740,ls),
(341,756,o),
(346,765,o),
(362,765,cs),
(379,765,o),
(385,756,o),
(386,749,cs),
(457,127,ls),
(457,122,o),
(460,119,o),
(464,119,cs),
(465,119,ls),
(470,119,o),
(473,120,o),
(474,124,cs),
(773,738,ls),
(779,751,o),
(785,765,o),
(798,765,cs),
(825,765,o),
(826,757,o),
(829,738,cs),
(911,30,ls),
(912,15,o),
(906,8,o),
(891,8,cs),
(871,8,o),
(868,18,o),
(866,30,cs),
(795,643,ls),
(795,648,o),
(792,651,o),
(788,651,cs),
(787,651,ls),
(782,651,o),
(779,650,o),
(778,646,cs),
(480,32,ls),
(476,23,o),
(468,8,o),
(450,8,cs),
(429,8,o),
(426,18,o),
(424,30,cs),
(354,640,ls),
(354,645,o),
(352,648,o),
(347,648,cs),
(346,648,ls),
(341,648,o),
(338,647,o),
(336,643,cs),
(38,33,ls),
(29,13,o),
(18,8,o),
(7,8,cs)
);
},
{
closed = 1;
nodes = (
(200,576,l),
(235,614,l),
(227,618,l),
(283,734,l),
(275,738,l),
(218,623,l),
(209,627,l)
);
},
{
closed = 1;
nodes = (
(367,731,o),
(372,736,o),
(372,742,cs),
(372,748,o),
(367,753,o),
(361,753,cs),
(355,753,o),
(350,748,o),
(350,742,cs),
(350,736,o),
(355,731,o),
(361,731,cs)
);
}
);
vertWidth = 0;
width = 982;
},
{
layerId = m002;
shapes = (
{
closed = 1;
nodes = (
(60.4,-7.6,o),
(99,5,o),
(113.6,36,cs),
(336.4,504.8,l),
(385.6,47.2,ls),
(389,17,o),
(412,-7.6,o),
(451.2,-7.6,cs),
(503.6,-7.6,o),
(518,19,o),
(524.8,33.6,cs),
(753.2,506.8,l),
(797.6,47.2,ls),
(800,18,o),
(829.2,-7.6,o),
(870,-7.6,cs),
(908,-7.6,o),
(935,20,o),
(931.6,56,cs),
(859.6,720.8,ls),
(856,756,o),
(848,779.6,o),
(802,779.6,cs),
(762,779.6,o),
(738,764,o),
(724.4,735.2,cs),
(491.6,256.8,l),
(442.4,720.8,ls),
(438,758,o),
(422.8,779.6,o),
(371.2,779.6,cs),
(332.8,779.6,o),
(320,762,o),
(307.2,736.4,cs),
(-14.8,79.2,ls),
(-41,25,o),
(1.6,-7.6,o),
(38,-7.6,cs)
);
},
{
closed = 1;
nodes = (
(8.4,7.6,o),
(-22,30,o),
(-1.2,72.8,cs),
(320.8,729.6,ls),
(333,754,o),
(340.8,764.4,o),
(371.2,764.4,cs),
(414,764.4,o),
(424,751,o),
(427.6,719.2,cs),
(478.8,235.6,ls),
(479,231,o),
(482,228,o),
(486,228,cs),
(487.2,228,ls),
(492,228,o),
(494,229,o),
(496.4,232.8,cs),
(737.6,728.8,ls),
(749,753,o),
(767.2,764.4,o),
(802,764.4,cs),
(836.4,764.4,o),
(841,752,o),
(844.4,719.2,cs),
(916.4,54,ls),
(919,27,o),
(900.8,7.6,o),
(870,7.6,cs),
(836,7.6,o),
(814,27,o),
(812.4,48.8,cs),
(766.4,528,ls),
(766,533,o),
(764,536,o),
(759.2,536,cs),
(757.6,536,ls),
(753,536,o),
(750,535,o),
(748.4,531.2,cs),
(511.2,40.4,ls),
(504,26,o),
(494.4,7.6,o),
(451.2,7.6,cs),
(419.2,7.6,o),
(403,24,o),
(400.4,48.8,cs),
(349.2,526.4,ls),
(349,531,o),
(346,534,o),
(342,534,cs),
(340.8,534,ls),
(336,534,o),
(334,533,o),
(331.6,529.2,cs),
(100.4,42,ls),
(89,17,o),
(58,7.6,o),
(38,7.6,cs)
);
},
{
closed = 1;
nodes = (
(184,552,l),
(218,589,l),
(211,594,l),
(268,710,l),
(256,715,l),
(199,600,l),
(192,603,l)
);
},
{
closed = 1;
nodes = (
(363,713,o),
(368,718,o),
(368,724,cs),
(368,730,o),
(363,735,o),
(357,735,cs),
(351,735,o),
(346,730,o),
(346,724,cs),
(346,718,o),
(351,713,o),
(357,713,cs)
);
}
);
vertWidth = 0;
width = 979;
}
);
unicode = 77;
},
{
glyphname = N;
kernLeft = H_left;
kernRight = H_right;
layers = (
{
layerId = m01;
shapes = (
{
closed = 1;
nodes = (
(109,-7,o),
(111,18,o),
(113,32,cs),
(175,622,l),
(437,18,ls),
(444,2,o),
(459,-7,o),
(477,-7,cs),
(505,-7,o),
(509,9,o),
(512,29,cs),
(587,734,ls),
(590,759,o),
(583,780,o),
(555,780,cs),
(526,780,o),
(516,762,o),
(513,741,cs),
(452,168,l),
(199,751,ls),
(192,767,o),
(180,780,o),
(154,780,cs),
(124,780,o),
(116,762,o),
(114,741,cs),
(39,33,ls),
(36,11,o),
(50,-7,o),
(76,-7,cs)
);
},
{
closed = 1;
nodes = (
(59,8,o),
(52,16,o),
(53,31,cs),
(128,739,ls),
(130,757,o),
(134,765,o),
(154,765,cs),
(173,765,o),
(180,758,o),
(185,745,cs),
(446,142,ls),
(448,138,o),
(451,136,o),
(456,137,cs),
(457,137,ls),
(461,138,o),
(464,141,o),
(464,145,cs),
(527,739,ls),
(530,756,o),
(535,765,o),
(555,765,cs),
(572,765,o),
(574,756,o),
(573,736,cs),
(498,31,ls),
(495,13,o),
(493,8,o),
(477,8,cs),
(464,8,o),
(456,13,o),
(451,24,cs),
(180,648,ls),
(179,652,o),
(176,654,o),
(171,653,cs),
(170,653,ls),
(166,652,o),
(163,649,o),
(163,645,cs),
(99,34,ls),
(97,20,o),
(95,8,o),
(76,8,cs)
);
},
{
closed = 1;
nodes = (
(63,565,l),
(81,613,l),
(72,614,l),
(83,742,l),
(74,743,l),
(62,615,l),
(53,616,l)
);
},
{
closed = 1;
nodes = (
(159,729,o),
(164,734,o),
(164,740,cs),
(164,746,o),
(159,751,o),
(153,751,cs),
(147,751,o),
(142,746,o),
(142,740,cs),
(142,734,o),
(147,729,o),
(153,729,cs)
);
}
);
vertWidth = 0;
width = 629;
},
{
layerId = m002;
shapes = (
{
closed = 1;
nodes = (
(141.2,-7.6,o),
(166,18.8,o),
(169.6,49.2,cs),
(215.6,500.4,l),
(439.2,29.6,ls),
(450.4,6.4,o),
(472.4,-7.6,o),
(505.2,-7.6,cs),
(550.4,-7.6,o),
(563.2,20.4,o),
(565.6,47.2,cs),
(634.4,708.4,ls),
(638.8,750,o),
(616,783.6,o),
(571.2,783.6,cs),
(534.8,783.6,o),
(506,761.6,o),
(502.4,723.6,cs),
(457.2,289.2,l),
(242.8,741.2,ls),
(230.4,769.2,o),
(206,779.6,o),
(177.2,779.6,cs),
(136,779.6,o),
(108,761.2,o),
(104.4,723.6,cs),
(35.6,58.8,ls),
(31.2,21.2,o),
(58.8,-7.6,o),
(97.2,-7.6,cs)
);
},
{
closed = 1;
nodes = (
(66,7.6,o),
(46.8,27.6,o),
(50.4,57.2,cs),
(119.6,722.4,ls),
(122,751.6,o),
(141.2,764.4,o),
(177.2,764.4,cs),
(202.4,764.4,o),
(219.2,757.2,o),
(229.2,734.8,cs),
(452.4,264.8,ls),
(454.4,260.8,o),
(457.2,259.2,o),
(461.6,260,cs),
(463.2,260,ls),
(467.6,260.8,o),
(470,263.2,o),
(470.4,267.6,cs),
(517.6,722.4,ls),
(520,753.2,o),
(540.4,768.4,o),
(571.2,768.4,cs),
(607.2,768.4,o),
(623.2,745.2,o),
(619.6,709.6,cs),
(550.4,48.8,ls),
(548.8,24.8,o),
(540.4,7.6,o),
(505.2,7.6,cs),
(477.2,7.6,o),
(462,17.2,o),
(452.8,36.4,cs),
(220.4,525.2,ls),
(218.4,529.2,o),
(215.6,530.8,o),
(211.2,530,cs),
(210,530,ls),
(205.6,529.2,o),
(203.2,526.8,o),
(202.8,522.4,cs),
(154.4,50.8,ls),
(152,26.4,o),
(133.6,7.6,o),
(97.2,7.6,cs)
);
},
{
closed = 1;
nodes = (
(50,548,l),
(70,595,l),
(61,596,l),
(75,725,l),
(62,726,l),
(48,598,l),
(40,599,l)
);
},
{
closed = 1;
nodes = (
(167,718,o),
(172,723,o),
(172,729,cs),
(172,735,o),
(167,740,o),
(161,740,cs),
(155,740,o),
(150,735,o),
(150,729,cs),
(150,723,o),
(155,718,o),
(161,718,cs)
);
}
);
vertWidth = 0;
width = 672;
}
);
unicode = 78;
},
{
glyphname = O;
kernLeft = O_left;
kernRight = O_right;
layers = (
{
layerId = m01;
shapes = (
{
closed = 1;
nodes = (
(416,-13,o),
(510,131,o),
(538,411,cs),
(560,621,o),
(474,786,o),
(330,786,cs),
(172,786,o),
(77,636,o),
(50,356,cs),
(27,146,o),
(115,-13,o),
(256,-13,cs)
);
},
{
closed = 1;
nodes = (
(124,2,o),
(43,151,o),
(64,354,cs),
(91,629,o),
(181,771,o),
(330,771,cs),
(463,771,o),
(544,618,o),
(524,413,cs),
(496,138,o),
(407,2,o),
(256,2,cs)
);
},
{
closed = 1;
nodes = (
(380,42,o),
(453,172,o),
(478,420,cs),
(496,592,o),
(433,731,o),
(330,731,cs),
(207,731,o),
(134,596,o),
(109,348,cs),
(91,174,o),
(154,42,o),
(257,42,cs)
);
},
{
closed = 1;
nodes = (
(165,57,o),
(107,178,o),
(123,346,cs),
(148,591,o),
(216,716,o),
(330,716,cs),
(422,716,o),
(480,589,o),
(464,422,cs),
(439,177,o),
(371,57,o),
(257,57,cs)
);
},
{
closed = 1;
nodes = (
(306,833,l),
(348,805,l),
(349,814,l),
(371,809,o),
(388,802,o),
(406,794,cs),
(427,785,o),
(447,774,o),
(466,760,c),
(472,769,l),
(453,784,o),
(431,795,o),
(410,803,cs),
(391,812,o),
(374,817,o),
(355,823,c),
(357,832,l)
);
},
{
closed = 1;
nodes = (
(448,682,o),
(453,687,o),
(453,693,cs),
(453,699,o),
(448,704,o),
(442,704,cs),
(436,704,o),
(431,699,o),
(431,693,cs),
(431,687,o),
(436,682,o),
(442,682,cs)
);
}
);
vertWidth = 0;
width = 590;
},
{
layerId = m002;
shapes = (
{
closed = 1;
nodes = (
(450.8,-13.6,o),
(568,152.4,o),
(594.4,401.2,cs),
(616.8,626.8,o),
(517.2,785.6,o),
(359.2,785.6,cs),
(187.2,785.6,o),
(70,620.4,o),
(43.6,371.6,cs),
(21.2,146,o),
(120.8,-13.6,o),
(279.2,-13.6,cs)
);
},
{
closed = 1;
nodes = (
(130,1.6,o),
(36.8,150.8,o),
(58.4,370.4,cs),
(84.4,614.4,o),
(196,770.4,o),
(359.2,770.4,cs),
(508,770.4,o),
(601.2,622,o),
(579.6,402.8,cs),
(553.6,158.8,o),
(442,1.6,o),
(279.2,1.6,cs)
);
},
{
closed = 1;
nodes = (
(389.2,93.6,o),
(460.4,218.8,o),
(476.4,401.2,cs),
(492.8,565.6,o),
(440.8,678.4,o),
(349.2,678.4,cs),
(248.8,678.4,o),
(177.6,553.2,o),
(161.6,371.6,cs),
(145.2,206.4,o),
(197.2,93.6,o),
(289.2,93.6,cs)
);
},
{
closed = 1;
nodes = (
(207.6,108.4,o),
(160.8,210.4,o),
(176.4,370.4,cs),
(192.4,547.6,o),
(258.4,663.6,o),
(349.2,663.6,cs),
(430.4,663.6,o),
(477.2,561.6,o),
(461.6,402.8,cs),
(445.6,224.4,o),
(379.6,108.4,o),
(289.2,108.4,cs)
);
},
{
closed = 1;
nodes = (
(322,827,l),
(367,803,l),
(368,812,l),
(389,810,o),
(409,804,o),
(429,799,cs),
(450,793,o),
(468,785,o),
(487,769,c),
(492,781,l),
(475,796,o),
(454,805,o),
(431,811,cs),
(413,818,o),
(392,823,o),
(371,825,c),
(372,834,l)
);
},
{
closed = 1;
nodes = (
(471,684,o),
(476,689,o),
(476,695,cs),
(476,701,o),
(471,706,o),
(465,706,cs),
(459,706,o),
(454,701,o),
(454,695,cs),
(454,689,o),
(459,684,o),
(465,684,cs)
);
}
);
vertWidth = 0;
width = 639;
}
);
unicode = 79;
},
{
glyphname = P;
kernLeft = H_left;
layers = (
{
layerId = m01;
shapes = (
{
closed = 1;
nodes = (
(109,-7,o),
(111,22,o),
(113,33,c),
(146,342,l),
(362,346,o),
(534,400,o),
(550,560,cs),
(565,710,o),
(404,780,o),
(156,780,cs),
(127,780,o),
(116,764,o),
(114,741,cs),
(39,38,ls),
(36,16,o),
(50,-7,o),
(76,-7,cs)
);
},
{
closed = 1;
nodes = (
(59,8,o),
(52,21,o),
(53,36,cs),
(128,739,ls),
(130,757,o),
(136,765,o),
(156,765,cs),
(399,765,o),
(549,699,o),
(536,562,cs),
(520,411,o),
(356,360,o),
(139,356,cs),
(135,356,o),
(132,354,o),
(131,349,cs),
(99,35,ls),
(97,24,o),
(95,8,o),
(76,8,cs)
);
},
{
closed = 1;
nodes = (
(340,398,o),
(478,441,o),
(490,566,cs),
(501,667,o),
(379,722,o),
(179,726,cs),
(174,726,o),
(171,723,o),
(171,718,cs),
(137,403,ls),
(137,398,o),
(140,395,o),
(145,395,cs)
);
},
{
closed = 1;
nodes = (
(185,710,l),
(377,706,o),
(485,655,o),
(476,568,cs),
(464,455,o),
(341,415,o),
(153,411,c)
);
},
{
closed = 1;
nodes = (
(63,565,l),
(81,613,l),
(72,614,l),
(83,742,l),
(74,743,l),
(62,615,l),
(53,616,l)
);
},
{
closed = 1;
nodes = (
(159,729,o),
(164,734,o),
(164,740,cs),
(164,746,o),
(159,751,o),
(153,751,cs),
(147,751,o),
(142,746,o),
(142,740,cs),
(142,734,o),
(147,729,o),
(153,729,cs)
);
}
);
vertWidth = 0;
width = 585;
},
{
layerId = m002;
shapes = (
{
closed = 1;
nodes = (
(143.2,-7.6,o),
(165.2,16,o),
(167.6,45.2,cs),
(195.6,311.6,l),
(370,319.6,o),
(553.2,359.6,o),
(574.4,554,cs),
(592,720.8,o),
(419.2,779.6,o),
(166,779.6,cs),
(131.6,779.6,o),
(108,761.6,o),
(104.4,723.6,cs),
(34.4,58,ls),
(30,21.6,o),
(54.4,-7.6,o),
(99.2,-7.6,cs)
);
},
{
closed = 1;
nodes = (
(62.4,7.6,o),
(46,27.2,o),
(49.6,56,cs),
(119.6,722.4,ls),
(122,753.2,o),
(137.6,764.4,o),
(166,764.4,cs),
(415.6,764.4,o),
(576,710,o),
(559.6,556,cs),
(539.2,370.4,o),
(363.6,333.2,o),
(189.6,326.8,cs),
(184.8,326.4,o),
(182,324,o),
(181.6,319.6,cs),
(152.4,46.8,ls),
(150.8,23.2,o),
(135.6,7.6,o),
(99.2,7.6,cs)
);
},
{
closed = 1;
nodes = (
(324.4,427.6,o),
(444.8,462.4,o),
(455.6,560,cs),
(464.4,638.4,o),
(397.2,670.4,o),
(226,671.6,cs),
(220.8,671.6,o),
(218,669.2,o),
(217.6,664.4,cs),
(192.4,426,ls),
(192,421.2,o),
(194.8,418,o),
(200,418.4,cs)
);
},
{
closed = 1;
nodes = (
(231.6,656.4,l),
(393.6,654.8,o),
(448,627.6,o),
(440.4,562,cs),
(431.2,476.8,o),
(326.8,444,o),
(208.4,434,c)
);
},
{
closed = 1;
nodes = (
(50,548,l),
(70,595,l),
(61,596,l),
(75,725,l),
(62,726,l),
(48,598,l),
(40,599,l)
);
},
{
closed = 1;
nodes = (
(167,718,o),
(172,723,o),
(172,729,cs),
(172,735,o),
(167,740,o),
(161,740,cs),
(155,740,o),
(150,735,o),
(150,729,cs),
(150,723,o),
(155,718,o),
(161,718,cs)
);
}
);
vertWidth = 0;
width = 604;
}
);
unicode = 80;
},
{
glyphname = Q;
kernLeft = O_left;
kernRight = O_right;
layers = (
{
layerId = m01;
shapes = (
{
closed = 1;
nodes = (
(508,-16,o),
(508,8,o),
(492,30,cs),
(446,93,l),
(493,163,o),
(525,271,o),
(538,411,cs),
(560,621,o),
(474,786,o),
(330,786,cs),
(172,786,o),
(77,636,o),
(50,356,cs),
(27,146,o),
(115,-13,o),
(256,-13,cs),
(310,-13,o),
(357,3,o),
(396,36,c),
(430,-12,ls),
(447,-33,o),
(470,-42,o),
(488,-30,cs)
);
},
{
closed = 1;
nodes = (
(469,-25,o),
(456,-20,o),
(442,-2,cs),
(403,52,ls),
(400,56,o),
(396,56,o),
(392,53,cs),
(354,19,o),
(310,2,o),
(256,2,cs),
(124,2,o),
(43,151,o),
(64,354,cs),
(91,629,o),
(181,771,o),
(330,771,cs),
(463,771,o),
(544,618,o),
(524,413,cs),
(510,271,o),
(478,166,o),
(431,98,cs),
(429,94,o),
(429,91,o),
(431,88,cs),
(480,22,ls),
(493,4,o),
(493,-9,o),
(480,-18,cs)
);
},
{
closed = 1;
nodes = (
(300,42,o),
(337,57,o),
(367,87,cs),
(370,91,o),
(370,94,o),
(368,98,cs),
(311,175,ls),
(297,195,o),
(295,210,o),
(305,217,cs),
(318,229,o),
(331,224,o),
(348,200,cs),
(394,137,ls),
(397,133,o),
(402,133,o),
(404,138,cs),
(441,200,o),
(466,295,o),
(478,420,cs),
(496,592,o),
(433,731,o),
(330,731,cs),
(207,731,o),
(134,596,o),
(109,348,cs),
(91,174,o),
(154,42,o),
(257,42,cs)
);
},
{
closed = 1;
nodes = (
(165,57,o),
(107,178,o),
(123,346,cs),
(148,591,o),
(216,716,o),
(330,716,cs),
(422,716,o),
(480,589,o),
(464,422,cs),
(452,306,o),
(430,218,o),
(398,157,c),
(360,208,ls),
(340,237,o),
(315,247,o),
(295,229,cs),
(278,216,o),
(282,190,o),
(299,167,cs),
(352,94,l),
(325,69,o),
(294,57,o),
(257,57,cs)
);
},
{
closed = 1;
nodes = (
(306,833,l),
(348,805,l),
(349,814,l),
(371,809,o),
(388,802,o),
(406,794,cs),
(427,785,o),
(447,774,o),
(466,760,c),
(472,769,l),
(453,784,o),
(431,795,o),
(410,803,cs),
(391,812,o),
(374,817,o),
(355,823,c),
(357,832,l)
);
},
{
closed = 1;
nodes = (
(448,682,o),
(453,687,o),
(453,693,cs),
(453,699,o),
(448,704,o),
(442,704,cs),
(436,704,o),
(431,699,o),
(431,693,cs),
(431,687,o),
(436,682,o),
(442,682,cs)
);
}
);
vertWidth = 0;
width = 590;
},
{
layerId = m002;
shapes = (
{
closed = 1;
nodes = (
(553.6,-1.2,o),
(557.2,34.4,o),
(535.2,66.4,cs),
(500.4,113.2,l),
(549.2,184.8,o),
(581.6,284,o),
(594.4,401.2,cs),
(616.8,626.8,o),
(517.2,785.6,o),
(359.2,785.6,cs),
(187.2,785.6,o),
(70,620.4,o),
(43.6,371.6,cs),
(21.2,146,o),
(120.8,-13.6,o),
(279.2,-13.6,cs),
(327.6,-13.6,o),
(372.8,-0.4,o),
(412,24.8,c),
(428.8,1.6,ls),
(454.8,-31.6,o),
(495.6,-49.2,o),
(526.8,-24.8,cs)
);
},
{
closed = 1;
nodes = (
(494,-31.2,o),
(463.6,-18.8,o),
(441.2,10.4,cs),
(420,39.2,ls),
(417.2,43.2,o),
(413.6,43.6,o),
(409.6,40.8,cs),
(370.8,14.8,o),
(328,1.6,o),
(279.2,1.6,cs),
(130,1.6,o),
(36.8,150.8,o),
(58.4,370.4,cs),
(84.4,614.4,o),
(196,770.4,o),
(359.2,770.4,cs),
(508,770.4,o),
(601.2,622,o),
(579.6,402.8,cs),
(566.8,284.8,o),
(534.4,188,o),
(485.2,118,cs),
(482.8,114.4,o),
(482.8,111.2,o),
(485.6,107.6,cs),
(522.8,57.6,ls),
(541.2,30.8,o),
(538.8,5.6,o),
(517.2,-13.2,cs)
);
},
{
closed = 1;
nodes = (
(312.4,93.6,o),
(335.2,101.2,o),
(355.2,113.6,cs),
(359.2,116.4,o),
(360,120.4,o),
(357.2,124.4,cs),
(314.8,182.4,ls),
(292,212,o),
(296,236,o),
(315.6,253.2,cs),
(338,271.2,o),
(370.8,266,o),
(394,234.4,cs),
(417.2,202.8,ls),
(420.8,198,o),
(425.2,198.4,o),
(427.6,203.6,cs),
(452.8,254.4,o),
(469.2,322.4,o),
(476.4,401.2,cs),
(492.8,565.6,o),
(440.8,678.4,o),
(349.2,678.4,cs),
(248.8,678.4,o),
(177.6,553.2,o),
(161.6,371.6,cs),
(145.2,206.4,o),
(197.2,93.6,o),
(289.2,93.6,cs)
);
},
{
closed = 1;
nodes = (
(207.6,108.4,o),
(160.8,210.4,o),
(176.4,370.4,cs),
(192.4,547.6,o),
(258.4,663.6,o),
(349.2,663.6,cs),
(430.4,663.6,o),
(477.2,561.6,o),
(461.6,402.8,cs),
(455.2,332,o),
(441.2,271.6,o),
(420.4,223.6,c),
(406,243.6,ls),
(378.8,280.8,o),
(334.8,287.6,o),
(306.4,264.8,cs),
(281.6,243.2,o),
(275.6,208.8,o),
(303.2,173.6,cs),
(340,122.4,l),
(324,113.2,o),
(307.2,108.4,o),
(289.2,108.4,cs)
);
},
{
closed = 1;
nodes = (
(322,827,l),
(367,803,l),
(368,812,l),
(389,810,o),
(409,804,o),
(429,799,cs),
(450,793,o),
(468,785,o),
(487,769,c),
(492,781,l),
(475,796,o),
(454,805,o),
(431,811,cs),
(413,818,o),
(392,823,o),
(371,825,c),
(372,834,l)
);
},
{
closed = 1;
nodes = (
(471,684,o),
(476,689,o),
(476,695,cs),
(476,701,o),
(471,706,o),
(465,706,cs),
(459,706,o),
(454,701,o),
(454,695,cs),
(454,689,o),
(459,684,o),
(465,684,cs)
);
}
);
vertWidth = 0;
width = 639;
}
);
unicode = 81;
},
{
glyphname = R;
kernLeft = H_left;
layers = (
{
layerId = m01;
shapes = (
{
closed = 1;
nodes = (
(108,-7,o),
(110,18,o),
(113,36,cs),
(146,342,l),
(399,18,ls),
(412,1,o),
(430,-7,o),
(442,-7,cs),
(457,-7,o),
(473,3,o),
(475,16,cs),
(478,27,o),
(475,45,o),
(460,64,cs),
(225,361,l),
(403,385,o),
(529,468,o),
(538,576,cs),
(551,726,o),
(411,780,o),
(154,780,cs),
(123,780,o),
(115,762,o),
(113,741,cs),
(39,40,ls),
(36,17,o),
(47,-7,o),
(75,-7,cs)
);
},
{
closed = 1;
nodes = (
(58,8,o),
(52,20,o),
(53,38,cs),
(127,739,ls),
(129,757,o),
(133,765,o),
(154,765,cs),
(408,765,o),
(535,715,o),
(524,578,cs),
(515,474,o),
(389,394,o),
(207,374,cs),
(201,374,o),
(199,370,o),
(203,365,cs),
(448,54,ls),
(461,39,o),
(462,27,o),
(461,20,cs),
(459,13,o),
(452,8,o),
(442,8,cs),
(434,8,o),
(422,13,o),
(411,28,cs),
(143,370,ls),
(139,375,o),
(134,374,o),
(133,367,cs),
(99,38,l),
(96,20,o),
(94,8,o),
(75,8,cs)
);
},
{
closed = 1;
nodes = (
(329,413,o),
(469,490,o),
(479,582,cs),
(490,680,o),
(385,722,o),
(178,725,cs),
(173,726,o),
(170,723,o),
(169,718,cs),
(137,414,ls),
(137,409,o),
(140,406,o),
(145,407,cs)
);
},
{
closed = 1;
nodes = (
(184,710,l),
(383,707,o),
(474,668,o),
(465,584,cs),
(455,502,o),
(328,431,o),
(153,422,c)
);
},
{
closed = 1;
nodes = (
(63,565,l),
(81,613,l),
(72,614,l),
(83,742,l),
(74,743,l),
(62,615,l),
(53,616,l)
);
},
{
closed = 1;
nodes = (
(159,729,o),
(164,734,o),
(164,740,cs),
(164,746,o),
(159,751,o),
(153,751,cs),
(147,751,o),
(142,746,o),
(142,740,cs),
(142,734,o),
(147,729,o),
(153,729,cs)
);
}
);
vertWidth = 0;
width = 572;
},
{
layerId = m002;
shapes = (
{
closed = 1;
nodes = (
(138,-7.6,o),
(163.2,16.8,o),
(167.6,62.4,cs),
(192.4,292.8,l),
(406,22.4,ls),
(427.2,-5.2,o),
(452.8,-7.6,o),
(468,-7.6,cs),
(493.2,-7.6,o),
(518.4,5.2,o),
(529.6,27.6,cs),
(537.6,44.8,o),
(537.6,71.2,o),
(524,88.8,cs),
(325.6,333.2,l),
(478.4,365.2,o),
(587.6,440.4,o),
(596.4,566.4,cs),
(610,745.6,o),
(448.4,779.6,o),
(175.2,779.6,cs),
(134.8,779.6,o),
(108,762,o),
(104.4,723.6,cs),
(35.6,71.6,ls),
(31.2,30,o),
(47.2,-7.6,o),
(93.2,-7.6,cs)
);
},
{
closed = 1;
nodes = (
(58,7.6,o),
(46.8,33.2,o),
(50.4,70.4,cs),
(119.6,722.4,ls),
(122,752.8,o),
(140.4,764.4,o),
(175.2,764.4,cs),
(446.4,764.4,o),
(594,733.2,o),
(581.6,567.6,cs),
(572.4,446,o),
(465.2,374.4,o),
(308.4,345.2,cs),
(302.8,344,o),
(301.2,340,o),
(304.8,335.2,cs),
(512,79.2,ls),
(522.4,66.4,o),
(522.4,47.6,o),
(516.4,34.4,cs),
(507.6,16.4,o),
(489.2,7.6,o),
(468,7.6,cs),
(453.2,7.6,o),
(434.8,9.2,o),
(418,31.6,cs),
(189.6,320.8,ls),
(185.6,326,o),
(180.8,324.8,o),
(180,318,cs),
(152.4,63.6,ls),
(148.8,24.4,o),
(130.8,7.6,o),
(93.2,7.6,cs)
);
},
{
closed = 1;
nodes = (
(367.6,424.8,o),
(468.8,493.6,o),
(477.6,568,cs),
(488.4,661.6,o),
(417.6,675.6,o),
(226,676.4,cs),
(220.8,676.4,o),
(218,674,o),
(217.6,669.2,cs),
(190.4,419.2,ls),
(190,414,o),
(192.8,410.8,o),
(198,411.6,cs)
);
},
{
closed = 1;
nodes = (
(231.6,661.6,l),
(416.4,660.4,o),
(471.6,648,o),
(462.4,570,cs),
(455.2,504.4,o),
(364.8,441.6,o),
(206.4,427.2,c)
);
},
{
closed = 1;
nodes = (
(50,548,l),
(70,595,l),
(61,596,l),
(75,725,l),
(62,726,l),
(48,598,l),
(40,599,l)
);
},
{
closed = 1;
nodes = (
(167,718,o),
(172,723,o),
(172,729,cs),
(172,735,o),
(167,740,o),
(161,740,cs),
(155,740,o),
(150,735,o),
(150,729,cs),
(150,723,o),
(155,718,o),
(161,718,cs)
);
}
);
vertWidth = 0;
width = 625;
}
);
unicode = 82;
},
{
glyphname = S;
layers = (
{
layerId = m01;
shapes = (
{
closed = 1;
nodes = (
(332,-13,o),
(437,53,o),
(451,191,cs),
(464,310,o),
(388,390,o),
(292,445,cs),
(195,500,o),
(138,544,o),
(144,607,cs),
(152,672,o),
(212,716,o),
(323,716,cs),
(380,716,o),
(414,688,o),
(429,647,cs),
(436,628,o),
(457,619,o),
(476,625,cs),
(497,631,o),
(501,656,o),
(493,679,cs),
(473,738,o),
(416,786,o),
(320,786,cs),
(164,786,o),
(83,705,o),
(73,614,cs),
(63,515,o),
(144,443,o),
(239,389,cs),
(343,330,o),
(385,278,o),
(379,202,cs),
(369,102,o),
(291,57,o),
(210,57,cs),
(137,57,o),
(98,85,o),
(89,120,cs),
(83,145,o),
(60,153,o),
(40,147,cs),
(18,141,o),
(14,116,o),
(20,95,cs),
(36,30,o),
(106,-13,o),
(191,-13,cs)
);
},
{
closed = 1;
nodes = (
(111,2,o),
(49,41,o),
(34,99,cs),
(30,116,o),
(32,129,o),
(44,133,cs),
(59,137,o),
(71,132,o),
(75,116,cs),
(85,76,o),
(132,42,o),
(210,42,cs),
(296,42,o),
(383,92,o),
(393,200,cs),
(401,283,o),
(353,342,o),
(247,403,cs),
(153,455,o),
(79,521,o),
(87,612,cs),
(97,698,o),
(171,771,o),
(320,771,cs),
(410,771,o),
(461,729,o),
(479,675,cs),
(485,655,o),
(483,643,o),
(472,639,cs),
(458,635,o),
(448,640,o),
(443,653,cs),
(426,698,o),
(386,731,o),
(323,731,cs),
(207,731,o),
(138,681,o),
(130,609,cs),
(122,537,o),
(186,488,o),
(284,431,cs),
(378,378,o),
(448,304,o),
(437,193,cs),
(423,62,o),
(327,2,o),
(191,2,cs)
);
},
{
closed = 1;
nodes = (
(361,829,l),
(396,792,l),
(399,801,l),
(419,791,o),
(434,781,o),
(451,770,cs),
(470,756,o),
(486,741,o),
(502,724,c),
(510,731,l),
(494,750,o),
(474,765,o),
(456,777,cs),
(440,791,o),
(424,799,o),
(407,809,c),
(410,816,l)
);
},
{
closed = 1;
nodes = (
(468,651,o),
(473,656,o),
(473,662,cs),
(473,668,o),
(468,673,o),
(462,673,cs),
(456,673,o),
(451,668,o),
(451,662,cs),
(451,656,o),
(456,651,o),
(462,651,cs)
);
}
);
vertWidth = 0;
width = 529;
},
{
layerId = m002;
shapes = (
{
closed = 1;
nodes = (
(420.4,-13.6,o),
(525.2,67.2,o),
(538.4,199.2,cs),
(554,342.4,o),
(460.8,422,o),
(378.8,467.6,cs),
(306.8,507.6,o),
(227.2,558.8,o),
(232.4,603.2,cs),
(236.8,644,o),
(280.8,664.4,o),
(352,664.4,cs),
(409.6,664.4,o),
(448.4,638.8,o),
(465.6,608.4,cs),
(484.4,572.8,o),
(523.2,562.8,o),
(558.4,580.4,cs),
(589.2,596.4,o),
(597.2,626.8,o),
(584,658,cs),
(547.6,738.4,o),
(480.8,785.6,o),
(369.2,785.6,cs),
(202.8,785.6,o),
(107.2,723.2,o),
(94.4,607.6,cs),
(82,488.8,o),
(217.2,404.8,o),
(294.4,362.4,cs),
(378,318,o),
(416.4,267.6,o),
(410.4,204.8,cs),
(404.8,149.2,o),
(352,115.6,o),
(266,115.6,cs),
(195.6,115.6,o),
(164,157.6,o),
(157.2,181.2,cs),
(144.8,223.6,o),
(104,237.2,o),
(71.6,227.2,cs),
(43.2,217.2,o),
(9.2,185.2,o),
(24.8,132,cs),
(43.6,67.2,o),
(130.4,-13.6,o),
(267.2,-13.6,cs)
);
},
{
closed = 1;
nodes = (
(136.8,1.6,o),
(56.8,76,o),
(39.2,136,cs),
(26.4,179.6,o),
(52,204.4,o),
(76.4,212.8,cs),
(102.8,221.2,o),
(132.8,211.2,o),
(142.8,176.8,cs),
(150.4,150,o),
(187.6,100.4,o),
(266,100.4,cs),
(356.8,100.4,o),
(419.2,140,o),
(425.6,203.2,cs),
(431.6,272.8,o),
(388.4,329.6,o),
(301.6,375.6,cs),
(224.8,417.6,o),
(98,496.8,o),
(109.6,606.4,cs),
(121.2,713.6,o),
(208.4,770.4,o),
(369.2,770.4,cs),
(475.6,770.4,o),
(536,728,o),
(570,652,cs),
(581.2,626.4,o),
(575.6,606,o),
(551.6,593.6,cs),
(522,578.8,o),
(494,586.4,o),
(478.4,615.6,cs),
(459.6,649.6,o),
(414.8,679.6,o),
(352,679.6,cs),
(276.4,679.6,o),
(223.2,654.8,o),
(217.6,604.8,cs),
(210.8,550.8,o),
(298.8,494.8,o),
(371.2,454.4,cs),
(451.6,410,o),
(538,336,o),
(523.6,200.8,cs),
(510.8,76,o),
(414.4,1.6,o),
(267.2,1.6,cs)
);
},
{
closed = 1;
nodes = (
(515,805,l),
(536,757,l),
(542,764,l),
(558,750,o),
(570,734,o),
(583,718,cs),
(597,699,o),
(606,682,o),
(611,659,c),
(623,665,l),
(618,687,o),
(607,708,o),
(593,725,cs),
(581,742,o),
(568,758,o),
(552,773,c),
(560,779,l)
);
},
{
closed = 1;
nodes = (
(553,621,o),
(559,625,o),
(560,631,cs),
(561,637,o),
(557,643,o),
(551,644,cs),
(545,644,o),
(539,640,o),
(538,634,cs),
(537,628,o),
(541,623,o),
(547,622,cs)
);
}
);
vertWidth = 0;
width = 612;
}
);
unicode = 83;
},
{
glyphname = T;
layers = (
{
layerId = m01;
shapes = (
{
closed = 1;
nodes = (
(292,-7,o),
(300,19,o),
(302,39,cs),
(374,711,l),
(564,711,ls),
(594,710,o),
(600,729,o),
(600,745,cs),
(600,762,o),
(589,780,o),
(560,780,cs),
(116,780,ls),
(86,780,o),
(79,761,o),
(79,745,cs),
(79,727,o),
(91,710,o),
(120,711,cs),
(300,711,l),
(229,45,ls),
(226,18,o),
(234,-7,o),
(262,-7,cs)
);
},
{
closed = 1;
nodes = (
(246,8,o),
(241,21,o),
(243,43,cs),
(316,718,ls),
(316,723,o),
(314,726,o),
(308,726,cs),
(120,726,ls),
(100,726,o),
(94,734,o),
(94,745,cs),
(94,757,o),
(97,764,o),
(116,765,cs),
(560,765,ls),
(580,764,o),
(585,757,o),
(585,745,cs),
(585,732,o),
(582,726,o),
(564,726,cs),
(368,726,ls),
(363,726,o),
(360,723,o),
(360,719,cs),
(288,41,ls),
(286,22,o),
(281,8,o),
(262,8,cs)
);
},
{
closed = 1;
nodes = (
(344,729,o),
(349,734,o),
(349,740,cs),
(349,746,o),
(344,751,o),
(338,751,cs),
(332,751,o),
(327,746,o),
(327,740,cs),
(327,734,o),
(332,729,o),
(338,729,cs)
);
},
{
closed = 1;
nodes = (
(247,513,l),
(265,561,l),
(256,562,l),
(267,690,l),
(258,691,l),
(246,563,l),
(237,564,l)
);
}
);
vertWidth = 0;
width = 606;
},
{
layerId = m002;
shapes = (
{
closed = 1;
nodes = (
(305.6,-9.6,o),
(327,23,o),
(329.6,50.4,cs),
(391.6,657.6,l),
(556,657.6,ls),
(599,658,o),
(619.6,685.6,o),
(619.6,718,cs),
(619.6,752.4,o),
(587,780,o),
(548,779.6,cs),
(110,779.6,ls),
(70,780,o),
(49.6,751.6,o),
(48.4,718.4,cs),
(47.2,684.8,o),
(77,658,o),
(119.2,657.6,cs),
(256.8,657.6,l),
(195.6,58.8,ls),
(192,21,o),
(220.8,-9.6,o),
(261.2,-9.6,cs)
);
},
{
closed = 1;
nodes = (
(228.4,5.6,o),
(207,28,o),
(210.4,57.2,cs),
(272.4,664.4,ls),
(273,670,o),
(270,672,o),
(265.2,672.4,cs),
(119.2,672.4,ls),
(84,672,o),
(62.8,692,o),
(63.6,717.6,cs),
(64.4,745.2,o),
(79,764,o),
(110,764.4,cs),
(548,764.4,ls),
(580,764,o),
(604.4,744.4,o),
(604.4,718,cs),
(604.4,691.6,o),
(590,672,o),
(556,672.4,cs),
(385.6,672.4,ls),
(381,672,o),
(378,670,o),
(377.6,665.2,cs),
(314.4,51.6,ls),
(312,29,o),
(297.2,5.6,o),
(261.2,5.6,cs)
);
},
{
closed = 1;
nodes = (
(335,705,o),
(340,710,o),
(340,716,cs),
(340,722,o),
(335,727,o),
(329,727,cs),
(323,727,o),
(318,722,o),
(318,716,cs),
(318,710,o),
(323,705,o),
(329,705,cs)
);
},
{
closed = 1;
nodes = (
(203,460,l),
(223,507,l),
(214,508,l),
(228,637,l),
(215,638,l),
(201,510,l),
(193,511,l)
);
}
);
vertWidth = 0;
width = 596;
}
);
unicode = 84;
},
{
glyphname = U;
kernLeft = H_left;
kernRight = H_right;
layers = (
{
layerId = m01;
shapes = (
{
closed = 1;
nodes = (
(413,-12,o),
(528,112,o),
(545,277,cs),
(593,740,l),
(597,762,o),
(582,780,o),
(557,780,cs),
(530,780,o),
(521,761,o),
(520,745,cs),
(470,279,ls),
(456,150,o),
(374,58,o),
(277,58,cs),
(189,58,o),
(135,145,o),
(147,266,cs),
(196,734,ls),
(199,756,o),
(185,780,o),
(162,780,cs),
(138,780,o),
(124,760,o),
(122,738,cs),
(73,272,ls),
(55,110,o),
(143,-12,o),
(276,-12,cs)
);
},
{
closed = 1;
nodes = (
(152,3,o),
(71,115,o),
(87,270,cs),
(136,736,ls),
(138,753,o),
(147,765,o),
(162,765,cs),
(176,765,o),
(183,752,o),
(182,736,cs),
(133,268,ls),
(119,140,o),
(180,43,o),
(277,43,cs),
(381,43,o),
(470,143,o),
(484,277,cs),
(534,743,ls),
(536,756,o),
(540,765,o),
(557,765,cs),
(575,765,o),
(581,757,o),
(579,742,c),
(531,279,ls),
(514,119,o),
(406,3,o),
(276,3,cs)
);
},
{
closed = 1;
nodes = (
(72,565,l),
(90,613,l),
(81,614,l),
(92,742,l),
(83,743,l),
(71,615,l),
(62,616,l)
);
},
{
closed = 1;
nodes = (
(168,729,o),
(173,734,o),
(173,740,cs),
(173,746,o),
(168,751,o),
(162,751,cs),
(156,751,o),
(151,746,o),
(151,740,cs),
(151,734,o),
(156,729,o),
(162,729,cs)
);
}
);
vertWidth = 0;
width = 635;
},
{
layerId = m002;
shapes = (
{
closed = 1;
nodes = (
(442,-12.4,o),
(570,121,o),
(589.6,296,cs),
(635.6,717.2,ls),
(639,751,o),
(620,779.6,o),
(570,779.6,cs),
(527.6,779.6,o),
(506,751,o),
(502.4,720.8,cs),
(455.6,298,ls),
(443,188,o),
(374.8,109.6,o),
(291.2,109.6,cs),
(223.2,109.6,o),
(181,183,o),
(192.4,285.2,cs),
(239.6,718,ls),
(243,750,o),
(224,779.6,o),
(176,779.6,cs),
(129.6,779.6,o),
(108,751,o),
(104.4,720.8,cs),
(59.6,290.8,ls),
(42,118,o),
(139.2,-12.4,o),
(290,-12.4,cs)
);
},
{
closed = 1;
nodes = (
(147.6,2.4,o),
(57,123,o),
(74.4,289.2,cs),
(119.6,719.2,ls),
(122,744,o),
(137.6,764.4,o),
(176,764.4,cs),
(214.8,764.4,o),
(227,745,o),
(224.4,720,cs),
(177.6,286.8,ls),
(166,178,o),
(213.6,94.4,o),
(291.2,94.4,cs),
(382,94.4,o),
(458,181,o),
(470.4,296,cs),
(517.6,719.2,ls),
(520,744,o),
(535.6,764.4,o),
(570,764.4,cs),
(611.2,764.4,o),
(623,746,o),
(620.4,718.8,cs),
(574.4,298,ls),
(556,128,o),
(434.8,2.4,o),
(290,2.4,cs)
);
},
{
closed = 1;
nodes = (
(56,550,l),
(74,598,l),
(65,599,l),
(76,727,l),
(67,728,l),
(55,600,l),
(46,601,l)
);
},
{
closed = 1;
nodes = (
(152,714,o),
(157,719,o),
(157,725,cs),
(157,731,o),
(152,736,o),
(146,736,cs),
(140,736,o),
(135,731,o),
(135,725,cs),
(135,719,o),
(140,714,o),
(146,714,cs)
);
}
);
vertWidth = 0;
width = 672;
}
);
unicode = 85;
},
{
glyphname = V;
kernLeft = V_left;
kernRight = V_right;
layers = (
{
layerId = m01;
shapes = (
{
closed = 1;
nodes = (
(272,-7,o),
(277,10,o),
(284,27,cs),
(565,731,ls),
(577,761,o),
(561,780,o),
(538,780,cs),
(511,780,o),
(500,768,o),
(491,746,cs),
(278,206,l),
(254,137,l),
(247,202,l),
(167,745,ls),
(165,758,o),
(159,780,o),
(127,780,cs),
(101,780,o),
(90,762,o),
(94,740,cs),
(202,32,ls),
(204,15,o),
(217,-7,o),
(243,-7,cs)
);
},
{
closed = 1;
nodes = (
(226,8,o),
(219,20,o),
(216,34,cs),
(108,742,ls),
(106,758,o),
(110,765,o),
(127,765,cs),
(148,765,o),
(151,754,o),
(153,743,cs),
(233,200,l),
(242,109,ls),
(242,104,o),
(245,102,o),
(250,101,cs),
(255,101,o),
(258,102,o),
(259,107,cs),
(292,200,l),
(505,740,ls),
(512,759,o),
(518,765,o),
(538,765,cs),
(553,765,o),
(559,757,o),
(551,737,cs),
(270,33,ls),
(263,15,o),
(260,8,o),
(243,8,cs)
);
},
{
closed = 1;
nodes = (
(90,564,l),
(95,615,l),
(86,614,l),
(64,740,l),
(55,739,l),
(76,612,l),
(67,611,l)
);
},
{
closed = 1;
nodes = (
(135,732,o),
(140,737,o),
(140,743,cs),
(140,749,o),
(135,754,o),
(129,754,cs),
(123,754,o),
(118,749,o),
(118,743,cs),
(118,737,o),
(123,732,o),
(129,732,cs)
);
}
);
vertWidth = 0;
width = 550;
},
{
layerId = m002;
shapes = (
{
closed = 1;
nodes = (
(256.8,-7.6,o),
(279,15,o),
(288.8,40,cs),
(560.8,699.2,ls),
(580,746,o),
(548.8,779.6,o),
(506,779.6,cs),
(469.2,779.6,o),
(442,764,o),
(431.2,736.8,cs),
(284,363.6,l),
(245.2,253.6,l),
(230.4,362,l),
(180.4,726,ls),
(176,757,o),
(147.2,779.6,o),
(106,779.6,cs),
(67.2,779.6,o),
(41,757,o),
(47.6,716.8,cs),
(152.4,53.6,ls),
(157,22,o),
(178.4,-7.6,o),
(219.2,-7.6,cs)
);
},
{
closed = 1;
nodes = (
(186.8,7.6,o),
(172,28,o),
(167.6,56.4,cs),
(62.4,719.2,ls),
(58,750,o),
(73.6,764.4,o),
(106,764.4,cs),
(141.6,764.4,o),
(162,748,o),
(165.6,724,cs),
(215.6,360,l),
(233.6,227.6,ls),
(234,223,o),
(237,221,o),
(241.2,220.4,cs),
(247,220,o),
(250,222,o),
(251.6,226,cs),
(298,358.4,l),
(444.8,731.2,ls),
(453,753,o),
(474,764.4,o),
(506,764.4,cs),
(540.8,764.4,o),
(562,741,o),
(547.2,704.8,cs),
(275.2,46,ls),
(266,24,o),
(249.6,7.6,o),
(219.2,7.6,cs)
);
},
{
closed = 1;
nodes = (
(43,557,l),
(50,609,l),
(41,607,l),
(21,735,l),
(8,733,l),
(28,605,l),
(20,604,l)
);
},
{
closed = 1;
nodes = (
(96,724,o),
(101,729,o),
(101,735,cs),
(101,741,o),
(96,746,o),
(90,746,cs),
(84,746,o),
(79,741,o),
(79,735,cs),
(79,729,o),
(84,724,o),
(90,724,cs)
);
}
);
vertWidth = 0;
width = 542;
}
);
unicode = 86;
},
{
glyphname = W;
kernLeft = V_left;
kernRight = V_right;
layers = (
{
layerId = m01;
shapes = (
{
closed = 1;
nodes = (
(271,-7,o),
(279,15,o),
(284,28,cs),
(502,586,l),
(517,635,l),
(523,583,l),
(606,29,ls),
(608,12,o),
(620,-7,o),
(645,-7,cs),
(674,-7,o),
(679,10,o),
(686,27,cs),
(969,731,ls),
(982,762,o),
(961,780,o),
(940,780,cs),
(913,780,o),
(905,769,o),
(895,746,cs),
(689,226,l),
(658,132,l),
(648,229,l),
(571,745,ls),
(569,759,o),
(563,780,o),
(529,780,cs),
(506,780,o),
(493,761,o),
(487,747,cs),
(285,228,l),
(254,137,l),
(244,226,l),
(167,745,ls),
(165,758,o),
(159,780,o),
(127,780,cs),
(101,780,o),
(90,762,o),
(94,740,cs),
(202,32,ls),
(204,10,o),
(222,-7,o),
(242,-7,cs)
);
},
{
closed = 1;
nodes = (
(229,8,o),
(218,18,o),
(216,34,cs),
(108,742,ls),
(106,757,o),
(110,765,o),
(127,765,cs),
(147,765,o),
(151,754,o),
(153,743,cs),
(230,224,l),
(242,109,ls),
(242,105,o),
(245,102,o),
(249,101,c),
(250,101,l),
(255,101,o),
(258,103,o),
(259,107,cs),
(299,222,l),
(501,741,ls),
(506,753,o),
(514,765,o),
(529,765,cs),
(552,765,o),
(555,755,o),
(557,743,cs),
(634,227,l),
(646,102,ls),
(646,97,o),
(649,95,o),
(653,94,cs),
(654,94,ls),
(659,94,o),
(662,96,o),
(663,100,cs),
(703,220,l),
(909,740,ls),
(917,761,o),
(920,765,o),
(940,765,cs),
(953,765,o),
(964,757,o),
(955,737,cs),
(672,33,ls),
(665,16,o),
(662,8,o),
(645,8,cs),
(629,8,o),
(622,18,o),
(620,31,cs),
(537,585,l),
(529,667,ls),
(529,671,o),
(526,674,o),
(522,674,cs),
(521,674,ls),
(516,675,o),
(513,673,o),
(512,669,cs),
(488,590,l),
(270,34,ls),
(265,21,o),
(261,8,o),
(242,8,cs)
);
},
{
closed = 1;
nodes = (
(90,564,l),
(95,615,l),
(86,614,l),
(64,740,l),
(55,739,l),
(76,612,l),
(67,611,l)
);
},
{
closed = 1;
nodes = (
(135,732,o),
(140,737,o),
(140,743,cs),
(140,749,o),
(135,754,o),
(129,754,cs),
(123,754,o),
(118,749,o),
(118,743,cs),
(118,737,o),
(123,732,o),
(129,732,cs)
);
}
);
vertWidth = 0;
width = 954;
},
{
layerId = m002;
shapes = (
{
closed = 1;
nodes = (
(251.2,-7.6,o),
(274,12,o),
(290,48,cs),
(468,486.4,l),
(484.4,537.6,l),
(489.6,488,l),
(553.6,51.2,ls),
(558,13.2,o),
(585.6,-7.6,o),
(621.2,-7.6,cs),
(654.4,-7.6,o),
(677.2,12,o),
(692,48,cs),
(962,699.2,ls),
(976,733.2,o),
(954.4,779.6,o),
(904,779.6,cs),
(862,779.6,o),
(839.6,752.4,o),
(832,734.8,cs),
(672.8,330.4,l),
(642,240.4,l),
(632.4,328.8,l),
(574.4,726,ls),
(568.8,758.4,o),
(548,779.6,o),
(504,779.6,cs),
(460.8,779.6,o),
(442.4,757.2,o),
(432.8,729.6,cs),
(280,331.6,l),
(245.6,235.2,l),
(233.6,334,l),
(179.6,726,ls),
(176,756.8,o),
(147.6,779.6,o),
(106,779.6,cs),
(67.2,779.6,o),
(40,757.2,o),
(45.6,716.8,cs),
(150.8,50.8,ls),
(157.2,13.2,o),
(183.6,-7.6,o),
(219.2,-7.6,cs)
);
},
{
closed = 1;
nodes = (
(189.6,7.6,o),
(170.8,22,o),
(165.2,53.2,cs),
(60.4,719.2,ls),
(56,750,o),
(73.6,764.4,o),
(106,764.4,cs),
(141.2,764.4,o),
(162,748,o),
(164.4,724,cs),
(218.4,332,l),
(233.6,208.8,ls),
(234,204,o),
(236.4,201.6,o),
(241.2,201.2,cs),
(242.4,201.2,ls),
(247.2,200.8,o),
(250,202.4,o),
(251.6,206.8,cs),
(294,326.4,l),
(447.2,724.4,ls),
(455.6,749.2,o),
(468.4,764.4,o),
(504,764.4,cs),
(540.8,764.4,o),
(555.2,750.4,o),
(559.6,724,cs),
(617.6,327.2,l),
(629.6,212,ls),
(630,207.6,o),
(632.8,204.8,o),
(637.2,204.4,cs),
(638.4,204.4,ls),
(642.8,204,o),
(646,205.6,o),
(647.2,210,cs),
(687.2,325.6,l),
(846,729.2,ls),
(852.4,744,o),
(869.6,764.4,o),
(904,764.4,cs),
(944,764.4,o),
(958.8,730.8,o),
(948,704.8,cs),
(678,54,ls),
(664.8,21.6,o),
(648.4,7.6,o),
(621.2,7.6,cs),
(591.6,7.6,o),
(572,22,o),
(568.4,52.8,cs),
(504.4,490,l),
(496.4,568,ls),
(496,572.4,o),
(493.2,575.2,o),
(488.8,575.6,cs),
(487.6,575.6,ls),
(483.2,576,o),
(480,574.4,o),
(478.8,570,cs),
(454,491.6,l),
(276,54,ls),
(262,21.6,o),
(245.2,7.6,o),
(219.2,7.6,cs)
);
},
{
closed = 1;
nodes = (
(43,557,l),
(50,609,l),
(41,607,l),
(21,735,l),
(8,733,l),
(28,605,l),
(20,604,l)
);
},
{
closed = 1;
nodes = (
(96,724,o),
(101,729,o),
(101,735,cs),
(101,741,o),
(96,746,o),
(90,746,cs),
(84,746,o),
(79,741,o),
(79,735,cs),
(79,729,o),
(84,724,o),
(90,724,cs)
);
}
);
vertWidth = 0;
width = 943;
}
);
unicode = 87;
},
{
glyphname = X;
layers = (
{
layerId = m01;
shapes = (
{
closed = 1;
nodes = (
(474,5,o),
(485,23,o),
(475,45,cs),
(325,381,l),
(545,719,ls),
(560,741,o),
(554,762,o),
(542,772,cs),
(526,784,o),
(497,783,o),
(483,761,cs),
(288,462,l),
(158,753,ls),
(146,779,o),
(116,785,o),
(100,778,cs),
(82,771,o),
(77,751,o),
(88,726,cs),
(236,394,l),
(10,49,ls),
(-2,32,o),
(3,11,o),
(17,1,c),
(33,-12,o),
(60,-10,o),
(73,11,cs),
(273,313,l),
(404,21,ls),
(416,-6,o),
(442,-12,o),
(461,-3,cs)
);
},
{
closed = 1;
nodes = (
(441,4,o),
(426,8,o),
(418,27,cs),
(280,335,ls),
(277,340,o),
(273,341,o),
(269,335,cs),
(61,19,ls),
(52,5,o),
(37,4,o),
(27,13,cs),
(17,19,o),
(15,29,o),
(22,41,cs),
(250,388,ls),
(253,391,o),
(253,394,o),
(251,398,cs),
(102,732,ls),
(93,752,o),
(95,760,o),
(106,764,cs),
(117,769,o),
(136,765,o),
(144,747,cs),
(281,440,ls),
(284,435,o),
(288,434,o),
(291,439,cs),
(495,753,ls),
(505,768,o),
(522,768,o),
(532,760,cs),
(540,754,o),
(543,742,o),
(533,727,cs),
(311,388,ls),
(309,384,o),
(308,381,o),
(310,377,cs),
(461,39,ls),
(468,24,o),
(463,16,o),
(453,11,cs)
);
},
{
closed = 1;
nodes = (
(122,570,l),
(116,621,l),
(107,618,l),
(58,736,l),
(49,733,l),
(98,614,l),
(89,611,l)
);
},
{
closed = 1;
nodes = (
(125,732,o),
(130,737,o),
(130,743,cs),
(130,749,o),
(125,754,o),
(119,754,cs),
(113,754,o),
(108,749,o),
(108,743,cs),
(108,737,o),
(113,732,o),
(119,732,cs)
);
}
);
vertWidth = 0;
width = 560;
},
{
layerId = m002;
shapes = (
{
closed = 1;
nodes = (
(506.4,15.2,o),
(519,43,o),
(504,75.2,cs),
(370.4,373.2,l),
(580.4,682.8,ls),
(602,715,o),
(590.8,744,o),
(566.8,764.8,cs),
(540.8,786,o),
(488,788,o),
(466.8,754,cs),
(310,507.6,l),
(204.8,743.2,ls),
(188,781,o),
(140.8,784.8,o),
(112.4,776,cs),
(77.6,762.8,o),
(63,734,o),
(81.2,692.8,cs),
(216.4,390.8,l),
(8.8,86,ls),
(-10,58,o),
(-3.6,30.4,o),
(21.2,9.2,cs),
(47.6,-12,o),
(101,-18,o),
(122.4,15.2,cs),
(276,256.4,l),
(377.2,30,ls),
(395,-9,o),
(449.6,-15.2,o),
(479.6,0.4,cs)
);
},
{
closed = 1;
nodes = (
(447.6,0.8,o),
(404,6,o),
(390.8,36,cs),
(282.4,277.6,ls),
(280,283,o),
(275,284,o),
(272,278.4,cs),
(109.6,22.8,ls),
(94,-1,o),
(53.2,3.2,o),
(30.8,20.8,cs),
(10.8,38,o),
(6,56,o),
(21.2,78,cs),
(230.4,384.4,ls),
(233,388,o),
(233,391,o),
(231.2,394.4,cs),
(94.8,699.2,ls),
(80,733,o),
(89.2,751.2,o),
(117.6,762,cs),
(141.6,769.2,o),
(178,766,o),
(191.2,736.8,cs),
(303.6,486.4,ls),
(306,481,o),
(311,480,o),
(314,485.6,cs),
(479.2,746,ls),
(496,772,o),
(536.4,770.4,o),
(557.2,753.2,cs),
(577.6,735.6,o),
(585,716,o),
(567.6,691.2,cs),
(356.8,379.6,ls),
(355,376,o),
(354,373,o),
(356,369.6,cs),
(490,68.8,ls),
(502,43,o),
(494,25.2,o),
(472.4,13.6,cs)
);
},
{
closed = 1;
nodes = (
(103,537,l),
(99,590,l),
(91,585,l),
(43,706,l),
(30,700,l),
(79,580,l),
(71,577,l)
);
},
{
closed = 1;
nodes = (
(120,719,o),
(125,724,o),
(125,730,cs),
(125,736,o),
(120,741,o),
(114,741,cs),
(108,741,o),
(103,736,o),
(103,730,cs),
(103,724,o),
(108,719,o),
(114,719,cs)
);
}
);
vertWidth = 0;
width = 605;
}
);
unicode = 88;
},
{
glyphname = Y;
layers = (
{
layerId = m01;
shapes = (
{
closed = 1;
nodes = (
(142,-12,o),
(169,-12,o),
(183,10,cs),
(599,719,ls),
(612,741,o),
(606,763,o),
(585,776,cs),
(567,784,o),
(548,780,o),
(536,758,cs),
(326,399,l),
(163,751,ls),
(155,767,o),
(140,787,o),
(113,777,cs),
(86,768,o),
(83,746,o),
(93,725,cs),
(279,319,l),
(121,49,ls),
(111,32,o),
(111,11,o),
(126,1,c)
);
},
{
closed = 1;
nodes = (
(126,19,o),
(126,29,o),
(133,41,cs),
(292,313,ls),
(295,317,o),
(295,320,o),
(293,324,cs),
(107,731,ls),
(99,748,o),
(101,757,o),
(117,763,cs),
(135,769,o),
(143,759,o),
(149,745,cs),
(320,377,ls),
(322,371,o),
(327,371,o),
(330,376,cs),
(548,750,ls),
(558,766,o),
(566,768,o),
(579,762,cs),
(593,754,o),
(596,742,o),
(587,727,cs),
(169,18,ls),
(161,4,o),
(147,4,o),
(136,13,cs)
);
},
{
closed = 1;
nodes = (
(128,570,l),
(122,621,l),
(113,618,l),
(64,736,l),
(55,733,l),
(104,614,l),
(95,611,l)
);
},
{
closed = 1;
nodes = (
(131,732,o),
(136,737,o),
(136,743,cs),
(136,749,o),
(131,754,o),
(125,754,cs),
(119,754,o),
(114,749,o),
(114,743,cs),
(114,737,o),
(119,732,o),
(125,732,cs)
);
}
);
vertWidth = 0;
width = 587;
},
{
layerId = m002;
shapes = (
{
closed = 1;
nodes = (
(113.6,-16.4,o),
(169,-10,o),
(188.4,22,cs),
(582.4,683.2,ls),
(601,715,o),
(591.2,752.4,o),
(557.6,772.4,cs),
(529.6,787.2,o),
(485,780,o),
(463.6,744.8,cs),
(296,465.2,l),
(176,741.2,ls),
(163,771,o),
(126,789.6,o),
(85.6,774,c),
(43.6,761.6,o),
(37,722,o),
(51.2,690.8,cs),
(217.6,334.4,l),
(71.6,92.8,ls),
(55,65,o),
(61.6,26.4,o),
(86.4,5.2,cs)
);
},
{
closed = 1;
nodes = (
(76,34,o),
(71,62,o),
(84.4,85.2,cs),
(231.2,328.8,ls),
(233,332,o),
(234,335,o),
(232,338.8,cs),
(64.8,697.2,ls),
(53,723,o),
(57.6,750,o),
(90.4,760,cs),
(124.4,772.8,o),
(151,760,o),
(162,734.8,cs),
(289.6,443.2,ls),
(292,437,o),
(296,437,o),
(299.6,442.4,cs),
(476.4,737.2,ls),
(493,765,o),
(527.6,771.2,o),
(550.4,759.6,cs),
(577.6,743.2,o),
(585,716,o),
(569.6,690.8,cs),
(175.6,30,ls),
(161,5,o),
(117.2,0,o),
(95.6,16.8,cs)
);
},
{
closed = 1;
nodes = (
(77,537,l),
(73,590,l),
(65,585,l),
(17,706,l),
(4,700,l),
(53,580,l),
(45,577,l)
);
},
{
closed = 1;
nodes = (
(94,719,o),
(99,724,o),
(99,730,cs),
(99,736,o),
(94,741,o),
(88,741,cs),
(82,741,o),
(77,736,o),
(77,730,cs),
(77,724,o),
(82,719,o),
(88,719,cs)
);
}
);
vertWidth = 0;
width = 569;
}
);
unicode = 89;
},
{
glyphname = Z;
layers = (
{
layerId = m01;
shapes = (
{
closed = 1;
nodes = (
(451,-7,ls),
(481,-8,o),
(489,13,o),
(487,31,cs),
(486,47,o),
(477,62,o),
(448,63,cs),
(116,63,l),
(555,719,l),
(575,752,o),
(551,780,o),
(525,780,cs),
(127,780,ls),
(97,780,o),
(88,759,o),
(90,742,cs),
(91,724,o),
(103,710,o),
(131,711,cs),
(464,711,l),
(22,50,ls),
(4,24,o),
(21,-8,o),
(55,-7,cs)
);
},
{
closed = 1;
nodes = (
(31,8,o),
(22,24,o),
(34,42,cs),
(486,717,ls),
(490,721,o),
(487,726,o),
(481,726,cs),
(131,726,ls),
(110,726,o),
(105,731,o),
(104,744,cs),
(104,756,o),
(108,764,o),
(127,765,cs),
(525,765,ls),
(543,764,o),
(556,749,o),
(543,727,c),
(94,57,ls),
(90,52,o),
(93,48,o),
(99,48,cs),
(448,48,ls),
(468,48,o),
(472,42,o),
(473,29,cs),
(473,16,o),
(470,8,o),
(451,8,cs),
(55,8,ls)
);
},
{
closed = 1;
nodes = (
(255,820,l),
(126,820,l),
(126,810,l),
(255,810,l),
(255,801,l),
(304,815,l),
(255,829,l)
);
},
{
closed = 1;
nodes = (
(133,733,o),
(138,738,o),
(138,744,cs),
(138,750,o),
(133,755,o),
(127,755,cs),
(121,755,o),
(116,750,o),
(116,744,cs),
(116,738,o),
(121,733,o),
(127,733,cs)
);
}
);
vertWidth = 0;
width = 579;
},
{
layerId = m002;
shapes = (
{
closed = 1;
nodes = (
(447.2,-7.6,ls),
(490,-8,o),
(510.4,19.6,o),
(510.4,51.2,cs),
(510.4,87.2,o),
(483,114,o),
(443.2,114.4,cs),
(181.2,114.4,l),
(569.2,680.8,ls),
(598,722,o),
(577,780,o),
(519.2,779.6,cs),
(133.2,779.6,ls),
(92,780,o),
(68.4,751.6,o),
(70.4,717.6,cs),
(72.8,684.8,o),
(99,658,o),
(141.2,657.6,cs),
(396.8,657.6,l),
(8.8,87.2,ls),
(-17,50,o),
(6,-8,o),
(65.2,-7.6,cs)
);
},
{
closed = 1;
nodes = (
(18,8,o),
(1,49,o),
(21.2,78.8,cs),
(419.2,663.2,ls),
(423,668,o),
(420,672,o),
(414.4,672.4,cs),
(141.2,672.4,ls),
(106,672,o),
(87.2,692.4,o),
(85.6,718.4,cs),
(83.6,745.2,o),
(100,764,o),
(133.2,764.4,cs),
(519.2,764.4,ls),
(565,764,o),
(580,723,o),
(556.8,689.2,cs),
(159.2,108.8,ls),
(156,104,o),
(158,100,o),
(164,99.6,cs),
(443.2,99.6,ls),
(476,100,o),
(495.6,80,o),
(495.6,51.2,cs),
(495.6,25.6,o),
(481,8,o),
(447.2,7.6,cs),
(65.2,7.6,ls)
);
},
{
closed = 1;
nodes = (
(254,823,l),
(125,823,l),
(125,810,l),
(254,810,l),
(254,801,l),
(303,816,l),
(254,832,l)
);
},
{
closed = 1;
nodes = (
(124,725,o),
(129,730,o),
(129,736,cs),
(129,742,o),
(124,747,o),
(118,747,cs),
(112,747,o),
(107,742,o),
(107,736,cs),
(107,730,o),
(112,725,o),
(118,725,cs)
);
}
);
vertWidth = 0;
width = 594;
}
);
unicode = 90;
},
{
glyphname = A.ss01;
layers = (
{
layerId = m01;
shapes = (
{
closed = 1;
nodes = (
(480,-5,o),
(486,18,o),
(482,41,cs),
(374,744,ls),
(371,763,o),
(363,780,o),
(336,780,cs),
(312,780,o),
(303,766,o),
(293,747,cs),
(-19,51,ls),
(-33,20,o),
(-25,-1,o),
(-2,-7,cs),
(22,-14,o),
(40,5,o),
(49,26,cs),
(203,381,l),
(360,381,l),
(411,32,ls),
(413,12,o),
(419,-10,o),
(451,-7,cs)
);
},
{
closed = 1;
nodes = (
(430,6,o),
(427,16,o),
(425,34,cs),
(373,389,ls),
(373,393,o),
(370,396,o),
(365,396,cs),
(199,396,ls),
(195,396,o),
(192,394,o),
(191,390,cs),
(35,32,ls),
(28,14,o),
(17,3,o),
(2,7,cs),
(-12,11,o),
(-16,21,o),
(-5,45,cs),
(307,741,ls),
(315,758,o),
(320,765,o),
(336,765,cs),
(353,765,o),
(357,758,o),
(360,742,cs),
(468,39,ls),
(470,20,o),
(467,9,o),
(449,7,cs)
);
},
{
closed = 1;
nodes = (
(320,651,l),
(349,450,l),
(233,450,l)
);
},
{
closed = 1;
nodes = (
(359,434,ls),
(364,434,o),
(366,437,o),
(366,442,cs),
(333,673,ls),
(332,677,o),
(329,679,o),
(324,680,cs),
(319,681,o),
(316,679,o),
(315,675,cs),
(214,443,ls),
(212,438,o),
(214,434,o),
(220,434,cs)
);
}
);
vertWidth = 0;
width = 539;
},
{
layerId = m002;
shapes = (
{
closed = 1;
nodes = (
(498.8,-1.6,o),
(516,28.4,o),
(510.4,73.2,cs),
(406.4,736,ls),
(402.8,764.4,o),
(378,779.6,o),
(342,779.6,cs),
(300.8,779.6,o),
(288.8,763.2,o),
(276,735.2,cs),
(-18.8,81.2,ls),
(-35.6,42.8,o),
(-17.2,7.6,o),
(14.4,-5.2,cs),
(44.4,-16.4,o),
(86.4,-2.8,o),
(102.8,36,cs),
(208,285.6,l),
(355.2,285.6,l),
(384.4,57.2,ls),
(391.2,9.2,o),
(418.8,-14,o),
(461.2,-7.6,cs)
);
},
{
closed = 1;
nodes = (
(424,2,o),
(405.2,18,o),
(399.6,58.8,cs),
(369.6,293.6,ls),
(369.2,298,o),
(366.4,300.4,o),
(361.6,300.4,cs),
(204.4,300.4,ls),
(200,300.4,o),
(197.2,298.4,o),
(195.6,294.8,cs),
(89.2,42,ls),
(75.6,10,o),
(44,0,o),
(19.6,9.2,cs),
(-5.6,18.8,o),
(-18.8,44.4,o),
(-5.2,74.8,cs),
(290,728.8,ls),
(301.6,755.2,o),
(308.8,764.4,o),
(342,764.4,cs),
(372.8,764.4,o),
(389.2,754.4,o),
(391.6,734,cs),
(495.6,70.8,ls),
(500.4,32.4,o),
(488.4,12,o),
(458.8,7.6,cs)
);
},
{
closed = 1;
nodes = (
(322,556,l),
(341.6,395.6,l),
(254.4,395.6,l)
);
},
{
closed = 1;
nodes = (
(350.4,380.4,ls),
(355.6,380.4,o),
(358,383.2,o),
(357.6,388.4,cs),
(334.4,579.6,ls),
(334,584,o),
(331.6,586.4,o),
(325.6,587.2,cs),
(321.2,587.6,o),
(318.4,586,o),
(316.8,582,cs),
(235.2,389.2,ls),
(233.2,384,o),
(235.6,380.4,o),
(241.2,380.4,cs)
);
}
);
vertWidth = 0;
width = 558;
}
);
metricLeft = "=A";
metricRight = "=A";
},
{
glyphname = B.ss01;
kernLeft = H_left;
layers = (
{
layerId = m01;
shapes = (
{
closed = 1;
nodes = (
(349,-7,o),
(525,76,o),
(539,215,cs),
(549,310,o),
(495,377,o),
(391,410,c),
(509,447,o),
(531,508,o),
(539,574,cs),
(557,712,o),
(413,796,o),
(153,779,cs),
(129,778,o),
(115,767,o),
(113,741,cs),
(39,38,ls),
(36,14,o),
(52,-7,o),
(75,-7,cs)
);
},
{
closed = 1;
nodes = (
(336,50,o),
(469,119,o),
(480,224,cs),
(491,333,o),
(358,397,o),
(141,379,cs),
(137,379,o),
(134,377,o),
(133,372,cs),
(101,56,ls),
(100,50,o),
(103,48,o),
(108,48,cs)
);
},
{
closed = 1;
nodes = (
(148,365,l),
(356,380,o),
(475,322,o),
(466,226,cs),
(455,131,o),
(334,66,o),
(116,63,c)
);
},
{
closed = 1;
nodes = (
(61,8,o),
(52,19,o),
(53,36,cs),
(127,739,ls),
(129,758,o),
(136,764,o),
(153,765,cs),
(409,780,o),
(541,702,o),
(525,576,cs),
(516,509,o),
(495,453,o),
(369,419,cs),
(364,418,o),
(362,415,o),
(362,411,cs),
(362,409,ls),
(362,405,o),
(364,402,o),
(369,401,cs),
(479,372,o),
(534,310,o),
(525,217,cs),
(511,87,o),
(344,8,o),
(75,8,cs)
);
},
{
closed = 1;
nodes = (
(424,428,o),
(470,500,o),
(480,579,cs),
(490,666,o),
(384,740,o),
(177,726,cs),
(173,726,o),
(170,724,o),
(169,719,cs),
(139,424,ls),
(138,419,o),
(141,416,o),
(146,416,cs)
);
},
{
closed = 1;
nodes = (
(184,712,l),
(380,723,o),
(474,657,o),
(466,581,cs),
(456,507,o),
(416,444,o),
(154,432,c)
);
}
);
vertWidth = 0;
width = 613;
},
{
layerId = m002;
shapes = (
{
closed = 1;
nodes = (
(383.6,-7.6,o),
(568.8,76,o),
(584.4,215.2,cs),
(593.2,300,o),
(548.8,363.6,o),
(458.8,400.8,c),
(556.8,438.4,o),
(576.8,495.6,o),
(583.6,556,cs),
(601.2,717.2,o),
(454,797.6,o),
(177.6,779.6,cs),
(137.2,777.6,o),
(111.2,770.4,o),
(105.6,715.6,cs),
(35.6,64,ls),
(31.2,23.6,o),
(58.8,-7.6,o),
(99.2,-7.6,cs)
);
},
{
closed = 1;
nodes = (
(341.6,110.8,o),
(452.4,158.8,o),
(462.4,230.8,cs),
(472.8,303.6,o),
(368,347.2,o),
(186.4,344.4,cs),
(181.6,344.4,o),
(178.8,342,o),
(178.4,337.2,cs),
(155.6,115.2,ls),
(155.2,110,o),
(157.6,107.2,o),
(163.2,107.2,cs)
);
},
{
closed = 1;
nodes = (
(192.8,329.6,l),
(366.8,331.6,o),
(455.6,291.6,o),
(447.6,233.2,cs),
(439.2,171.2,o),
(340.8,126.8,o),
(171.2,122.8,c)
);
},
{
closed = 1;
nodes = (
(66.4,7.6,o),
(46.8,29.6,o),
(50.4,62,cs),
(120.4,714.4,ls),
(124.8,758,o),
(140.4,762.4,o),
(178.4,764.4,cs),
(449.2,782.4,o),
(584.8,708,o),
(568.4,558,cs),
(561.6,496.8,o),
(543.2,445.2,o),
(441.2,410,cs),
(436.8,408.8,o),
(434.8,406,o),
(434.8,401.6,c),
(434.4,400.4,l),
(434.4,396,o),
(436.4,393.2,o),
(440.4,391.6,cs),
(534.4,357.2,o),
(578.4,299.2,o),
(569.6,216.8,cs),
(555.2,87.2,o),
(379.2,7.6,o),
(99.2,7.6,cs)
);
},
{
closed = 1;
nodes = (
(420.4,436.8,o),
(458.8,487.6,o),
(466.4,551.2,cs),
(474.4,622,o),
(383.2,682.8,o),
(221.6,671.6,cs),
(216.8,671.6,o),
(214,668.8,o),
(213.6,664.4,cs),
(188.4,431.2,ls),
(188,426.4,o),
(190.8,423.2,o),
(196.4,423.6,cs)
);
},
{
closed = 1;
nodes = (
(227.6,656.8,l),
(379.2,666,o),
(458,612.4,o),
(451.6,552.8,cs),
(444.8,495.6,o),
(412,452.4,o),
(204.4,439.2,c)
);
}
);
vertWidth = 0;
width = 650;
}
);
metricLeft = "=B";
metricRight = "=B";
},
{
glyphname = C.ss01;
kernLeft = O_left;
layers = (
{
layerId = m01;
shapes = (
{
closed = 1;
nodes = (
(363,-13,o),
(459,70,o),
(496,146,cs),
(513,177,o),
(516,200,o),
(490,214,cs),
(465,226,o),
(447,209,o),
(432,180,cs),
(403,122,o),
(341,57,o),
(248,57,cs),
(137,57,o),
(93,183,o),
(132,396,cs),
(168,593,o),
(257,716,o),
(367,716,cs),
(421,716,o),
(465,674,o),
(490,656,cs),
(504,645,o),
(531,635,o),
(550,657,cs),
(568,680,o),
(556,701,o),
(544,713,cs),
(511,743,o),
(459,786,o),
(363,786,cs),
(219,786,o),
(102,640,o),
(58,405,cs),
(9,149,o),
(82,-13,o),
(253,-13,cs)
);
},
{
closed = 1;
nodes = (
(93,2,o),
(25,152,o),
(72,403,cs),
(116,633,o),
(227,771,o),
(363,771,cs),
(453,771,o),
(501,731,o),
(534,701,cs),
(544,692,o),
(550,681,o),
(538,667,cs),
(527,653,o),
(511,659,o),
(500,668,cs),
(475,686,o),
(427,731,o),
(367,731,cs),
(248,731,o),
(154,600,o),
(118,398,cs),
(77,180,o),
(125,42,o),
(248,42,cs),
(348,42,o),
(415,113,o),
(446,174,cs),
(459,199,o),
(468,208,o),
(484,200,cs),
(499,192,o),
(498,181,o),
(482,152,cs),
(447,80,o),
(357,2,o),
(253,2,cs)
);
}
);
vertWidth = 0;
width = 584;
},
{
layerId = m002;
shapes = (
{
closed = 1;
nodes = (
(406.8,-13.6,o),
(508.4,59.6,o),
(549.6,134.4,cs),
(578.8,188.8,o),
(558.8,232,o),
(526.4,248.8,cs),
(492.4,266.8,o),
(460.8,252.8,o),
(444.4,218.4,cs),
(417.6,161.2,o),
(364,106.4,o),
(276,106.4,cs),
(192,106.4,o),
(158.8,194.8,o),
(183.6,392,cs),
(204.4,564.4,o),
(274,663.6,o),
(398,663.6,cs),
(441.6,663.6,o),
(488.8,630.8,o),
(513.6,612.8,cs),
(542.8,592.8,o),
(578,597.2,o),
(599.6,634.4,cs),
(621.6,674.4,o),
(604.8,713.2,o),
(580.4,731.2,cs),
(549.6,753.6,o),
(463.2,785.6,o),
(390,785.6,cs),
(199.6,785.6,o),
(84,653.2,o),
(48.4,408,cs),
(11.2,154.8,o),
(87.2,-13.6,o),
(274,-13.6,cs)
);
},
{
closed = 1;
nodes = (
(98,1.6,o),
(26.8,158,o),
(63.6,406,cs),
(98,645.6,o),
(207.6,770.4,o),
(390,770.4,cs),
(460.8,770.4,o),
(542.4,740.4,o),
(571.6,718.8,cs),
(592,704,o),
(604.8,674.4,o),
(586.4,641.6,cs),
(569.2,612,o),
(546,608.8,o),
(522.4,625.2,cs),
(497.2,643.2,o),
(446.4,678.4,o),
(398,678.4,cs),
(265.2,678.4,o),
(190,570.4,o),
(168.4,394,cs),
(143.2,192,o),
(180.8,91.6,o),
(276,91.6,cs),
(370.4,91.6,o),
(430,152.4,o),
(457.6,211.6,cs),
(471.6,240.4,o),
(492.8,249.6,o),
(519.6,235.2,cs),
(546.4,221.6,o),
(561.6,188.4,o),
(536.4,141.6,cs),
(497.2,70,o),
(401.6,1.6,o),
(274,1.6,cs)
);
}
);
vertWidth = 0;
width = 632;
}
);
metricLeft = "=C";
metricRight = "=C";
},
{
glyphname = D.ss01;
kernLeft = H_left;
kernRight = O_right;
layers = (
{
layerId = m01;
shapes = (
{
closed = 1;
nodes = (
(152,-7,ls),
(392,-7,o),
(524,148,o),
(552,403,cs),
(578,628,o),
(449,780,o),
(222,780,cs),
(156,780,ls),
(124,780,o),
(116,762,o),
(114,741,cs),
(39,33,ls),
(36,11,o),
(50,-7,o),
(76,-7,cs)
);
},
{
closed = 1;
nodes = (
(59,8,o),
(52,16,o),
(53,31,cs),
(128,739,ls),
(130,757,o),
(134,765,o),
(156,765,cs),
(222,765,ls),
(442,765,o),
(562,623,o),
(538,405,cs),
(510,155,o),
(385,8,o),
(152,8,cs),
(76,8,ls)
);
},
{
closed = 1;
nodes = (
(148,48,ls),
(359,48,o),
(468,177,o),
(494,408,cs),
(515,592,o),
(412,726,o),
(230,726,cs),
(179,726,ls),
(174,726,o),
(171,723,o),
(171,719,cs),
(101,55,ls),
(100,50,o),
(103,48,o),
(108,48,cs)
);
},
{
closed = 1;
nodes = (
(185,711,l),
(230,711,ls),
(403,711,o),
(499,587,o),
(480,410,cs),
(454,184,o),
(352,63,o),
(148,63,cs),
(116,63,l)
);
}
);
vertWidth = 0;
width = 604;
},
{
layerId = m002;
shapes = (
{
closed = 1;
nodes = (
(189.2,-7.6,ls),
(422,-7.6,o),
(575.2,148.8,o),
(601.6,398.4,cs),
(624.8,624.4,o),
(485.2,779.6,o),
(253.2,779.6,cs),
(169.2,779.6,ls),
(129.2,779.6,o),
(108,760.4,o),
(104.4,723.6,cs),
(34.4,58.8,ls),
(30,22.4,o),
(58.8,-7.6,o),
(99.2,-7.6,cs)
);
},
{
closed = 1;
nodes = (
(66,7.6,o),
(46,28.8,o),
(49.6,57.2,cs),
(119.6,722.4,ls),
(122.4,752.4,o),
(136,764.4,o),
(169.2,764.4,cs),
(253.2,764.4,ls),
(477.6,764.4,o),
(609.2,618.4,o),
(586.4,399.6,cs),
(560.8,156.4,o),
(414.8,7.6,o),
(189.2,7.6,cs),
(99.2,7.6,ls)
);
},
{
closed = 1;
nodes = (
(182,98.4,ls),
(355.6,98.4,o),
(468,201.6,o),
(486.4,402.4,cs),
(502.8,585.2,o),
(402.8,675.6,o),
(240,675.6,cs),
(226.4,675.6,ls),
(221.6,675.6,o),
(218.8,673.2,o),
(218.4,668.4,cs),
(158.4,106.4,ls),
(158,101.2,o),
(160.4,98.4,o),
(165.6,98.4,cs)
);
},
{
closed = 1;
nodes = (
(232.8,660.4,l),
(240,660.4,ls),
(396,660.4,o),
(487.2,578,o),
(471.6,403.6,cs),
(453.6,209.6,o),
(349.2,113.6,o),
(182,113.6,cs),
(174.4,113.6,l)
);
}
);
vertWidth = 0;
width = 647;
}
);
metricLeft = "=D";
metricRight = "=D";
},
{
glyphname = E.ss01;
kernLeft = H_left;
layers = (
{
layerId = m01;
shapes = (
{
closed = 1;
nodes = (
(449,-7,ls),
(478,-7,o),
(489,11,o),
(489,29,cs),
(489,46,o),
(478,63,o),
(449,63,cs),
(117,63,l),
(151,381,l),
(460,381,ls),
(487,381,o),
(503,398,o),
(503,416,cs),
(503,433,o),
(491,451,o),
(462,451,cs),
(157,451,l),
(185,711,l),
(525,711,ls),
(554,711,o),
(565,728,o),
(565,745,cs),
(565,762,o),
(554,780,o),
(525,780,cs),
(156,780,ls),
(124,780,o),
(116,762,o),
(114,741,cs),
(39,33,ls),
(36,11,o),
(50,-7,o),
(76,-7,cs)
);
},
{
closed = 1;
nodes = (
(59,8,o),
(52,16,o),
(53,31,cs),
(128,739,ls),
(130,757,o),
(134,765,o),
(156,765,cs),
(525,765,ls),
(545,765,o),
(550,757,o),
(550,745,cs),
(550,733,o),
(545,726,o),
(525,726,cs),
(179,726,ls),
(174,726,o),
(171,723,o),
(171,719,cs),
(141,443,ls),
(141,438,o),
(143,436,o),
(149,436,cs),
(462,436,ls),
(482,436,o),
(488,428,o),
(488,416,cs),
(488,405,o),
(480,396,o),
(460,396,cs),
(145,396,ls),
(140,396,o),
(137,393,o),
(137,389,cs),
(101,55,ls),
(101,50,o),
(103,48,o),
(109,48,cs),
(449,48,ls),
(469,48,o),
(474,41,o),
(474,29,cs),
(474,16,o),
(469,8,o),
(449,8,cs),
(76,8,ls)
);
}
);
vertWidth = 0;
width = 582;
},
{
layerId = m002;
shapes = (
{
closed = 1;
nodes = (
(484,-7.6,ls),
(524,-7.6,o),
(546.4,28,o),
(546.4,62,cs),
(546.4,94.8,o),
(520.4,114.4,o),
(479.2,114.4,cs),
(174.4,114.4,l),
(197.6,334.4,l),
(487.2,334.4,ls),
(529.2,334.4,o),
(555.6,360.8,o),
(555.6,393.2,cs),
(555.6,428.8,o),
(525.6,450.4,o),
(486,450.4,cs),
(210.4,450.4,l),
(231.6,657.6,l),
(554,657.6,ls),
(593.2,657.6,o),
(618.4,685.2,o),
(618.4,720,cs),
(618.4,754.4,o),
(590,779.6,o),
(549.2,779.6,cs),
(172,779.6,ls),
(132,779.6,o),
(108,764,o),
(104.4,726.8,cs),
(34.4,60,ls),
(30,23.6,o),
(47.6,-7.6,o),
(89.2,-7.6,cs)
);
},
{
closed = 1;
nodes = (
(57.2,7.6,o),
(45.6,27.6,o),
(49.6,58,cs),
(119.6,725.2,ls),
(122,754.8,o),
(137.2,764.4,o),
(172,764.4,cs),
(549.2,764.4,ls),
(583.2,764.4,o),
(603.6,746.8,o),
(603.6,720,cs),
(603.6,692,o),
(585.6,672.4,o),
(554,672.4,cs),
(225.6,672.4,ls),
(220.8,672.4,o),
(218,670,o),
(217.6,665.2,cs),
(194.4,443.6,ls),
(194,438.4,o),
(196.4,435.6,o),
(201.6,435.6,cs),
(486,435.6,ls),
(519.6,435.6,o),
(540.4,420,o),
(540.4,393.2,cs),
(540.4,368,o),
(522,349.6,o),
(487.2,349.6,cs),
(191.6,349.6,ls),
(186.8,349.6,o),
(184,347.2,o),
(183.6,342.4,cs),
(158.4,107.6,ls),
(158,102.4,o),
(160.4,99.6,o),
(165.6,99.6,cs),
(479.2,99.6,ls),
(514.4,99.6,o),
(531.6,86.4,o),
(531.6,62,cs),
(531.6,33.2,o),
(514.8,7.6,o),
(484,7.6,cs),
(89.2,7.6,ls)
);
}
);
vertWidth = 0;
width = 631;
}
);
metricLeft = "=E";
metricRight = "=E";
},
{
glyphname = F.ss01;
kernLeft = H_left;
layers = (
{
layerId = m01;
shapes = (
{
closed = 1;
nodes = (
(109,-7,o),
(111,17,o),
(113,29,cs),
(150,381,l),
(451,381,ls),
(480,381,o),
(493,399,o),
(493,416,cs),
(493,434,o),
(480,451,o),
(451,451,cs),
(157,451,l),
(185,711,l),
(525,711,ls),
(554,711,o),
(565,728,o),
(565,745,cs),
(565,762,o),
(554,780,o),
(525,780,cs),
(156,780,ls),
(124,780,o),
(116,762,o),
(114,741,cs),
(39,33,ls),
(36,11,o),
(50,-7,o),
(76,-7,cs)
);
},
{
closed = 1;
nodes = (
(59,8,o),
(52,16,o),
(53,31,cs),
(128,739,ls),
(130,757,o),
(134,765,o),
(156,765,cs),
(525,765,ls),
(545,765,o),
(550,757,o),
(550,745,cs),
(550,733,o),
(545,726,o),
(525,726,cs),
(179,726,ls),
(174,726,o),
(171,723,o),
(171,719,cs),
(141,443,ls),
(141,438,o),
(143,436,o),
(149,436,cs),
(451,436,ls),
(471,436,o),
(478,427,o),
(478,416,cs),
(478,404,o),
(471,396,o),
(451,396,cs),
(143,396,ls),
(139,396,o),
(136,393,o),
(135,389,cs),
(99,31,ls),
(97,19,o),
(95,8,o),
(76,8,cs)
);
}
);
vertWidth = 0;
width = 582;
},
{
layerId = m002;
shapes = (
{
closed = 1;
nodes = (
(142.4,-7.6,o),
(165.2,21.2,o),
(169.6,60,cs),
(197.6,322.4,l),
(475.2,322.4,ls),
(517.6,322.4,o),
(537.6,349.6,o),
(537.6,381.2,cs),
(537.6,416.8,o),
(508.4,438.4,o),
(469.2,438.4,cs),
(209.2,438.4,l),
(232.8,657.6,l),
(539.2,657.6,ls),
(578.4,657.6,o),
(607.6,678.4,o),
(607.6,718,cs),
(607.6,755.6,o),
(578.8,779.6,o),
(538,779.6,cs),
(171.2,779.6,ls),
(130.8,779.6,o),
(108.8,762.8,o),
(105.6,725.6,cs),
(35.6,64.8,ls),
(31.2,29.6,o),
(50.4,-7.6,o),
(89.2,-7.6,cs)
);
},
{
closed = 1;
nodes = (
(60.4,7.6,o),
(46.8,33.6,o),
(50.4,63.2,cs),
(120.4,724.4,ls),
(123.2,754,o),
(136.4,764.4,o),
(171.2,764.4,cs),
(538,764.4,ls),
(572.4,764.4,o),
(592.4,747.6,o),
(592.4,718,cs),
(592.4,686.8,o),
(572.4,672.4,o),
(539.2,672.4,cs),
(226.4,672.4,ls),
(221.6,672.4,o),
(218.8,670,o),
(218.4,665.2,cs),
(193.6,431.6,ls),
(193.2,426.4,o),
(195.6,423.6,o),
(200.8,423.6,cs),
(469.2,423.6,ls),
(502.4,423.6,o),
(522.4,408.4,o),
(522.4,381.2,cs),
(522.4,355.6,o),
(509.2,337.6,o),
(475.2,337.6,cs),
(191.6,337.6,ls),
(186.8,337.6,o),
(184,335.2,o),
(183.6,330.4,cs),
(154.4,62,ls),
(150.8,28,o),
(134.4,7.6,o),
(89.2,7.6,cs)
);
}
);
vertWidth = 0;
width = 620;
}
);
metricLeft = "=F";
metricRight = "=F";
},
{
glyphname = G.ss01;
kernLeft = O_left;
layers = (
{
layerId = m01;
shapes = (
{
closed = 1;
nodes = (
(320,-12,o),
(401,56,o),
(468,188,c),
(454,44,ls),
(450,17,o),
(455,-6,o),
(486,-7,cs),
(519,-9,o),
(525,18,o),
(527,42,cs),
(563,383,ls),
(566,408,o),
(547,424,o),
(523,424,cs),
(497,424,o),
(489,407,o),
(485,390,c),
(409,168,o),
(307,58,o),
(236,58,cs),
(136,58,o),
(95,183,o),
(129,396,cs),
(164,596,o),
(258,716,o),
(379,716,cs),
(459,716,o),
(494,677,o),
(521,648,cs),
(535,633,o),
(558,623,o),
(575,638,cs),
(593,655,o),
(589,674,o),
(575,693,cs),
(544,732,o),
(471,786,o),
(387,786,cs),
(226,786,o),
(100,640,o),
(57,406,cs),
(10,150,o),
(72,-12,o),
(226,-12,cs)
);
},
{
closed = 1;
nodes = (
(83,3,o),
(26,153,o),
(71,404,cs),
(114,633,o),
(233,771,o),
(387,771,cs),
(466,771,o),
(534,721,o),
(563,683,cs),
(574,669,o),
(576,660,o),
(565,650,cs),
(556,641,o),
(543,646,o),
(531,658,cs),
(506,687,o),
(465,731,o),
(379,731,cs),
(250,731,o),
(150,603,o),
(115,398,cs),
(79,180,o),
(124,43,o),
(236,43,cs),
(314,43,o),
(422,159,o),
(499,386,c),
(503,401,o),
(507,409,o),
(523,409,cs),
(540,409,o),
(550,401,o),
(549,385,cs),
(513,44,ls),
(511,20,o),
(507,7,o),
(486,7,cs),
(468,8,o),
(466,18,o),
(468,42,cs),
(487,223,ls),
(487,228,o),
(485,231,o),
(481,232,cs),
(480,232,ls),
(475,233,o),
(472,232,o),
(470,228,cs),
(402,77,o),
(321,2,o),
(226,3,cs)
);
}
);
vertWidth = 0;
width = 619;
},
{
layerId = m002;
shapes = (
{
closed = 1;
nodes = (
(308.4,-13.6,o),
(372.8,56.4,o),
(425.6,144,c),
(416.4,58.8,ls),
(413.2,16.8,o),
(442.4,-7.6,o),
(486,-7.6,cs),
(532,-7.6,o),
(546,18,o),
(550.4,49.2,cs),
(586.4,379.2,ls),
(590,421.2,o),
(560.8,447.6,o),
(520,447.6,cs),
(470,447.6,o),
(463.2,432.4,o),
(402.4,325.6,cs),
(365.6,261.6,o),
(274.8,108.4,o),
(233.2,108.4,cs),
(179.2,108.4,o),
(158.4,203.2,o),
(180.4,390,cs),
(199.2,547.2,o),
(239.2,663.6,o),
(369.2,663.6,cs),
(434.4,663.6,o),
(461.2,650.4,o),
(478.4,615.6,cs),
(497.2,576.8,o),
(517.6,558.8,o),
(562,569.6,cs),
(599.6,580.4,o),
(604,618,o),
(594,649.2,cs),
(567.2,734.4,o),
(480.8,785.6,o),
(369.2,785.6,cs),
(174,785.6,o),
(82,634.4,o),
(48.4,407.2,cs),
(12.4,164,o),
(48,-13.6,o),
(226,-13.6,cs)
);
},
{
closed = 1;
nodes = (
(61.2,1.6,o),
(27.6,165.2,o),
(63.6,404.8,cs),
(96,628.4,o),
(183.2,770.4,o),
(369.2,770.4,cs),
(476,770.4,o),
(554.8,724,o),
(580,644.8,cs),
(588.4,617.2,o),
(585.2,592,o),
(558,584.4,cs),
(522,575.2,o),
(509.2,586.8,o),
(491.6,622.4,cs),
(472.4,662,o),
(438.4,678.4,o),
(369.2,678.4,cs),
(228.4,678.4,o),
(184.8,551.2,o),
(165.6,392,cs),
(143.2,202.4,o),
(164.8,93.6,o),
(233.2,93.6,cs),
(285.2,93.6,o),
(378.8,254.8,o),
(415.6,318.4,cs),
(476.8,425.6,o),
(480,432.4,o),
(520,432.4,cs),
(554,432.4,o),
(574.4,414,o),
(571.6,380.8,cs),
(535.6,50.8,ls),
(531.6,23.6,o),
(522.8,7.6,o),
(486,7.6,cs),
(448.8,7.6,o),
(428.8,24.4,o),
(431.6,57.2,cs),
(443.6,170.4,ls),
(444,174.8,o),
(442.4,178,o),
(438,179.2,cs),
(436.8,179.6,ls),
(432.4,180.8,o),
(429.2,179.6,o),
(427.2,175.6,cs),
(372,78.8,o),
(308.8,1.6,o),
(226,1.6,cs)
);
}
);
vertWidth = 0;
width = 596;
}
);
metricLeft = "=G";
metricRight = "=G";
},
{
glyphname = H.ss01;
kernLeft = H_left;
kernRight = H_right;
layers = (
{
layerId = m01;
shapes = (
{
closed = 1;
nodes = (
(109,-7,o),
(111,17,o),
(113,29,cs),
(151,381,l),
(475,381,l),
(438,33,ls),
(436,17,o),
(441,-7,o),
(475,-7,cs),
(503,-7,o),
(511,13,o),
(512,25,cs),
(588,737,ls),
(591,761,o),
(580,780,o),
(551,780,cs),
(525,780,o),
(516,761,o),
(514,747,cs),
(482,451,l),
(157,451,l),
(187,734,ls),
(191,759,o),
(182,780,o),
(156,780,cs),
(129,780,o),
(116,763,o),
(114,741,cs),
(39,33,ls),
(36,11,o),
(50,-7,o),
(76,-7,cs)
);
},
{
closed = 1;
nodes = (
(59,8,o),
(52,16,o),
(53,31,cs),
(128,739,ls),
(130,756,o),
(137,765,o),
(156,765,cs),
(171,765,o),
(175,756,o),
(173,736,cs),
(141,443,ls),
(141,438,o),
(143,436,o),
(149,436,cs),
(489,436,ls),
(493,436,o),
(496,438,o),
(497,443,cs),
(528,745,ls),
(530,756,o),
(535,765,o),
(551,765,cs),
(571,765,o),
(575,756,o),
(574,739,cs),
(498,27,ls),
(497,17,o),
(493,8,o),
(475,8,cs),
(454,8,o),
(452,19,o),
(452,31,cs),
(491,388,ls),
(491,393,o),
(489,396,o),
(483,396,cs),
(145,396,ls),
(140,396,o),
(137,393,o),
(137,389,cs),
(99,31,ls),
(97,19,o),
(95,8,o),
(76,8,cs)
);
}
);
vertWidth = 0;
width = 629;
},
{
layerId = m002;
shapes = (
{
closed = 1;
nodes = (
(148,-7.6,o),
(166,20.4,o),
(169.6,47.2,cs),
(198.8,333.6,l),
(462.8,333.6,l),
(433.6,58.8,ls),
(429.2,20.4,o),
(454.8,-7.6,o),
(498,-7.6,cs),
(535.6,-7.6,o),
(563.2,15.6,o),
(565.6,43.2,cs),
(635.6,711.2,ls),
(640,754,o),
(610.8,779.6,o),
(570,779.6,cs),
(533.6,779.6,o),
(506,758.8,o),
(503.6,728.8,cs),
(475.2,455.6,l),
(211.2,455.6,l),
(236.4,708,ls),
(242,754.8,o),
(217.2,779.6,o),
(178,779.6,cs),
(143.6,779.6,o),
(108,762.8,o),
(104.4,723.6,cs),
(35.6,58.8,ls),
(30.8,21.2,o),
(60,-7.6,o),
(102,-7.6,cs)
);
},
{
closed = 1;
nodes = (
(67.2,7.6,o),
(46.8,27.6,o),
(50.4,57.2,cs),
(119.6,722.4,ls),
(122,752,o),
(147.6,764.4,o),
(178,764.4,cs),
(210,764.4,o),
(226,748.4,o),
(221.6,710,cs),
(195.6,448.4,ls),
(195.2,443.2,o),
(197.6,440.4,o),
(202.8,440.4,cs),
(481.6,440.4,ls),
(486.4,440.4,o),
(489.2,442.8,o),
(489.6,447.6,cs),
(518.4,727.2,ls),
(520.4,750,o),
(539.6,764.4,o),
(570,764.4,cs),
(604,764.4,o),
(624,746.8,o),
(620.4,712.8,cs),
(550.4,44.8,ls),
(548.8,23.6,o),
(529.2,7.6,o),
(498,7.6,cs),
(462.4,7.6,o),
(444.8,26.4,o),
(448.4,57.2,cs),
(478.4,340.4,ls),
(478.8,345.6,o),
(476.4,348.4,o),
(471.2,348.4,cs),
(192.4,348.4,ls),
(187.6,348.4,o),
(184.8,346,o),
(184.4,341.2,cs),
(154.4,48.8,ls),
(151.6,26.8,o),
(138.8,7.6,o),
(102,7.6,cs)
);
}
);
vertWidth = 0;
width = 672;
}
);
metricLeft = "=H";
metricRight = "=H";
},
{
glyphname = I.ss01;
layers = (
{
layerId = m01;
shapes = (
{
closed = 1;
nodes = (
(185,-7,ls),
(215,-7,o),
(222,11,o),
(222,27,cs),
(222,45,o),
(210,63,o),
(182,63,cs),
(171,63,l),
(241,711,l),
(260,711,ls),
(290,711,o),
(297,729,o),
(297,745,cs),
(297,762,o),
(285,780,o),
(256,780,cs),
(151,780,ls),
(121,780,o),
(114,761,o),
(114,745,cs),
(114,727,o),
(126,711,o),
(154,711,cs),
(165,711,l),
(96,63,l),
(76,63,ls),
(46,63,o),
(39,44,o),
(39,27,cs),
(39,9,o),
(51,-7,o),
(79,-7,cs)
);
},
{
closed = 1;
nodes = (
(60,8,o),
(54,16,o),
(54,27,cs),
(54,40,o),
(57,48,o),
(76,48,cs),
(103,48,ls),
(107,48,o),
(110,50,o),
(111,55,cs),
(181,718,ls),
(181,723,o),
(179,726,o),
(173,726,cs),
(154,726,ls),
(135,726,o),
(129,734,o),
(129,745,cs),
(129,757,o),
(132,765,o),
(151,765,cs),
(256,765,ls),
(276,765,o),
(282,757,o),
(282,745,cs),
(282,732,o),
(279,726,o),
(260,726,cs),
(235,726,ls),
(230,726,o),
(227,723,o),
(227,719,cs),
(155,55,ls),
(155,50,o),
(157,48,o),
(163,48,cs),
(182,48,ls),
(201,48,o),
(207,40,o),
(207,27,cs),
(207,14,o),
(204,8,o),
(185,8,cs),
(79,8,ls)
);
}
);
vertWidth = 0;
width = 338;
},
{
layerId = m002;
shapes = (
{
closed = 1;
nodes = (
(255.2,-7.6,ls),
(301.6,-7.6,o),
(331.6,16.4,o),
(331.6,55.2,cs),
(331.6,91.2,o),
(306,114.4,o),
(266,114.4,cs),
(254.4,114.4,l),
(312.8,657.6,l),
(327.2,657.6,ls),
(372.8,657.6,o),
(403.6,682.4,o),
(403.6,720,cs),
(403.6,756.4,o),
(376.8,779.6,o),
(337.2,779.6,cs),
(177.2,779.6,ls),
(130.4,779.6,o),
(100.4,755.6,o),
(100.4,718,cs),
(100.4,680.4,o),
(127.2,657.6,o),
(166,657.6,cs),
(178.8,657.6,l),
(120.4,114.4,l),
(106,114.4,ls),
(59.2,114.4,o),
(29.6,90.4,o),
(29.6,52,cs),
(29.6,15.6,o),
(55.2,-7.6,o),
(95.2,-7.6,cs)
);
},
{
closed = 1;
nodes = (
(62,7.6,o),
(44.4,23.2,o),
(44.4,52,cs),
(44.4,82.4,o),
(65.6,99.6,o),
(106,99.6,cs),
(126.4,99.6,ls),
(131.2,99.6,o),
(134,102,o),
(134.4,106.8,cs),
(194.4,664.4,ls),
(194.8,669.6,o),
(192.4,672.4,o),
(187.2,672.4,cs),
(166,672.4,ls),
(134,672.4,o),
(115.6,688.4,o),
(115.6,718,cs),
(115.6,747.6,o),
(136.8,764.4,o),
(177.2,764.4,cs),
(337.2,764.4,ls),
(370,764.4,o),
(388.4,748.4,o),
(388.4,720,cs),
(388.4,690.4,o),
(366.4,672.4,o),
(327.2,672.4,cs),
(306.4,672.4,ls),
(301.6,672.4,o),
(298.8,670,o),
(298.4,665.2,cs),
(238.4,107.6,ls),
(238,102.4,o),
(240.4,99.6,o),
(245.6,99.6,cs),
(266,99.6,ls),
(299.2,99.6,o),
(316.4,83.6,o),
(316.4,55.2,cs),
(316.4,24.4,o),
(295.2,7.6,o),
(255.2,7.6,cs),
(95.2,7.6,ls)
);
}
);
vertWidth = 0;
width = 436;
}
);
metricLeft = "=I";
metricRight = "=I";
},
{
glyphname = J.ss01;
kernRight = H_right;
layers = (
{
layerId = m01;
shapes = (
{
closed = 1;
nodes = (
(298,-13,o),
(360,64,o),
(378,243,cs),
(426,711,l),
(448,711,ls),
(478,711,o),
(484,729,o),
(484,745,cs),
(484,762,o),
(473,780,o),
(444,780,cs),
(338,780,ls),
(309,780,o),
(302,761,o),
(302,745,cs),
(302,728,o),
(313,711,o),
(342,711,cs),
(351,711,l),
(304,245,ls),
(290,108,o),
(248,57,o),
(175,57,cs),
(128,57,o),
(101,89,o),
(77,119,cs),
(62,139,o),
(38,144,o),
(22,127,cs),
(4,110,o),
(10,88,o),
(21,72,cs),
(57,28,o),
(107,-13,o),
(175,-13,cs)
);
},
{
closed = 1;
nodes = (
(113,2,o),
(67,38,o),
(33,82,cs),
(24,94,o),
(21,106,o),
(32,117,cs),
(42,127,o),
(54,124,o),
(65,109,cs),
(89,79,o),
(122,42,o),
(175,42,cs),
(257,42,o),
(304,101,o),
(318,243,cs),
(367,718,ls),
(367,723,o),
(365,726,o),
(359,726,cs),
(342,726,ls),
(322,726,o),
(317,733,o),
(317,745,cs),
(317,757,o),
(320,765,o),
(338,765,cs),
(444,765,ls),
(464,765,o),
(469,757,o),
(469,745,cs),
(469,732,o),
(466,726,o),
(448,726,cs),
(419,726,ls),
(415,726,o),
(412,723,o),
(411,719,cs),
(364,245,ls),
(346,71,o),
(290,2,o),
(175,2,cs)
);
}
);
vertWidth = 0;
width = 525;
},
{
layerId = m002;
shapes = (
{
closed = 1;
nodes = (
(292.4,-12.4,o),
(384,59.2,o),
(401.6,228.4,cs),
(447.6,657.6,l),
(463.2,657.6,ls),
(509.6,657.6,o),
(539.6,682.4,o),
(539.6,720,cs),
(539.6,756.4,o),
(514,779.6,o),
(474,779.6,cs),
(314,779.6,ls),
(267.2,779.6,o),
(237.6,755.6,o),
(237.6,718,cs),
(237.6,680.8,o),
(263.2,657.6,o),
(303.2,657.6,cs),
(315.6,657.6,l),
(272.4,258.8,ls),
(258.8,131.2,o),
(229.6,108.4,o),
(188,108.4,cs),
(158,108.4,o),
(124.4,126,o),
(87.2,163.2,cs),
(58,192.4,o),
(16,188.8,o),
(-10.8,156.8,cs),
(-31.2,132.8,o),
(-26.8,91.2,o),
(-6.4,70,cs),
(44.8,16.8,o),
(106,-12.4,o),
(173.2,-12.4,cs)
);
},
{
closed = 1;
nodes = (
(109.6,2.4,o),
(53.6,29.2,o),
(4.4,80,cs),
(-12,97.2,o),
(-15.2,128.4,o),
(0.8,147.2,cs),
(22.8,173.6,o),
(53.2,176.4,o),
(76.8,152.8,cs),
(115.6,113.6,o),
(154,93.6,o),
(188,93.6,cs),
(236,93.6,o),
(272.8,121.6,o),
(287.6,257.2,cs),
(331.6,664.4,ls),
(332,669.6,o),
(329.6,672.4,o),
(324.4,672.4,cs),
(303.2,672.4,ls),
(270,672.4,o),
(252.4,688.4,o),
(252.4,718,cs),
(252.4,747.6,o),
(273.6,764.4,o),
(314,764.4,cs),
(474,764.4,ls),
(507.2,764.4,o),
(524.4,748.8,o),
(524.4,720,cs),
(524.4,690.4,o),
(503.2,672.4,o),
(463.2,672.4,cs),
(441.6,672.4,ls),
(436.8,672.4,o),
(434,670,o),
(433.6,665.2,cs),
(386.4,229.6,ls),
(370,68,o),
(286.4,2.4,o),
(173.2,2.4,cs)
);
}
);
vertWidth = 0;
width = 571;
}
);
metricLeft = "=J";
metricRight = "=J";
},
{
glyphname = K.ss01;
kernLeft = H_left;
layers = (
{
layerId = m01;
shapes = (
{
closed = 1;
nodes = (
(108,-7,o),
(111,20,o),
(113,36,cs),
(150,375,l),
(435,18,ls),
(445,6,o),
(459,-7,o),
(477,-7,cs),
(497,-7,o),
(513,8,o),
(513,27,cs),
(513,38,o),
(507,47,o),
(501,55,cs),
(210,416,l),
(561,709,l),
(577,724,o),
(586,738,o),
(586,750,cs),
(586,768,o),
(573,780,o),
(553,780,cs),
(542,780,o),
(529,776,o),
(514,763,cs),
(158,461,l),
(187,734,ls),
(191,759,o),
(184,780,o),
(156,780,cs),
(127,780,o),
(116,762,o),
(114,741,cs),
(39,39,ls),
(36,17,o),
(50,-7,o),
(76,-7,cs)
);
},
{
closed = 1;
nodes = (
(59,8,o),
(52,22,o),
(53,37,cs),
(128,739,ls),
(130,756,o),
(136,765,o),
(156,765,cs),
(173,765,o),
(175,756,o),
(173,736,cs),
(141,439,ls),
(140,432,o),
(144,429,o),
(150,434,cs),
(524,751,ls),
(537,762,o),
(544,765,o),
(553,765,cs),
(566,765,o),
(571,761,o),
(571,750,cs),
(571,742,o),
(565,734,o),
(551,721,cs),
(195,423,ls),
(191,420,o),
(191,416,o),
(194,412,cs),
(489,45,ls),
(495,39,o),
(498,34,o),
(498,27,cs),
(498,15,o),
(490,8,o),
(477,8,cs),
(465,8,o),
(456,16,o),
(447,28,cs),
(147,403,ls),
(143,408,o),
(138,406,o),
(137,400,cs),
(99,38,ls),
(97,22,o),
(94,8,o),
(76,8,cs)
);
}
);
vertWidth = 0;
width = 570;
},
{
layerId = m002;
shapes = (
{
closed = 1;
nodes = (
(145.6,-7.6,o),
(165.2,19.2,o),
(169.6,52,cs),
(197.6,312.8,l),
(443.2,25.2,ls),
(460.4,6,o),
(484,-7.6,o),
(508,-7.6,cs),
(541.2,-7.6,o),
(569.6,23.2,o),
(569.6,55.2,cs),
(569.6,71.6,o),
(561.2,88,o),
(547.6,104.8,cs),
(280.8,414,l),
(605.6,662,ls),
(623.6,675.6,o),
(637.2,694,o),
(638.4,714.8,cs),
(639.6,746.4,o),
(613.6,779.6,o),
(575.2,779.6,cs),
(554.4,779.6,o),
(534.8,770.4,o),
(517.2,755.6,cs),
(218.4,507.6,l),
(239.6,708.4,ls),
(244,761.2,o),
(208.8,779.6,o),
(177.2,779.6,cs),
(143.2,779.6,o),
(111.2,762.4,o),
(106.4,724,cs),
(35.6,64.8,ls),
(31.2,25.2,o),
(62.8,-7.6,o),
(105.2,-7.6,cs)
);
},
{
closed = 1;
nodes = (
(70,7.6,o),
(46.8,31.6,o),
(50.4,63.2,cs),
(121.6,722,ls),
(124.8,752.4,o),
(148,764.4,o),
(177.2,764.4,cs),
(204,764.4,o),
(228,751.6,o),
(224.4,709.6,cs),
(200.8,485.6,ls),
(200.4,478.8,o),
(204.4,476.4,o),
(209.6,480.8,cs),
(526.8,744.4,ls),
(543.2,757.6,o),
(557.6,764.4,o),
(575.2,764.4,cs),
(605.2,764.4,o),
(624.4,740.4,o),
(623.6,715.2,cs),
(622.8,699.6,o),
(612.8,686.4,o),
(596.4,674,cs),
(265.2,420.8,ls),
(261.2,417.6,o),
(261.2,414,o),
(264.4,410,cs),
(536.4,95.2,ls),
(548.8,80,o),
(554.4,68.4,o),
(554.4,55.2,cs),
(554.4,30,o),
(533.6,7.6,o),
(508,7.6,cs),
(488,7.6,o),
(469.6,18,o),
(454.8,34.8,cs),
(194.8,339.6,ls),
(190.4,344.8,o),
(185.6,343.2,o),
(185.2,336.4,cs),
(154.4,54,ls),
(150.8,26,o),
(137.2,7.6,o),
(105.2,7.6,cs)
);
}
);
vertWidth = 0;
width = 615;
}
);
metricLeft = "=K";
metricRight = "=K";
},
{
glyphname = L.ss01;
kernLeft = H_left;
layers = (
{
layerId = m01;
shapes = (
{
closed = 1;
nodes = (
(433,-7,ls),
(460,-7,o),
(472,10,o),
(472,29,cs),
(472,49,o),
(458,63,o),
(432,63,cs),
(117,63,l),
(187,734,ls),
(191,758,o),
(186,780,o),
(156,780,cs),
(127,780,o),
(116,762,o),
(114,741,cs),
(39,33,ls),
(36,11,o),
(50,-7,o),
(76,-7,cs)
);
},
{
closed = 1;
nodes = (
(59,8,o),
(52,16,o),
(53,31,cs),
(128,739,ls),
(130,756,o),
(136,765,o),
(156,765,cs),
(173,765,o),
(175,757,o),
(173,736,cs),
(101,55,ls),
(101,50,o),
(103,48,o),
(109,48,cs),
(432,48,ls),
(451,48,o),
(457,42,o),
(457,29,cs),
(457,15,o),
(451,8,o),
(433,8,cs),
(76,8,ls)
);
}
);
vertWidth = 0;
width = 528;
},
{
layerId = m002;
shapes = (
{
closed = 1;
nodes = (
(468,-7.6,ls),
(508.4,-7.6,o),
(531.6,22.8,o),
(531.6,55.2,cs),
(531.6,87.2,o),
(500.8,115.6,o),
(461.2,115.6,cs),
(173.2,115.6,l),
(236.4,708.4,ls),
(242,764.4,o),
(206.4,779.6,o),
(175.2,779.6,cs),
(137.2,779.6,o),
(108,762.4,o),
(104.4,723.6,cs),
(34.4,58.8,ls),
(30,22,o),
(52.4,-7.6,o),
(93.2,-7.6,cs)
);
},
{
closed = 1;
nodes = (
(60.8,7.6,o),
(46,27.2,o),
(49.6,57.2,cs),
(119.6,722.4,ls),
(122,752.4,o),
(142,764.4,o),
(175.2,764.4,cs),
(202.4,764.4,o),
(226,754.4,o),
(221.6,709.6,cs),
(157.6,108.4,ls),
(157.2,103.2,o),
(159.6,100.4,o),
(164.8,100.4,cs),
(461.2,100.4,ls),
(494,100.4,o),
(516.4,79.6,o),
(516.4,55.2,cs),
(516.4,28.4,o),
(500.4,7.6,o),
(468,7.6,cs),
(93.2,7.6,ls)
);
}
);
vertWidth = 0;
width = 577;
}
);
metricLeft = "=L";
metricRight = "=L";
},
{
glyphname = M.ss01;
kernLeft = H_left;
kernRight = H_right;
layers = (
{
layerId = m01;
shapes = (
{
closed = 1;
nodes = (
(23,-7,o),
(39,2,o),
(52,27,cs),
(341,620,l),
(410,28,ls),
(411,15,o),
(417,-7,o),
(450,-7,cs),
(478,-7,o),
(489,17,o),
(494,26,cs),
(783,623,l),
(852,28,ls),
(853,15,o),
(860,-7,o),
(891,-7,cs),
(915,-7,o),
(928,10,o),
(925,32,cs),
(843,740,ls),
(841,759,o),
(837,780,o),
(798,780,cs),
(775,780,o),
(765,757,o),
(759,744,cs),
(470,147,l),
(400,751,ls),
(399,763,o),
(388,780,o),
(362,780,cs),
(338,780,o),
(328,763,o),
(319,746,c),
(-20,48,ls),
(-34,19,o),
(-22,-7,o),
(7,-7,cs)
);
},
{
closed = 1;
nodes = (
(-11,8,o),
(-17,20,o),
(-6,42,cs),
(333,740,l),
(342,755,o),
(346,765,o),
(362,765,cs),
(379,765,o),
(385,756,o),
(386,749,cs),
(457,127,ls),
(457,122,o),
(460,120,o),
(464,119,cs),
(465,119,ls),
(470,118,o),
(473,120,o),
(474,124,cs),
(773,738,ls),
(779,751,o),
(785,765,o),
(798,765,cs),
(825,765,o),
(827,757,o),
(829,738,cs),
(911,30,ls),
(912,15,o),
(906,8,o),
(891,8,cs),
(871,8,o),
(867,19,o),
(866,30,cs),
(795,643,ls),
(795,648,o),
(792,650,o),
(788,651,cs),
(787,651,ls),
(782,652,o),
(779,650,o),
(778,646,cs),
(480,32,ls),
(475,23,o),
(468,8,o),
(450,8,cs),
(429,8,o),
(425,18,o),
(424,30,cs),
(354,640,ls),
(354,645,o),
(351,647,o),
(347,648,cs),
(346,648,ls),
(341,649,o),
(338,647,o),
(336,643,cs),
(38,33,ls),
(28,13,o),
(18,8,o),
(7,8,cs)
);
}
);
vertWidth = 0;
width = 982;
},
{
layerId = m002;
shapes = (
{
closed = 1;
nodes = (
(60.4,-7.6,o),
(99.2,4.4,o),
(113.6,36,cs),
(336.4,504.8,l),
(385.6,47.2,ls),
(388.8,16.8,o),
(412,-7.6,o),
(451.2,-7.6,cs),
(503.6,-7.6,o),
(517.6,19.6,o),
(524.8,33.6,cs),
(753.2,506.8,l),
(797.6,47.2,ls),
(800.8,18.4,o),
(829.2,-7.6,o),
(870,-7.6,cs),
(908,-7.6,o),
(936,20.4,o),
(931.6,56,cs),
(859.6,720.8,ls),
(855.2,756,o),
(848,779.6,o),
(802,779.6,cs),
(762,779.6,o),
(738.4,763.6,o),
(724.4,735.2,cs),
(491.6,256.8,l),
(442.4,720.8,ls),
(438,757.6,o),
(422.8,779.6,o),
(371.2,779.6,cs),
(332.8,779.6,o),
(319.6,762.4,o),
(307.2,736.4,cs),
(-14.8,79.2,ls),
(-40.4,24.4,o),
(1.6,-7.6,o),
(38,-7.6,cs)
);
},
{
closed = 1;
nodes = (
(8.4,7.6,o),
(-21.6,29.6,o),
(-1.2,72.8,cs),
(320.8,729.6,ls),
(332.4,754,o),
(340.8,764.4,o),
(371.2,764.4,cs),
(414,764.4,o),
(423.6,751.2,o),
(427.6,719.2,cs),
(478.8,235.6,ls),
(479.2,231.2,o),
(481.6,228.8,o),
(486,228,cs),
(487.2,228,ls),
(491.6,227.2,o),
(494.4,228.8,o),
(496.4,232.8,cs),
(737.6,728.8,ls),
(750,752.8,o),
(767.2,764.4,o),
(802,764.4,cs),
(836.4,764.4,o),
(840.8,752.4,o),
(844.4,719.2,cs),
(916.4,54,ls),
(920,26.8,o),
(900.8,7.6,o),
(870,7.6,cs),
(836,7.6,o),
(815.2,26.8,o),
(812.4,48.8,cs),
(766.4,528,ls),
(766,532.8,o),
(763.6,535.2,o),
(759.2,536,cs),
(757.6,536,ls),
(753.2,536.8,o),
(750.4,535.2,o),
(748.4,531.2,cs),
(511.2,40.4,ls),
(504.4,26.4,o),
(494.4,7.6,o),
(451.2,7.6,cs),
(419.2,7.6,o),
(403.2,24.4,o),
(400.4,48.8,cs),
(349.2,526.4,ls),
(348.8,530.8,o),
(346.4,533.2,o),
(342,534,cs),
(340.8,534,ls),
(336.4,534.8,o),
(333.6,533.2,o),
(331.6,529.2,cs),
(100.4,42,ls),
(88.4,17.2,o),
(58,7.6,o),
(38,7.6,cs)
);
}
);
vertWidth = 0;
width = 979;
}
);
metricLeft = "=M";
metricRight = "=M";
},
{
glyphname = N.ss01;
kernLeft = H_left;
kernRight = H_right;
layers = (
{
layerId = m01;
shapes = (
{
closed = 1;
nodes = (
(109,-7,o),
(111,18,o),
(113,32,cs),
(175,622,l),
(437,18,ls),
(444,2,o),
(459,-7,o),
(477,-7,cs),
(505,-7,o),
(509,9,o),
(512,29,cs),
(587,734,ls),
(590,759,o),
(583,780,o),
(555,780,cs),
(526,780,o),
(516,762,o),
(513,741,cs),
(452,168,l),
(199,751,ls),
(192,767,o),
(180,780,o),
(154,780,cs),
(124,780,o),
(116,762,o),
(114,741,cs),
(39,33,ls),
(36,11,o),
(50,-7,o),
(76,-7,cs)
);
},
{
closed = 1;
nodes = (
(59,8,o),
(52,16,o),
(53,31,cs),
(128,739,ls),
(130,757,o),
(134,765,o),
(154,765,cs),
(173,765,o),
(180,758,o),
(185,745,cs),
(446,142,ls),
(448,138,o),
(451,136,o),
(456,137,cs),
(457,137,ls),
(461,138,o),
(464,141,o),
(464,145,cs),
(527,739,ls),
(530,756,o),
(535,765,o),
(555,765,cs),
(572,765,o),
(574,756,o),
(573,736,cs),
(498,31,ls),
(495,13,o),
(493,8,o),
(477,8,cs),
(464,8,o),
(456,13,o),
(451,24,cs),
(180,648,ls),
(179,652,o),
(176,654,o),
(171,653,cs),
(170,653,ls),
(166,652,o),
(163,649,o),
(163,645,cs),
(99,34,ls),
(97,20,o),
(95,8,o),
(76,8,cs)
);
}
);
vertWidth = 0;
width = 629;
},
{
layerId = m002;
shapes = (
{
closed = 1;
nodes = (
(141.2,-7.6,o),
(166,18.8,o),
(169.6,49.2,cs),
(215.6,500.4,l),
(439.2,29.6,ls),
(450.4,6.4,o),
(472.4,-7.6,o),
(505.2,-7.6,cs),
(550.4,-7.6,o),
(563.2,20.4,o),
(565.6,47.2,cs),
(634.4,708.4,ls),
(638.8,750,o),
(616,783.6,o),
(571.2,783.6,cs),
(534.8,783.6,o),
(506,761.6,o),
(502.4,723.6,cs),
(457.2,289.2,l),
(242.8,741.2,ls),
(230.4,769.2,o),
(206,779.6,o),
(177.2,779.6,cs),
(136,779.6,o),
(108,761.2,o),
(104.4,723.6,cs),
(35.6,58.8,ls),
(31.2,21.2,o),
(58.8,-7.6,o),
(97.2,-7.6,cs)
);
},
{
closed = 1;
nodes = (
(66,7.6,o),
(46.8,27.6,o),
(50.4,57.2,cs),
(119.6,722.4,ls),
(122,751.6,o),
(141.2,764.4,o),
(177.2,764.4,cs),
(202.4,764.4,o),
(219.2,757.2,o),
(229.2,734.8,cs),
(452.4,264.8,ls),
(454.4,260.8,o),
(457.2,259.2,o),
(461.6,260,cs),
(463.2,260,ls),
(467.6,260.8,o),
(470,263.2,o),
(470.4,267.6,cs),
(517.6,722.4,ls),
(520,753.2,o),
(540.4,768.4,o),
(571.2,768.4,cs),
(607.2,768.4,o),
(623.2,745.2,o),
(619.6,709.6,cs),
(550.4,48.8,ls),
(548.8,24.8,o),
(540.4,7.6,o),
(505.2,7.6,cs),
(477.2,7.6,o),
(462,17.2,o),
(452.8,36.4,cs),
(220.4,525.2,ls),
(218.4,529.2,o),
(215.6,530.8,o),
(211.2,530,cs),
(210,530,ls),
(205.6,529.2,o),
(203.2,526.8,o),
(202.8,522.4,cs),
(154.4,50.8,ls),
(152,26.4,o),
(133.6,7.6,o),
(97.2,7.6,cs)
);
}
);
vertWidth = 0;
width = 672;
}
);
metricLeft = "=N";
metricRight = "=N";
},
{
glyphname = O.ss01;
kernLeft = O_left;
kernRight = O_right;
layers = (
{
layerId = m01;
shapes = (
{
closed = 1;
nodes = (
(416,-13,o),
(510,131,o),
(538,411,cs),
(560,621,o),
(474,786,o),
(330,786,cs),
(172,786,o),
(77,636,o),
(50,356,cs),
(27,146,o),
(115,-13,o),
(256,-13,cs)
);
},
{
closed = 1;
nodes = (
(124,2,o),
(43,151,o),
(64,354,cs),
(91,629,o),
(181,771,o),
(330,771,cs),
(463,771,o),
(544,618,o),
(524,413,cs),
(496,138,o),
(407,2,o),
(256,2,cs)
);
},
{
closed = 1;
nodes = (
(380,42,o),
(453,172,o),
(478,420,cs),
(496,592,o),
(433,731,o),
(330,731,cs),
(207,731,o),
(134,596,o),
(109,348,cs),
(91,174,o),
(154,42,o),
(257,42,cs)
);
},
{
closed = 1;
nodes = (
(165,57,o),
(107,178,o),
(123,346,cs),
(148,591,o),
(216,716,o),
(330,716,cs),
(422,716,o),
(480,589,o),
(464,422,cs),
(439,177,o),
(371,57,o),
(257,57,cs)
);
}
);
vertWidth = 0;
width = 590;
},
{
layerId = m002;
shapes = (
{
closed = 1;
nodes = (
(450.8,-13.6,o),
(568,152.4,o),
(594.4,401.2,cs),
(616.8,626.8,o),
(517.2,785.6,o),
(359.2,785.6,cs),
(187.2,785.6,o),
(70,620.4,o),
(43.6,371.6,cs),
(21.2,146,o),
(120.8,-13.6,o),
(279.2,-13.6,cs)
);
},
{
closed = 1;
nodes = (
(130,1.6,o),
(36.8,150.8,o),
(58.4,370.4,cs),
(84.4,614.4,o),
(196,770.4,o),
(359.2,770.4,cs),
(508,770.4,o),
(601.2,622,o),
(579.6,402.8,cs),
(553.6,158.8,o),
(442,1.6,o),
(279.2,1.6,cs)
);
},
{
closed = 1;
nodes = (
(389.2,93.6,o),
(460.4,218.8,o),
(476.4,401.2,cs),
(492.8,565.6,o),
(440.8,678.4,o),
(349.2,678.4,cs),
(248.8,678.4,o),
(177.6,553.2,o),
(161.6,371.6,cs),
(145.2,206.4,o),
(197.2,93.6,o),
(289.2,93.6,cs)
);
},
{
closed = 1;
nodes = (
(207.6,108.4,o),
(160.8,210.4,o),
(176.4,370.4,cs),
(192.4,547.6,o),
(258.4,663.6,o),
(349.2,663.6,cs),
(430.4,663.6,o),
(477.2,561.6,o),
(461.6,402.8,cs),
(445.6,224.4,o),
(379.6,108.4,o),
(289.2,108.4,cs)
);
}
);
vertWidth = 0;
width = 639;
}
);
metricLeft = "=O";
metricRight = "=O";
},
{
glyphname = P.ss01;
kernLeft = H_left;
layers = (
{
layerId = m01;
shapes = (
{
closed = 1;
nodes = (
(109,-7,o),
(111,22,o),
(113,33,c),
(146,342,l),
(362,346,o),
(534,400,o),
(550,560,cs),
(565,710,o),
(404,780,o),
(156,780,cs),
(127,780,o),
(116,764,o),
(114,741,cs),
(39,38,ls),
(36,16,o),
(50,-7,o),
(76,-7,cs)
);
},
{
closed = 1;
nodes = (
(59,8,o),
(52,21,o),
(53,36,cs),
(128,739,ls),
(130,757,o),
(136,765,o),
(156,765,cs),
(399,765,o),
(549,699,o),
(536,562,cs),
(520,411,o),
(356,360,o),
(139,356,cs),
(135,356,o),
(132,354,o),
(131,349,cs),
(99,35,ls),
(97,24,o),
(95,8,o),
(76,8,cs)
);
},
{
closed = 1;
nodes = (
(340,398,o),
(478,441,o),
(490,566,cs),
(501,667,o),
(379,722,o),
(179,726,cs),
(174,726,o),
(171,723,o),
(171,718,cs),
(137,403,ls),
(137,398,o),
(140,395,o),
(145,395,cs)
);
},
{
closed = 1;
nodes = (
(185,710,l),
(377,706,o),
(485,655,o),
(476,568,cs),
(464,455,o),
(341,415,o),
(153,411,c)
);
}
);
vertWidth = 0;
width = 585;
},
{
layerId = m002;
shapes = (
{
closed = 1;
nodes = (
(143.2,-7.6,o),
(165.2,16,o),
(167.6,45.2,cs),
(195.6,311.6,l),
(370,319.6,o),
(553.2,359.6,o),
(574.4,554,cs),
(592,720.8,o),
(419.2,779.6,o),
(166,779.6,cs),
(131.6,779.6,o),
(108,761.6,o),
(104.4,723.6,cs),
(34.4,58,ls),
(30,21.6,o),
(54.4,-7.6,o),
(99.2,-7.6,cs)
);
},
{
closed = 1;
nodes = (
(62.4,7.6,o),
(46,27.2,o),
(49.6,56,cs),
(119.6,722.4,ls),
(122,753.2,o),
(137.6,764.4,o),
(166,764.4,cs),
(415.6,764.4,o),
(576,710,o),
(559.6,556,cs),
(539.2,370.4,o),
(363.6,333.2,o),
(189.6,326.8,cs),
(184.8,326.4,o),
(182,324,o),
(181.6,319.6,cs),
(152.4,46.8,ls),
(150.8,23.2,o),
(135.6,7.6,o),
(99.2,7.6,cs)
);
},
{
closed = 1;
nodes = (
(324.4,427.6,o),
(444.8,462.4,o),
(455.6,560,cs),
(464.4,638.4,o),
(397.2,670.4,o),
(226,671.6,cs),
(220.8,671.6,o),
(218,669.2,o),
(217.6,664.4,cs),
(192.4,426,ls),
(192,421.2,o),
(194.8,418,o),
(200,418.4,cs)
);
},
{
closed = 1;
nodes = (
(231.6,656.4,l),
(393.6,654.8,o),
(448,627.6,o),
(440.4,562,cs),
(431.2,476.8,o),
(326.8,444,o),
(208.4,434,c)
);
}
);
vertWidth = 0;
width = 604;
}
);
metricLeft = "=P";
metricRight = "=P";
},
{
glyphname = Q.ss01;
kernLeft = O_left;
kernRight = O_right;
layers = (
{
layerId = m01;
shapes = (
{
closed = 1;
nodes = (
(508,-16,o),
(508,8,o),
(492,30,cs),
(446,93,l),
(493,163,o),
(525,271,o),
(538,411,cs),
(560,621,o),
(474,786,o),
(330,786,cs),
(172,786,o),
(77,636,o),
(50,356,cs),
(27,146,o),
(115,-13,o),
(256,-13,cs),
(310,-13,o),
(357,3,o),
(396,36,c),
(430,-12,ls),
(447,-33,o),
(470,-42,o),
(488,-30,cs)
);
},
{
closed = 1;
nodes = (
(469,-25,o),
(456,-20,o),
(442,-2,cs),
(403,52,ls),
(400,56,o),
(396,56,o),
(392,53,cs),
(354,19,o),
(310,2,o),
(256,2,cs),
(124,2,o),
(43,151,o),
(64,354,cs),
(91,629,o),
(181,771,o),
(330,771,cs),
(463,771,o),
(544,618,o),
(524,413,cs),
(510,271,o),
(478,166,o),
(431,98,cs),
(429,94,o),
(429,91,o),
(431,88,cs),
(480,22,ls),
(493,4,o),
(493,-9,o),
(480,-18,cs)
);
},
{
closed = 1;
nodes = (
(300,42,o),
(337,57,o),
(367,87,cs),
(370,91,o),
(370,94,o),
(368,98,cs),
(311,175,ls),
(297,195,o),
(295,210,o),
(305,217,cs),
(318,229,o),
(331,224,o),
(348,200,cs),
(394,137,ls),
(397,133,o),
(402,133,o),
(404,138,cs),
(441,200,o),
(466,295,o),
(478,420,cs),
(496,592,o),
(433,731,o),
(330,731,cs),
(207,731,o),
(134,596,o),
(109,348,cs),
(91,174,o),
(154,42,o),
(257,42,cs)
);
},
{
closed = 1;
nodes = (
(165,57,o),
(107,178,o),
(123,346,cs),
(148,591,o),
(216,716,o),
(330,716,cs),
(422,716,o),
(480,589,o),
(464,422,cs),
(452,306,o),
(430,218,o),
(398,157,c),
(360,208,ls),
(340,237,o),
(315,247,o),
(295,229,cs),
(278,216,o),
(282,190,o),
(299,167,cs),
(352,94,l),
(325,69,o),
(294,57,o),
(257,57,cs)
);
}
);
vertWidth = 0;
width = 590;
},
{
layerId = m002;
shapes = (
{
closed = 1;
nodes = (
(553.6,-1.2,o),
(557.2,34.4,o),
(535.2,66.4,cs),
(500.4,113.2,l),
(549.2,184.8,o),
(581.6,284,o),
(594.4,401.2,cs),
(616.8,626.8,o),
(517.2,785.6,o),
(359.2,785.6,cs),
(187.2,785.6,o),
(70,620.4,o),
(43.6,371.6,cs),
(21.2,146,o),
(120.8,-13.6,o),
(279.2,-13.6,cs),
(327.6,-13.6,o),
(372.8,-0.4,o),
(412,24.8,c),
(428.8,1.6,ls),
(454.8,-31.6,o),
(495.6,-49.2,o),
(526.8,-24.8,cs)
);
},
{
closed = 1;
nodes = (
(494,-31.2,o),
(463.6,-18.8,o),
(441.2,10.4,cs),
(420,39.2,ls),
(417.2,43.2,o),
(413.6,43.6,o),
(409.6,40.8,cs),
(370.8,14.8,o),
(328,1.6,o),
(279.2,1.6,cs),
(130,1.6,o),
(36.8,150.8,o),
(58.4,370.4,cs),
(84.4,614.4,o),
(196,770.4,o),
(359.2,770.4,cs),
(508,770.4,o),
(601.2,622,o),
(579.6,402.8,cs),
(566.8,284.8,o),
(534.4,188,o),
(485.2,118,cs),
(482.8,114.4,o),
(482.8,111.2,o),
(485.6,107.6,cs),
(522.8,57.6,ls),
(541.2,30.8,o),
(538.8,5.6,o),
(517.2,-13.2,cs)
);
},
{
closed = 1;
nodes = (
(312.4,93.6,o),
(335.2,101.2,o),
(355.2,113.6,cs),
(359.2,116.4,o),
(360,120.4,o),
(357.2,124.4,cs),
(314.8,182.4,ls),
(292,212,o),
(296,236,o),
(315.6,253.2,cs),
(338,271.2,o),
(370.8,266,o),
(394,234.4,cs),
(417.2,202.8,ls),
(420.8,198,o),
(425.2,198.4,o),
(427.6,203.6,cs),
(452.8,254.4,o),
(469.2,322.4,o),
(476.4,401.2,cs),
(492.8,565.6,o),
(440.8,678.4,o),
(349.2,678.4,cs),
(248.8,678.4,o),
(177.6,553.2,o),
(161.6,371.6,cs),
(145.2,206.4,o),
(197.2,93.6,o),
(289.2,93.6,cs)
);
},
{
closed = 1;
nodes = (
(207.6,108.4,o),
(160.8,210.4,o),
(176.4,370.4,cs),
(192.4,547.6,o),
(258.4,663.6,o),
(349.2,663.6,cs),
(430.4,663.6,o),
(477.2,561.6,o),
(461.6,402.8,cs),
(455.2,332,o),
(441.2,271.6,o),
(420.4,223.6,c),
(406,243.6,ls),
(378.8,280.8,o),
(334.8,287.6,o),
(306.4,264.8,cs),
(281.6,243.2,o),
(275.6,208.8,o),
(303.2,173.6,cs),
(340,122.4,l),
(324,113.2,o),
(307.2,108.4,o),
(289.2,108.4,cs)
);
}
);
vertWidth = 0;
width = 639;
}
);
metricLeft = "=Q";
metricRight = "=Q";
},
{
glyphname = R.ss01;
kernLeft = H_left;
layers = (
{
layerId = m01;
shapes = (
{
closed = 1;
nodes = (
(108,-7,o),
(110,18,o),
(113,36,cs),
(146,342,l),
(399,18,ls),
(412,1,o),
(430,-7,o),
(442,-7,cs),
(457,-7,o),
(473,3,o),
(475,16,cs),
(478,27,o),
(475,45,o),
(460,64,cs),
(225,361,l),
(403,385,o),
(529,468,o),
(538,576,cs),
(551,726,o),
(411,780,o),
(154,780,cs),
(123,780,o),
(115,762,o),
(113,741,cs),
(39,40,ls),
(36,17,o),
(47,-7,o),
(75,-7,cs)
);
},
{
closed = 1;
nodes = (
(58,8,o),
(52,20,o),
(53,38,cs),
(127,739,ls),
(129,757,o),
(133,765,o),
(154,765,cs),
(408,765,o),
(535,715,o),
(524,578,cs),
(515,474,o),
(389,394,o),
(207,374,cs),
(201,374,o),
(199,370,o),
(203,365,cs),
(448,54,ls),
(461,39,o),
(462,27,o),
(461,20,cs),
(459,13,o),
(452,8,o),
(442,8,cs),
(434,8,o),
(422,13,o),
(411,28,cs),
(143,370,ls),
(139,375,o),
(134,374,o),
(133,367,cs),
(99,38,l),
(96,20,o),
(94,8,o),
(75,8,cs)
);
},
{
closed = 1;
nodes = (
(329,413,o),
(469,490,o),
(479,582,cs),
(490,680,o),
(385,722,o),
(178,725,cs),
(173,726,o),
(170,723,o),
(169,718,cs),
(137,414,ls),
(137,409,o),
(140,406,o),
(145,407,cs)
);
},
{
closed = 1;
nodes = (
(184,710,l),
(383,707,o),
(474,668,o),
(465,584,cs),
(455,502,o),
(328,431,o),
(153,422,c)
);
}
);
vertWidth = 0;
width = 572;
},
{
layerId = m002;
shapes = (
{
closed = 1;
nodes = (
(138,-7.6,o),
(163.2,16.8,o),
(167.6,62.4,cs),
(192.4,292.8,l),
(406,22.4,ls),
(427.2,-5.2,o),
(452.8,-7.6,o),
(468,-7.6,cs),
(493.2,-7.6,o),
(518.4,5.2,o),
(529.6,27.6,cs),
(537.6,44.8,o),
(537.6,71.2,o),
(524,88.8,cs),
(325.6,333.2,l),
(478.4,365.2,o),
(587.6,440.4,o),
(596.4,566.4,cs),
(610,745.6,o),
(448.4,779.6,o),
(175.2,779.6,cs),
(134.8,779.6,o),
(108,762,o),
(104.4,723.6,cs),
(35.6,71.6,ls),
(31.2,30,o),
(47.2,-7.6,o),
(93.2,-7.6,cs)
);
},
{
closed = 1;
nodes = (
(58,7.6,o),
(46.8,33.2,o),
(50.4,70.4,cs),
(119.6,722.4,ls),
(122,752.8,o),
(140.4,764.4,o),
(175.2,764.4,cs),
(446.4,764.4,o),
(594,733.2,o),
(581.6,567.6,cs),
(572.4,446,o),
(465.2,374.4,o),
(308.4,345.2,cs),
(302.8,344,o),
(301.2,340,o),
(304.8,335.2,cs),
(512,79.2,ls),
(522.4,66.4,o),
(522.4,47.6,o),
(516.4,34.4,cs),
(507.6,16.4,o),
(489.2,7.6,o),
(468,7.6,cs),
(453.2,7.6,o),
(434.8,9.2,o),
(418,31.6,cs),
(189.6,320.8,ls),
(185.6,326,o),
(180.8,324.8,o),
(180,318,cs),
(152.4,63.6,ls),
(148.8,24.4,o),
(130.8,7.6,o),
(93.2,7.6,cs)
);
},
{
closed = 1;
nodes = (
(367.6,424.8,o),
(468.8,493.6,o),
(477.6,568,cs),
(488.4,661.6,o),
(417.6,675.6,o),
(226,676.4,cs),
(220.8,676.4,o),
(218,674,o),
(217.6,669.2,cs),
(190.4,419.2,ls),
(190,414,o),
(192.8,410.8,o),
(198,411.6,cs)
);
},
{
closed = 1;
nodes = (
(231.6,661.6,l),
(416.4,660.4,o),
(471.6,648,o),
(462.4,570,cs),
(455.2,504.4,o),
(364.8,441.6,o),
(206.4,427.2,c)
);
}
);
vertWidth = 0;
width = 625;
}
);
metricLeft = "=R";
metricRight = "=R";
},
{
glyphname = S.ss01;
layers = (
{
layerId = m01;
shapes = (
{
closed = 1;
nodes = (
(332,-13,o),
(437,53,o),
(451,191,cs),
(464,310,o),
(388,390,o),
(292,445,cs),
(195,500,o),
(138,544,o),
(144,607,cs),
(152,672,o),
(212,716,o),
(323,716,cs),
(380,716,o),
(414,688,o),
(429,647,cs),
(436,628,o),
(457,619,o),
(476,625,cs),
(497,631,o),
(501,656,o),
(493,679,cs),
(473,738,o),
(416,786,o),
(320,786,cs),
(164,786,o),
(83,705,o),
(73,614,cs),
(63,515,o),
(144,443,o),
(239,389,cs),
(343,330,o),
(385,278,o),
(379,202,cs),
(369,102,o),
(291,57,o),
(210,57,cs),
(137,57,o),
(98,85,o),
(89,120,cs),
(83,145,o),
(60,153,o),
(40,147,cs),
(18,141,o),
(14,116,o),
(20,95,cs),
(36,30,o),
(106,-13,o),
(191,-13,cs)
);
},
{
closed = 1;
nodes = (
(111,2,o),
(49,41,o),
(34,99,cs),
(30,116,o),
(32,129,o),
(44,133,cs),
(59,137,o),
(71,132,o),
(75,116,cs),
(85,76,o),
(132,42,o),
(210,42,cs),
(296,42,o),
(383,92,o),
(393,200,cs),
(401,283,o),
(353,342,o),
(247,403,cs),
(153,455,o),
(79,521,o),
(87,612,cs),
(97,698,o),
(171,771,o),
(320,771,cs),
(410,771,o),
(461,729,o),
(479,675,cs),
(485,655,o),
(483,643,o),
(472,639,cs),
(458,635,o),
(448,640,o),
(443,653,cs),
(426,698,o),
(386,731,o),
(323,731,cs),
(207,731,o),
(138,681,o),
(130,609,cs),
(122,537,o),
(186,488,o),
(284,431,cs),
(378,378,o),
(448,304,o),
(437,193,cs),
(423,62,o),
(327,2,o),
(191,2,cs)
);
}
);
vertWidth = 0;
width = 516;
},
{
layerId = m002;
shapes = (
{
closed = 1;
nodes = (
(420.4,-13.6,o),
(525.2,67.2,o),
(538.4,199.2,cs),
(554,342.4,o),
(460.8,422,o),
(378.8,467.6,cs),
(306.8,507.6,o),
(227.2,558.8,o),
(232.4,603.2,cs),
(236.8,644,o),
(280.8,664.4,o),
(352,664.4,cs),
(409.6,664.4,o),
(448.4,638.8,o),
(465.6,608.4,cs),
(484.4,572.8,o),
(523.2,562.8,o),
(558.4,580.4,cs),
(589.2,596.4,o),
(597.2,626.8,o),
(584,658,cs),
(547.6,738.4,o),
(480.8,785.6,o),
(369.2,785.6,cs),
(202.8,785.6,o),
(107.2,723.2,o),
(94.4,607.6,cs),
(82,488.8,o),
(217.2,404.8,o),
(294.4,362.4,cs),
(378,318,o),
(416.4,267.6,o),
(410.4,204.8,cs),
(404.8,149.2,o),
(352,115.6,o),
(266,115.6,cs),
(195.6,115.6,o),
(164,157.6,o),
(157.2,181.2,cs),
(144.8,223.6,o),
(104,237.2,o),
(71.6,227.2,cs),
(43.2,217.2,o),
(9.2,185.2,o),
(24.8,132,cs),
(43.6,67.2,o),
(130.4,-13.6,o),
(267.2,-13.6,cs)
);
},
{
closed = 1;
nodes = (
(136.8,1.6,o),
(56.8,76,o),
(39.2,136,cs),
(26.4,179.6,o),
(52,204.4,o),
(76.4,212.8,cs),
(102.8,221.2,o),
(132.8,211.2,o),
(142.8,176.8,cs),
(150.4,150,o),
(187.6,100.4,o),
(266,100.4,cs),
(356.8,100.4,o),
(419.2,140,o),
(425.6,203.2,cs),
(431.6,272.8,o),
(388.4,329.6,o),
(301.6,375.6,cs),
(224.8,417.6,o),
(98,496.8,o),
(109.6,606.4,cs),
(121.2,713.6,o),
(208.4,770.4,o),
(369.2,770.4,cs),
(475.6,770.4,o),
(536,728,o),
(570,652,cs),
(581.2,626.4,o),
(575.6,606,o),
(551.6,593.6,cs),
(522,578.8,o),
(494,586.4,o),
(478.4,615.6,cs),
(459.6,649.6,o),
(414.8,679.6,o),
(352,679.6,cs),
(276.4,679.6,o),
(223.2,654.8,o),
(217.6,604.8,cs),
(210.8,550.8,o),
(298.8,494.8,o),
(371.2,454.4,cs),
(451.6,410,o),
(538,336,o),
(523.6,200.8,cs),
(510.8,76,o),
(414.4,1.6,o),
(267.2,1.6,cs)
);
}
);
vertWidth = 0;
width = 579;
}
);
metricLeft = "=S";
metricRight = "=S";
},
{
glyphname = T.ss01;
layers = (
{
layerId = m01;
shapes = (
{
closed = 1;
nodes = (
(292,-7,o),
(300,19,o),
(302,39,cs),
(374,711,l),
(564,711,ls),
(594,711,o),
(600,729,o),
(600,745,cs),
(600,762,o),
(589,780,o),
(560,780,cs),
(116,780,ls),
(86,780,o),
(79,761,o),
(79,745,cs),
(79,727,o),
(91,711,o),
(120,711,cs),
(300,711,l),
(229,45,ls),
(226,18,o),
(234,-7,o),
(262,-7,cs)
);
},
{
closed = 1;
nodes = (
(246,8,o),
(242,21,o),
(243,43,cs),
(316,718,ls),
(316,723,o),
(314,726,o),
(308,726,cs),
(120,726,ls),
(100,726,o),
(94,734,o),
(94,745,cs),
(94,757,o),
(97,765,o),
(116,765,cs),
(560,765,ls),
(580,765,o),
(585,757,o),
(585,745,cs),
(585,732,o),
(582,726,o),
(564,726,cs),
(368,726,ls),
(363,726,o),
(360,723,o),
(360,719,cs),
(288,41,ls),
(286,23,o),
(281,8,o),
(262,8,cs)
);
}
);
vertWidth = 0;
width = 606;
},
{
layerId = m002;
shapes = (
{
closed = 1;
nodes = (
(305.6,-9.6,o),
(327.2,22.8,o),
(329.6,50.4,cs),
(391.6,657.6,l),
(556,657.6,ls),
(598.4,657.6,o),
(619.6,685.6,o),
(619.6,718,cs),
(619.6,752.4,o),
(586.8,779.6,o),
(548,779.6,cs),
(110,779.6,ls),
(70.4,779.6,o),
(49.6,751.6,o),
(48.4,718.4,cs),
(47.2,684.8,o),
(77.2,657.6,o),
(119.2,657.6,cs),
(256.8,657.6,l),
(195.6,58.8,ls),
(192,21.2,o),
(220.8,-9.6,o),
(261.2,-9.6,cs)
);
},
{
closed = 1;
nodes = (
(228.4,5.6,o),
(207.6,27.6,o),
(210.4,57.2,cs),
(272.4,664.4,ls),
(272.8,669.6,o),
(270.4,672.4,o),
(265.2,672.4,cs),
(119.2,672.4,ls),
(84,672.4,o),
(62.8,692,o),
(63.6,717.6,cs),
(64.4,745.2,o),
(78.8,764.4,o),
(110,764.4,cs),
(548,764.4,ls),
(580.4,764.4,o),
(604.4,744.4,o),
(604.4,718,cs),
(604.4,691.6,o),
(590.4,672.4,o),
(556,672.4,cs),
(385.6,672.4,ls),
(380.8,672.4,o),
(378,670,o),
(377.6,665.2,cs),
(314.4,51.6,ls),
(312.8,28.4,o),
(297.2,5.6,o),
(261.2,5.6,cs)
);
}
);
vertWidth = 0;
width = 596;
}
);
metricLeft = "=T";
metricRight = "=T";
},
{
glyphname = U.ss01;
kernLeft = H_left;
kernRight = H_right;
layers = (
{
layerId = m01;
shapes = (
{
closed = 1;
nodes = (
(404,-12,o),
(519,112,o),
(536,277,cs),
(584,740,l),
(588,762,o),
(573,780,o),
(548,780,cs),
(521,780,o),
(512,761,o),
(511,745,cs),
(461,279,ls),
(447,150,o),
(365,58,o),
(268,58,cs),
(180,58,o),
(124,145,o),
(138,266,cs),
(187,734,l),
(191,756,o),
(176,780,o),
(153,780,cs),
(129,780,o),
(115,760,o),
(113,738,cs),
(64,272,ls),
(47,110,o),
(134,-12,o),
(267,-12,cs)
);
},
{
closed = 1;
nodes = (
(143,3,o),
(63,115,o),
(78,270,cs),
(127,736,ls),
(129,753,o),
(138,765,o),
(153,765,cs),
(167,765,o),
(175,751,o),
(173,736,cs),
(124,268,ls),
(108,140,o),
(171,43,o),
(268,43,cs),
(372,43,o),
(461,143,o),
(475,277,cs),
(525,743,ls),
(526,756,o),
(531,765,o),
(548,765,cs),
(566,765,o),
(572,757,o),
(570,742,c),
(522,279,ls),
(505,119,o),
(397,3,o),
(267,3,cs)
);
}
);
vertWidth = 0;
width = 626;
},
{
layerId = m002;
shapes = (
{
closed = 1;
nodes = (
(430,-12,o),
(558,121,o),
(577,296,cs),
(623,717,ls),
(628,751,o),
(608,780,o),
(558,780,cs),
(515,780,o),
(494,751,o),
(491,721,cs),
(444,298,ls),
(432,188,o),
(363,110,o),
(279,110,cs),
(211,110,o),
(169,183,o),
(180,285,cs),
(227,718,ls),
(231,750,o),
(212,780,o),
(164,780,cs),
(118,780,o),
(95,751,o),
(93,721,cs),
(48,291,ls),
(29,118,o),
(127,-12,o),
(278,-12,cs)
);
},
{
closed = 1;
nodes = (
(136,3,o),
(45,123,o),
(62,289,cs),
(107,719,ls),
(109,744,o),
(126,765,o),
(164,765,cs),
(203,765,o),
(215,745,o),
(213,720,cs),
(166,287,ls),
(153,178,o),
(202,95,o),
(279,95,cs),
(370,95,o),
(446,181,o),
(458,296,cs),
(505,719,ls),
(508,744,o),
(524,765,o),
(558,765,cs),
(599,765,o),
(612,746,o),
(609,719,cs),
(563,298,ls),
(544,128,o),
(423,3,o),
(278,3,cs)
);
}
);
vertWidth = 0;
width = 660;
}
);
metricLeft = "=U";
metricRight = "=U";
},
{
glyphname = V.ss01;
kernLeft = V_left;
kernRight = V_right;
layers = (
{
layerId = m01;
shapes = (
{
closed = 1;
nodes = (
(234,-7,o),
(239,10,o),
(246,27,cs),
(527,731,ls),
(539,761,o),
(523,780,o),
(500,780,cs),
(473,780,o),
(462,768,o),
(453,746,cs),
(240,206,l),
(216,137,l),
(209,202,l),
(129,745,ls),
(128,758,o),
(121,780,o),
(89,780,cs),
(63,780,o),
(52,762,o),
(56,740,cs),
(164,32,ls),
(166,15,o),
(179,-7,o),
(205,-7,cs)
);
},
{
closed = 1;
nodes = (
(188,8,o),
(180,21,o),
(178,34,cs),
(70,742,ls),
(68,757,o),
(72,765,o),
(89,765,cs),
(110,765,o),
(114,754,o),
(115,743,cs),
(195,200,l),
(204,109,ls),
(204,105,o),
(207,102,o),
(211,101,c),
(212,101,l),
(217,101,o),
(220,103,o),
(221,107,cs),
(254,200,l),
(467,740,ls),
(474,759,o),
(480,765,o),
(500,765,cs),
(515,765,o),
(521,757,o),
(513,737,cs),
(232,33,ls),
(225,16,o),
(222,8,o),
(205,8,cs)
);
}
);
vertWidth = 0;
width = 512;
},
{
layerId = m002;
shapes = (
{
closed = 1;
nodes = (
(218,-7,o),
(239,15,o),
(250,40,cs),
(522,699,ls),
(540,746,o),
(510,780,o),
(467,780,cs),
(430,780,o),
(403,764,o),
(392,737,cs),
(245,364,l),
(206,254,l),
(191,362,l),
(141,726,ls),
(138,757,o),
(108,780,o),
(67,780,cs),
(28,780,o),
(2,757,o),
(9,717,cs),
(114,54,ls),
(119,21,o),
(140,-7,o),
(180,-7,cs)
);
},
{
closed = 1;
nodes = (
(148,8,o),
(133,28,o),
(128,56,cs),
(23,719,ls),
(18,750,o),
(35,765,o),
(67,765,cs),
(102,765,o),
(124,748,o),
(127,724,cs),
(177,360,l),
(194,228,ls),
(195,223,o),
(198,221,o),
(202,220,cs),
(204,220,ls),
(208,220,o),
(211,222,o),
(212,226,cs),
(259,358,l),
(406,731,ls),
(415,753,o),
(435,765,o),
(467,765,cs),
(502,765,o),
(522,741,o),
(508,705,cs),
(236,46,ls),
(227,24,o),
(211,8,o),
(180,8,cs)
);
}
);
vertWidth = 0;
width = 502;
}
);
metricLeft = "=V";
metricRight = "=V";
},
{
glyphname = W.ss01;
kernLeft = V_left;
kernRight = V_right;
layers = (
{
layerId = m01;
shapes = (
{
closed = 1;
nodes = (
(233,-7,o),
(241,15,o),
(246,28,cs),
(464,586,l),
(479,635,l),
(485,583,l),
(568,29,ls),
(570,12,o),
(582,-7,o),
(607,-7,cs),
(636,-7,o),
(641,10,o),
(648,27,cs),
(931,731,ls),
(944,762,o),
(923,780,o),
(902,780,cs),
(875,780,o),
(867,769,o),
(857,746,cs),
(651,226,l),
(620,132,l),
(610,229,l),
(533,745,ls),
(531,759,o),
(525,780,o),
(491,780,cs),
(468,780,o),
(455,761,o),
(449,747,cs),
(247,228,l),
(216,137,l),
(206,226,l),
(129,745,ls),
(127,758,o),
(121,780,o),
(89,780,cs),
(63,780,o),
(52,762,o),
(56,740,cs),
(164,32,ls),
(166,10,o),
(184,-7,o),
(204,-7,cs)
);
},
{
closed = 1;
nodes = (
(191,8,o),
(180,18,o),
(178,34,cs),
(70,742,ls),
(68,757,o),
(72,765,o),
(89,765,cs),
(109,765,o),
(113,754,o),
(115,743,cs),
(192,224,l),
(204,109,ls),
(204,105,o),
(207,102,o),
(211,101,c),
(212,101,l),
(217,101,o),
(220,103,o),
(221,107,cs),
(261,222,l),
(463,741,ls),
(468,753,o),
(476,765,o),
(491,765,cs),
(514,765,o),
(517,755,o),
(519,743,cs),
(596,227,l),
(608,102,ls),
(608,97,o),
(611,95,o),
(615,94,cs),
(616,94,ls),
(621,94,o),
(624,96,o),
(625,100,cs),
(665,220,l),
(871,740,ls),
(879,761,o),
(882,765,o),
(902,765,cs),
(915,765,o),
(926,757,o),
(917,737,cs),
(634,33,ls),
(627,16,o),
(624,8,o),
(607,8,cs),
(591,8,o),
(584,18,o),
(582,31,cs),
(499,585,l),
(491,667,ls),
(491,671,o),
(488,674,o),
(484,674,cs),
(483,674,ls),
(478,675,o),
(475,673,o),
(474,669,cs),
(450,590,l),
(232,34,ls),
(227,21,o),
(223,8,o),
(204,8,cs)
);
}
);
vertWidth = 0;
width = 916;
},
{
layerId = m002;
shapes = (
{
closed = 1;
nodes = (
(214,-7,o),
(237,12,o),
(253,48,cs),
(431,486,l),
(447,538,l),
(453,488,l),
(517,51,ls),
(521,13,o),
(549,-7,o),
(584,-7,cs),
(617,-7,o),
(640,12,o),
(655,48,cs),
(925,699,ls),
(939,733,o),
(917,780,o),
(867,780,cs),
(825,780,o),
(803,752,o),
(795,735,cs),
(636,331,l),
(605,240,l),
(595,329,l),
(537,726,ls),
(532,758,o),
(511,780,o),
(467,780,cs),
(424,780,o),
(406,757,o),
(396,730,cs),
(243,332,l),
(209,235,l),
(196,334,l),
(142,726,ls),
(139,757,o),
(110,780,o),
(69,780,cs),
(30,780,o),
(3,757,o),
(9,717,cs),
(114,51,ls),
(120,13,o),
(147,-7,o),
(182,-7,cs)
);
},
{
closed = 1;
nodes = (
(153,8,o),
(134,22,o),
(128,53,cs),
(23,719,ls),
(19,750,o),
(37,765,o),
(69,765,cs),
(104,765,o),
(125,748,o),
(128,724,cs),
(182,332,l),
(197,209,ls),
(197,204,o),
(200,202,o),
(204,201,cs),
(206,201,ls),
(210,201,o),
(213,202,o),
(214,207,cs),
(257,326,l),
(410,724,ls),
(419,749,o),
(431,765,o),
(467,765,cs),
(504,765,o),
(518,750,o),
(523,724,cs),
(581,327,l),
(593,212,ls),
(593,207,o),
(596,205,o),
(600,204,cs),
(601,204,ls),
(606,204,o),
(609,206,o),
(610,210,cs),
(650,325,l),
(809,729,ls),
(815,744,o),
(833,765,o),
(867,765,cs),
(907,765,o),
(922,731,o),
(911,705,cs),
(641,54,ls),
(628,22,o),
(611,8,o),
(584,8,cs),
(555,8,o),
(535,22,o),
(531,53,cs),
(467,490,l),
(459,568,ls),
(459,573,o),
(456,575,o),
(452,576,cs),
(451,576,ls),
(446,576,o),
(443,574,o),
(442,570,cs),
(417,492,l),
(239,54,ls),
(225,22,o),
(208,8,o),
(182,8,cs)
);
}
);
vertWidth = 0;
width = 906;
}
);
metricLeft = "=W";
metricRight = "=W";
},
{
glyphname = X.ss01;
layers = (
{
layerId = m01;
shapes = (
{
closed = 1;
nodes = (
(473,5,o),
(484,23,o),
(474,45,cs),
(324,381,l),
(544,719,ls),
(558,740,o),
(553,762,o),
(541,772,cs),
(525,784,o),
(496,783,o),
(482,761,cs),
(287,462,l),
(157,753,ls),
(145,779,o),
(115,785,o),
(99,778,cs),
(81,771,o),
(76,751,o),
(87,726,cs),
(235,394,l),
(9,49,ls),
(-2,32,o),
(2,11,o),
(16,1,c),
(32,-12,o),
(59,-10,o),
(72,11,cs),
(272,313,l),
(403,21,ls),
(414,-6,o),
(441,-12,o),
(460,-3,cs)
);
},
{
closed = 1;
nodes = (
(440,4,o),
(425,7,o),
(417,27,cs),
(279,335,ls),
(276,340,o),
(272,341,o),
(268,335,cs),
(60,19,ls),
(51,5,o),
(36,4,o),
(26,13,cs),
(16,19,o),
(14,29,o),
(21,41,cs),
(249,388,ls),
(252,391,o),
(252,394,o),
(250,398,cs),
(101,732,ls),
(92,752,o),
(94,760,o),
(105,764,cs),
(116,769,o),
(135,765,o),
(143,747,cs),
(280,440,ls),
(283,435,o),
(287,434,o),
(290,439,cs),
(494,753,ls),
(504,768,o),
(521,768,o),
(531,760,cs),
(539,754,o),
(542,742,o),
(532,727,cs),
(310,388,ls),
(308,384,o),
(307,381,o),
(309,377,cs),
(460,39,ls),
(467,24,o),
(462,16,o),
(452,11,cs)
);
}
);
vertWidth = 0;
width = 558;
},
{
layerId = m002;
shapes = (
{
closed = 1;
nodes = (
(506.4,15.2,o),
(518.4,42.4,o),
(504,75.2,cs),
(370.4,373.2,l),
(580.4,682.8,ls),
(601.6,714.8,o),
(590.8,744,o),
(566.8,764.8,cs),
(540.8,786,o),
(488.4,787.6,o),
(466.8,754,cs),
(310,507.6,l),
(204.8,743.2,ls),
(187.6,780.8,o),
(140.8,784.8,o),
(112.4,776,cs),
(77.6,762.8,o),
(62.4,734,o),
(81.2,692.8,cs),
(216.4,390.8,l),
(8.8,86,ls),
(-9.6,57.6,o),
(-3.6,30.4,o),
(21.2,9.2,cs),
(47.6,-12,o),
(102.4,-18.8,o),
(122.4,15.2,cs),
(276,256.4,l),
(377.2,30,ls),
(394.4,-8.8,o),
(449.6,-15.2,o),
(479.6,0.4,cs)
);
},
{
closed = 1;
nodes = (
(447.6,0.8,o),
(404,6,o),
(390.8,36,cs),
(282.4,277.6,ls),
(280,283.2,o),
(275.6,283.6,o),
(272,278.4,cs),
(109.6,22.8,ls),
(95.2,-2,o),
(53.2,3.2,o),
(30.8,20.8,cs),
(10.8,38,o),
(6.8,55.6,o),
(21.2,78,cs),
(230.4,384.4,ls),
(232.4,387.6,o),
(232.8,390.8,o),
(231.2,394.4,cs),
(94.8,699.2,ls),
(79.2,732.8,o),
(89.2,751.2,o),
(117.6,762,cs),
(141.6,769.2,o),
(178,766,o),
(191.2,736.8,cs),
(303.6,486.4,ls),
(306,480.8,o),
(310.4,480.4,o),
(314,485.6,cs),
(479.2,746,ls),
(496,771.6,o),
(536.4,770.4,o),
(557.2,753.2,cs),
(577.6,735.6,o),
(584.8,716,o),
(567.6,691.2,cs),
(356.8,379.6,ls),
(354.8,376.4,o),
(354.4,373.2,o),
(356,369.6,cs),
(490,68.8,ls),
(502,42.8,o),
(494,25.2,o),
(472.4,13.6,cs)
);
}
);
vertWidth = 0;
width = 605;
}
);
metricLeft = "=X";
metricRight = "=X";
},
{
glyphname = Y.ss01;
layers = (
{
layerId = m01;
shapes = (
{
closed = 1;
nodes = (
(109,-12,o),
(137,-12,o),
(150,10,cs),
(566,719,ls),
(580,741,o),
(573,763,o),
(552,776,cs),
(534,784,o),
(516,779,o),
(503,758,cs),
(293,399,l),
(130,751,ls),
(123,768,o),
(107,787,o),
(80,777,cs),
(53,768,o),
(51,747,o),
(60,725,cs),
(246,319,l),
(88,49,ls),
(77,32,o),
(78,11,o),
(93,1,c)
);
},
{
closed = 1;
nodes = (
(93,19,o),
(93,29,o),
(100,41,cs),
(259,313,ls),
(262,317,o),
(262,320,o),
(260,324,cs),
(74,731,ls),
(67,748,o),
(68,757,o),
(84,763,cs),
(102,769,o),
(111,759,o),
(116,745,cs),
(287,377,ls),
(289,371,o),
(294,371,o),
(297,376,cs),
(515,750,ls),
(525,766,o),
(533,768,o),
(546,762,cs),
(560,754,o),
(563,742,o),
(554,727,cs),
(136,18,ls),
(129,4,o),
(114,4,o),
(103,13,cs)
);
}
);
vertWidth = 0;
width = 554;
},
{
layerId = m002;
shapes = (
{
closed = 1;
nodes = (
(74,-16,o),
(129,-10,o),
(148,22,cs),
(542,683,ls),
(562,715,o),
(551,752,o),
(518,773,cs),
(489,787,o),
(445,779,o),
(424,745,cs),
(256,465,l),
(136,741,ls),
(122,771,o),
(86,789,o),
(46,774,c),
(3,762,o),
(-3,722,o),
(11,691,cs),
(178,334,l),
(32,93,ls),
(15,65,o),
(21,27,o),
(46,5,cs)
);
},
{
closed = 1;
nodes = (
(36,34,o),
(31,63,o),
(44,85,cs),
(191,329,ls),
(193,332,o),
(194,335,o),
(192,339,cs),
(25,697,ls),
(13,723,o),
(18,750,o),
(50,760,cs),
(85,773,o),
(111,759,o),
(122,735,cs),
(250,443,ls),
(252,437,o),
(257,437,o),
(260,442,cs),
(436,737,ls),
(454,765,o),
(488,771,o),
(510,759,cs),
(538,743,o),
(545,716,o),
(530,691,cs),
(136,30,ls),
(120,5,o),
(77,0,o),
(56,17,cs)
);
}
);
vertWidth = 0;
width = 529;
}
);
metricLeft = "=Y";
metricRight = "=Y";
},
{
glyphname = Z.ss01;
layers = (
{
layerId = m01;
shapes = (
{
closed = 1;
nodes = (
(451,-7,ls),
(481,-7,o),
(489,13,o),
(487,31,cs),
(486,47,o),
(477,63,o),
(448,63,cs),
(116,63,l),
(555,719,l),
(575,752,o),
(551,780,o),
(525,780,cs),
(127,780,ls),
(97,780,o),
(88,759,o),
(90,742,cs),
(91,724,o),
(103,711,o),
(131,711,cs),
(464,711,l),
(22,50,ls),
(4,24,o),
(21,-7,o),
(55,-7,cs)
);
},
{
closed = 1;
nodes = (
(32,8,o),
(23,25,o),
(34,42,cs),
(486,717,ls),
(490,722,o),
(487,726,o),
(481,726,cs),
(131,726,ls),
(110,726,o),
(105,731,o),
(104,744,cs),
(104,756,o),
(108,765,o),
(127,765,cs),
(525,765,ls),
(543,765,o),
(556,749,o),
(543,727,c),
(94,57,ls),
(90,52,o),
(93,48,o),
(99,48,cs),
(448,48,ls),
(468,48,o),
(472,42,o),
(473,29,cs),
(473,16,o),
(470,8,o),
(451,8,cs),
(55,8,ls)
);
}
);
vertWidth = 0;
width = 579;
},
{
layerId = m002;
shapes = (
{
closed = 1;
nodes = (
(446,-7,ls),
(488,-7,o),
(510,20,o),
(510,51,cs),
(510,87,o),
(482,115,o),
(442,115,cs),
(180,115,l),
(568,681,ls),
(596,722,o),
(576,780,o),
(518,780,cs),
(132,780,ls),
(92,780,o),
(67,752,o),
(70,717,cs),
(72,685,o),
(98,658,o),
(140,658,cs),
(396,658,l),
(8,87,ls),
(-17,50,o),
(5,-7,o),
(64,-7,cs)
);
},
{
closed = 1;
nodes = (
(17,8,o),
(0,49,o),
(20,79,cs),
(418,663,ls),
(421,668,o),
(419,672,o),
(413,672,cs),
(140,673,ls),
(105,673,o),
(86,692,o),
(84,719,cs),
(83,745,o),
(99,765,o),
(132,765,cs),
(518,765,ls),
(564,765,o),
(579,723,o),
(556,689,cs),
(158,109,ls),
(155,104,o),
(157,100,o),
(163,100,cs),
(442,100,ls),
(475,100,o),
(495,80,o),
(495,51,cs),
(495,26,o),
(480,8,o),
(446,8,cs),
(64,8,ls)
);
}
);
vertWidth = 0;
width = 593;
}
);
metricLeft = "=Z";
metricRight = "=Z";
},
{
glyphname = a;
kernLeft = o_left;
kernRight = n_right;
layers = (
{
layerId = m01;
shapes = (
{
closed = 1;
nodes = (
(206,-8,o),
(242,18,o),
(270,54,c),
(268,34,ls),
(265,7,o),
(283,-7,o),
(303,-7,cs),
(320,-7,o),
(340,7,o),
(342,32,cs),
(379,379,ls),
(383,408,o),
(364,424,o),
(345,424,cs),
(329,424,o),
(312,413,o),
(306,392,c),
(277,417,o),
(239,429,o),
(208,429,cs),
(116,429,o),
(37,350,o),
(22,210,cs),
(11,103,o),
(54,-8,o),
(164,-8,cs)
);
},
{
closed = 1;
nodes = (
(65,7,o),
(27,106,o),
(36,208,cs),
(51,343,o),
(123,414,o),
(208,414,cs),
(238,414,o),
(274,402,o),
(301,377,cs),
(304,374,o),
(307,373,o),
(313,375,cs),
(317,376,o),
(319,379,o),
(320,383,cs),
(322,401,o),
(332,409,o),
(345,409,cs),
(357,409,o),
(367,401,o),
(365,381,cs),
(328,34,ls),
(326,16,o),
(314,8,o),
(303,8,cs),
(290,8,o),
(281,14,o),
(282,32,cs),
(287,76,ls),
(287,81,o),
(285,84,o),
(280,86,cs),
(276,87,o),
(273,86,o),
(270,82,cs),
(244,38,o),
(207,6,o),
(164,7,cs)
);
},
{
closed = 1;
nodes = (
(233,46,o),
(286,168,o),
(307,268,c),
(313,321,ls),
(314,325,o),
(313,328,o),
(310,331,cs),
(284,361,o),
(239,374,o),
(206,374,cs),
(143,374,o),
(92,311,o),
(82,207,cs),
(72,127,o),
(97,46,o),
(165,46,cs)
);
},
{
closed = 1;
nodes = (
(109,61,o),
(88,129,o),
(96,205,cs),
(106,304,o),
(152,359,o),
(206,359,cs),
(236,359,o),
(274,348,o),
(298,322,c),
(293,270,l),
(272,173,o),
(222,61,o),
(165,61,cs)
);
},
{
closed = 1;
nodes = (
(129,459,l),
(176,441,l),
(175,450,l),
(197,450,o),
(216,449,o),
(235,445,cs),
(258,441,o),
(280,433,o),
(302,424,c),
(305,434,l),
(283,444,o),
(259,451,o),
(237,455,cs),
(217,459,o),
(199,459,o),
(179,460,c),
(179,469,l)
);
},
{
closed = 1;
nodes = (
(317,344,o),
(322,349,o),
(322,355,cs),
(322,361,o),
(317,366,o),
(311,366,cs),
(305,366,o),
(300,361,o),
(300,355,cs),
(300,349,o),
(305,344,o),
(311,344,cs)
);
}
);
vertWidth = 0;
width = 434;
},
{
layerId = m002;
shapes = (
{
closed = 1;
nodes = (
(189.2,-8.4,o),
(216.4,12.4,o),
(236.8,38.4,c),
(238,32,ls),
(243,5,o),
(269,-8,o),
(297.2,-7.6,cs),
(328.8,-7.6,o),
(364,12,o),
(367.6,50,cs),
(399.6,355.2,ls),
(404,401,o),
(369.2,423.6,o),
(334,423.6,cs),
(318,423.6,o),
(301.6,418.8,o),
(290.4,410,c),
(269,426,o),
(238,436,o),
(210,435.6,cs),
(112,435.6,o),
(30,353.2,o),
(15.6,213.6,cs),
(4.4,106.4,o),
(41.6,-8.4,o),
(150,-8.4,cs)
);
},
{
closed = 1;
nodes = (
(53.6,6.4,o),
(19.6,108.8,o),
(30.4,212.4,cs),
(44,345.6,o),
(119.2,420.4,o),
(210,420.4,cs),
(232.4,420.4,o),
(258.4,412.4,o),
(283.6,397.6,cs),
(286.8,395.6,o),
(289.2,394.8,o),
(292.8,395.2,cs),
(296,395.6,o),
(298,396.4,o),
(300,398.4,cs),
(308.4,405.2,o),
(320,408.4,o),
(334,408.4,cs),
(363.6,408.4,o),
(388,392,o),
(384.4,356.8,cs),
(352.4,52,ls),
(349,22,o),
(324,7.6,o),
(297.2,7.6,cs),
(269,8,o),
(248,21,o),
(251,52,cs),
(251.6,57.6,ls),
(252,61,o),
(250,62,o),
(244,64,cs),
(240,65,o),
(236.4,64.4,o),
(234,60.4,cs),
(214.4,30,o),
(189.6,6.4,o),
(150,6.4,cs)
);
},
{
closed = 1;
nodes = (
(212.8,98.4,o),
(246,142,o),
(271.2,269.6,cs),
(276,294,ls),
(277,298,o),
(275.6,301.2,o),
(272.4,304,cs),
(246.4,323.2,o),
(225.6,328.4,o),
(209.2,328.4,cs),
(166.8,328.4,o),
(138.8,283.6,o),
(130.4,202.8,cs),
(123.2,138.8,o),
(136.4,98.4,o),
(172,98.4,cs)
);
},
{
closed = 1;
nodes = (
(148.4,113.6,o),
(138.8,142,o),
(145.6,201.2,cs),
(153.2,277.6,o),
(176,313.6,o),
(209.2,313.6,cs),
(223.2,313.6,o),
(238.8,309.6,o),
(260.8,293.6,c),
(256.8,272.4,ls),
(234,149,o),
(204.4,113.6,o),
(172,113.6,cs)
);
},
{
closed = 1;
nodes = (
(122,463,l),
(170,446,l),
(170,455,l),
(191,457,o),
(211,455,o),
(232,453,cs),
(254,450,o),
(273,444,o),
(294,432,c),
(298,445,l),
(278,456,o),
(256,463,o),
(233,466,cs),
(214,469,o),
(192,470,o),
(171,469,c),
(171,478,l)
);
},
{
closed = 1;
nodes = (
(291,355,o),
(296,360,o),
(296,366,cs),
(296,372,o),
(291,377,o),
(285,377,cs),
(279,377,o),
(274,372,o),
(274,366,cs),
(274,360,o),
(279,355,o),
(285,355,cs)
);
}
);
vertWidth = 0;
width = 449;
}
);
unicode = 97;
},
{
glyphname = b;
kernLeft = h_left;
kernRight = o_right;
layers = (
{
layerId = m01;
shapes = (
{
closed = 1;
nodes = (
(281,-8,o),
(360,60,o),
(374,201,cs),
(386,309,o),
(342,429,o),
(233,429,cs),
(196,429,o),
(164,406,o),
(138,375,c),
(177,740,ls),
(180,764,o),
(161,780,o),
(140,780,cs),
(125,780,o),
(105,771,o),
(103,748,cs),
(27,33,ls),
(24,6,o),
(44,-7,o),
(64,-7,cs),
(77,-7,o),
(91,-1,o),
(98,13,c),
(126,-4,o),
(161,-8,o),
(189,-8,cs)
);
},
{
closed = 1;
nodes = (
(252,46,o),
(304,101,o),
(315,205,cs),
(324,284,o),
(300,374,o),
(232,374,cs),
(180,374,o),
(134,283,o),
(107,211,cs),
(106,208,o),
(106,206,o),
(105,202,cs),
(93,81,ls),
(92,76,o),
(93,74,o),
(97,71,cs),
(123,50,o),
(163,46,o),
(190,46,cs)
);
},
{
closed = 1;
nodes = (
(165,61,o),
(131,64,o),
(108,81,c),
(120,203,l),
(146,274,o),
(190,359,o),
(232,359,cs),
(287,359,o),
(308,282,o),
(301,207,cs),
(290,108,o),
(245,61,o),
(190,61,cs)
);
},
{
closed = 1;
nodes = (
(157,6,o),
(119,12,o),
(92,36,cs),
(89,39,o),
(87,39,o),
(87,33,cs),
(87,14,o),
(77,8,o),
(64,8,cs),
(49,8,o),
(40,14,o),
(41,31,cs),
(117,746,ls),
(119,760,o),
(129,765,o),
(140,765,cs),
(154,765,o),
(164,757,o),
(163,742,cs),
(121,355,ls),
(121,351,o),
(123,348,o),
(128,346,cs),
(132,345,o),
(135,346,o),
(138,350,cs),
(164,387,o),
(196,414,o),
(233,414,cs),
(331,414,o),
(370,306,o),
(360,203,cs),
(346,69,o),
(274,7,o),
(189,7,cs)
);
},
{
closed = 1;
nodes = (
(50,565,l),
(68,613,l),
(59,614,l),
(70,742,l),
(61,743,l),
(49,615,l),
(40,616,l)
);
},
{
closed = 1;
nodes = (
(146,729,o),
(151,734,o),
(151,740,cs),
(151,746,o),
(146,751,o),
(140,751,cs),
(134,751,o),
(129,746,o),
(129,740,cs),
(129,734,o),
(134,729,o),
(140,729,cs)
);
}
);
vertWidth = 0;
width = 436;
},
{
layerId = m002;
shapes = (
{
closed = 1;
nodes = (
(313.6,-8.4,o),
(399.2,70.8,o),
(414.4,210,cs),
(430,348.8,o),
(378.4,435.6,o),
(280,435.6,cs),
(248,435.6,o),
(218.8,423.2,o),
(194,400,c),
(227.6,708.4,ls),
(232,746,o),
(211.2,779.6,o),
(164,779.6,cs),
(124,779.6,o),
(97,751,o),
(93.6,716,cs),
(23.6,68.8,ls),
(19,22,o),
(41.2,-7.6,o),
(86,-7.6,cs),
(105.2,-7.6,o),
(122.8,0.8,o),
(135.6,15.2,c),
(160.4,0.8,o),
(190,-8.4,o),
(217.2,-8.4,cs)
);
},
{
closed = 1;
nodes = (
(259.2,94.4,o),
(287.2,140.4,o),
(296.4,220,cs),
(303.6,285.2,o),
(289.6,328.4,o),
(255.2,328.4,cs),
(227.6,328.4,o),
(187.6,280,o),
(158.4,192.8,cs),
(157.2,189.6,o),
(157,187,o),
(156.4,184,cs),
(150.8,132,ls),
(150,128,o),
(151.2,125.2,o),
(154,122.4,cs),
(178,96.8,o),
(197.2,94.4,o),
(219.2,94.4,cs)
);
},
{
closed = 1;
nodes = (
(198.4,109.6,o),
(185.6,110.8,o),
(166,131.6,c),
(171.2,185.6,l),
(200,270.4,o),
(235.6,313.6,o),
(255.2,313.6,cs),
(277.6,313.6,o),
(288.4,282,o),
(281.6,222,cs),
(272.8,146.4,o),
(250,109.6,o),
(219.2,109.6,cs)
);
},
{
closed = 1;
nodes = (
(190.4,6.4,o),
(162.4,16,o),
(138,31.2,cs),
(134,33.6,o),
(130.8,33.2,o),
(127.6,29.2,cs),
(116.8,14.8,o),
(102.8,7.6,o),
(86,7.6,cs),
(49.6,7.6,o),
(34,27,o),
(38.4,67.2,cs),
(108.4,714,ls),
(112,744,o),
(131.2,764.4,o),
(164,764.4,cs),
(201.6,764.4,o),
(216,741,o),
(212.4,709.6,cs),
(177.2,386.4,ls),
(177,382,o),
(178.4,379.2,o),
(182.4,377.2,cs),
(187.6,374.8,o),
(190.8,375.6,o),
(194,379.2,cs),
(218.8,406.8,o),
(246.8,420.4,o),
(280,420.4,cs),
(368.8,420.4,o),
(414.4,344.4,o),
(399.6,212,cs),
(384.8,78.8,o),
(307.2,6.4,o),
(217.2,6.4,cs)
);
},
{
closed = 1;
nodes = (
(39,548,l),
(59,595,l),
(50,596,l),
(64,725,l),
(51,726,l),
(37,598,l),
(29,599,l)
);
},
{
closed = 1;
nodes = (
(156,718,o),
(161,723,o),
(161,729,cs),
(161,735,o),
(156,740,o),
(150,740,cs),
(144,740,o),
(139,735,o),
(139,729,cs),
(139,723,o),
(144,718,o),
(150,718,cs)
);
}
);
vertWidth = 0;
width = 468;
}
);
unicode = 98;
},
{
glyphname = c;
kernLeft = o_left;
layers = (
{
layerId = m01;
shapes = (
{
closed = 1;
nodes = (
(233,-8,o),
(282,33,o),
(313,87,cs),
(320,103,o),
(316,125,o),
(298,135,cs),
(279,146,o),
(256,139,o),
(248,123,cs),
(227,82,o),
(198,61,o),
(170,61,cs),
(109,61,o),
(88,129,o),
(96,205,cs),
(106,304,o),
(152,359,o),
(206,359,cs),
(231,359,o),
(249,345,o),
(261,326,cs),
(268,314,o),
(287,306,o),
(307,316,cs),
(325,327,o),
(328,349,o),
(321,362,c),
(297,398,o),
(259,429,o),
(208,429,cs),
(116,429,o),
(37,350,o),
(22,210,cs),
(11,103,o),
(54,-8,o),
(164,-8,cs)
);
},
{
closed = 1;
nodes = (
(65,7,o),
(27,106,o),
(36,208,cs),
(51,343,o),
(123,414,o),
(208,414,cs),
(253,414,o),
(286,388,o),
(309,354,cs),
(312,348,o),
(310,336,o),
(299,330,cs),
(287,323,o),
(278,327,o),
(273,334,cs),
(260,355,o),
(237,374,o),
(206,374,cs),
(143,374,o),
(92,311,o),
(82,207,cs),
(72,127,o),
(97,46,o),
(170,46,cs),
(203,46,o),
(239,71,o),
(262,117,cs),
(266,126,o),
(278,129,o),
(290,121,cs),
(302,115,o),
(304,104,o),
(299,95,cs),
(270,43,o),
(227,7,o),
(164,7,cs)
);
},
{
closed = 1;
nodes = (
(294,339,o),
(299,344,o),
(299,350,cs),
(299,356,o),
(294,361,o),
(288,361,cs),
(282,361,o),
(277,356,o),
(277,350,cs),
(277,344,o),
(282,339,o),
(288,339,cs)
);
},
{
closed = 1;
nodes = (
(176,470,l),
(217,442,l),
(219,450,l),
(240,444,o),
(259,439,o),
(276,430,cs),
(296,420,o),
(315,403,o),
(332,388,c),
(338,396,l),
(322,413,o),
(301,429,o),
(281,440,cs),
(263,450,o),
(243,454,o),
(225,459,c),
(227,467,l)
);
}
);
vertWidth = 0;
width = 402;
},
{
layerId = m002;
shapes = (
{
closed = 1;
nodes = (
(255.6,-12.4,o),
(306.8,37.2,o),
(335.6,89.2,cs),
(350.4,116,o),
(341.2,151.6,o),
(312.4,166.8,cs),
(282,183.6,o),
(247.6,173.2,o),
(232.4,146.8,cs),
(215.2,114.8,o),
(201.2,103.6,o),
(187.2,103.6,cs),
(157.2,103.6,o),
(141.6,142,o),
(150.4,214,cs),
(158.4,292.8,o),
(184.4,320.4,o),
(219.2,320.4,cs),
(235.6,320.4,o),
(240.8,316.8,o),
(246,309.6,cs),
(261.6,286,o),
(293.2,274.4,o),
(322,291.6,cs),
(352.8,310,o),
(358.4,346.8,o),
(343.2,369.2,cs),
(319.2,407.6,o),
(275.6,435.6,o),
(220,435.6,cs),
(127.6,435.6,o),
(30.8,360.8,o),
(16.4,224,cs),
(0,79.2,o),
(64,-12.4,o),
(182,-12.4,cs)
);
},
{
closed = 1;
nodes = (
(72.8,2.4,o),
(15.6,84,o),
(31.6,222,cs),
(45.2,352,o),
(133.6,420.4,o),
(220,420.4,cs),
(270.8,420.4,o),
(308.4,396.4,o),
(330.8,360.8,cs),
(342,344.4,o),
(338,318.8,o),
(314,304.4,cs),
(292.4,291.2,o),
(270.8,299.2,o),
(258,318.4,cs),
(251.2,327.6,o),
(240.8,335.6,o),
(219.2,335.6,cs),
(176.8,335.6,o),
(144,300.4,o),
(135.6,216,cs),
(126,138.8,o),
(145.6,88.4,o),
(187.2,88.4,cs),
(207.2,88.4,o),
(226.8,104.8,o),
(245.6,139.2,cs),
(257.2,159.6,o),
(281.2,166.8,o),
(305.6,153.2,cs),
(327.6,142,o),
(334,117.2,o),
(322.4,96.8,cs),
(294.8,46.8,o),
(248.8,2.4,o),
(182,2.4,cs)
);
},
{
closed = 1;
nodes = (
(312,332,o),
(317,337,o),
(317,343,cs),
(317,349,o),
(312,354,o),
(306,354,cs),
(300,354,o),
(295,349,o),
(295,343,cs),
(295,337,o),
(300,332,o),
(306,332,cs)
);
},
{
closed = 1;
nodes = (
(200,473,l),
(241,445,l),
(243,453,l),
(264,447,o),
(283,442,o),
(300,433,cs),
(320,423,o),
(339,406,o),
(356,391,c),
(363,401,l),
(347,418,o),
(326,434,o),
(306,445,cs),
(288,455,o),
(268,459,o),
(250,464,c),
(252,472,l)
);
}
);
vertWidth = 0;
width = 406;
}
);
unicode = 99;
},
{
glyphname = d;
kernLeft = o_left;
layers = (
{
layerId = m01;
shapes = (
{
closed = 1;
nodes = (
(206,-8,o),
(242,18,o),
(270,54,c),
(268,34,ls),
(265,7,o),
(283,-7,o),
(303,-7,cs),
(320,-7,o),
(340,7,o),
(342,32,cs),
(415,736,ls),
(419,764,o),
(400,780,o),
(382,780,cs),
(364,780,o),
(344,767,o),
(342,741,cs),
(305,393,l),
(275,417,o),
(239,429,o),
(208,429,cs),
(116,429,o),
(37,350,o),
(22,210,cs),
(11,103,o),
(54,-8,o),
(164,-8,cs)
);
},
{
closed = 1;
nodes = (
(232,46,o),
(285,167,o),
(307,267,c),
(313,321,ls),
(314,325,o),
(313,328,o),
(310,331,cs),
(283,361,o),
(238,374,o),
(206,374,cs),
(143,374,o),
(92,311,o),
(82,207,cs),
(72,127,o),
(97,46,o),
(165,46,cs)
);
},
{
closed = 1;
nodes = (
(109,61,o),
(88,129,o),
(96,205,cs),
(106,304,o),
(152,359,o),
(206,359,cs),
(235,359,o),
(274,348,o),
(298,322,c),
(293,269,l),
(271,172,o),
(221,61,o),
(165,61,cs)
);
},
{
closed = 1;
nodes = (
(65,7,o),
(27,106,o),
(36,208,cs),
(51,343,o),
(123,414,o),
(208,414,cs),
(241,414,o),
(279,400,o),
(309,370,cs),
(313,365,o),
(317,366,o),
(318,373,cs),
(356,739,ls),
(358,758,o),
(369,765,o),
(382,765,cs),
(393,765,o),
(402,757,o),
(401,738,cs),
(328,34,ls),
(326,16,o),
(314,8,o),
(303,8,cs),
(290,8,o),
(281,14,o),
(282,32,cs),
(287,76,ls),
(287,81,o),
(285,84,o),
(280,86,cs),
(276,87,o),
(273,86,o),
(270,82,cs),
(244,38,o),
(207,6,o),
(164,7,cs)
);
},
{
closed = 1;
nodes = (
(118,452,l),
(167,437,l),
(167,446,l),
(189,448,o),
(206,449,o),
(225,447,cs),
(248,444,o),
(271,436,o),
(293,429,c),
(296,439,l),
(273,448,o),
(249,454,o),
(226,457,cs),
(206,459,o),
(188,457,o),
(168,456,c),
(168,465,l)
);
},
{
closed = 1;
nodes = (
(316,340,o),
(321,345,o),
(321,351,cs),
(321,357,o),
(316,362,o),
(310,362,cs),
(304,362,o),
(299,357,o),
(299,351,cs),
(299,345,o),
(304,340,o),
(310,340,cs)
);
}
);
vertWidth = 0;
width = 446;
},
{
layerId = m002;
shapes = (
{
closed = 1;
nodes = (
(189.6,-8.4,o),
(217.2,12.8,o),
(238,40,c),
(239,35,l),
(246,9,o),
(267,-8,o),
(299.2,-7.6,cs),
(338,-7.6,o),
(368,25,o),
(372.4,67.2,cs),
(441.6,708.4,ls),
(446,746,o),
(424,779.6,o),
(378,779.6,cs),
(338,779.6,o),
(311,751,o),
(307.6,715.6,cs),
(275.6,418.8,l),
(253.6,429.2,o),
(230,436,o),
(210,435.6,cs),
(114,434,o),
(30,353.2,o),
(15.6,213.6,cs),
(4.4,106.4,o),
(41.6,-8.4,o),
(150,-8.4,cs)
);
},
{
closed = 1;
nodes = (
(212.8,98.4,o),
(248,142,o),
(272.4,274.8,cs),
(276,294,ls),
(277,298,o),
(275.6,301.2,o),
(272.4,304,cs),
(246.4,323.2,o),
(225.6,328.4,o),
(209.2,328.4,cs),
(166.8,328.4,o),
(138.8,283.6,o),
(130.4,202.8,cs),
(123.2,138.8,o),
(136.4,98.4,o),
(172,98.4,cs)
);
},
{
closed = 1;
nodes = (
(148.4,113.6,o),
(138.8,142,o),
(145.6,201.2,cs),
(153.2,277.6,o),
(176,313.6,o),
(209.2,313.6,cs),
(223.2,313.6,o),
(238.8,309.6,o),
(260.8,293.6,c),
(257.6,277.2,ls),
(233,151,o),
(204.4,113.6,o),
(172,113.6,cs)
);
},
{
closed = 1;
nodes = (
(53.6,6.4,o),
(19.6,108.8,o),
(30.4,212.4,cs),
(44,345.6,o),
(119.2,420.4,o),
(210,420.4,cs),
(231.6,420.4,o),
(256,412.8,o),
(280,399.6,cs),
(285.2,396.8,o),
(289,399,o),
(289.6,404.4,cs),
(322.4,714.4,ls),
(326,744,o),
(345.2,764.4,o),
(378,764.4,cs),
(414.8,764.4,o),
(430,741,o),
(426.4,709.6,cs),
(357.6,68.8,ls),
(354,32,o),
(330.8,7.6,o),
(299.2,7.6,cs),
(268,7.6,o),
(252,23,o),
(251.6,53.2,cs),
(251.6,55.6,ls),
(252,60,o),
(250,63,o),
(245.2,64,cs),
(240,66,o),
(236.4,64.4,o),
(234,60.4,cs),
(214.4,30,o),
(189.6,6.4,o),
(150,6.4,cs)
);
},
{
closed = 1;
nodes = (
(86,440,l),
(138,439,l),
(136,448,l),
(156,454,o),
(173,457,o),
(192,458,cs),
(215,459,o),
(237,455,o),
(260,452,c),
(262,466,l),
(238,470,o),
(213,472,o),
(190,471,cs),
(170,470,o),
(152,465,o),
(132,461,c),
(130,469,l)
);
},
{
closed = 1;
nodes = (
(283,354,o),
(288,359,o),
(288,365,cs),
(288,371,o),
(283,376,o),
(277,376,cs),
(271,376,o),
(266,371,o),
(266,365,cs),
(266,359,o),
(271,354,o),
(277,354,cs)
);
}
);
vertWidth = 0;
width = 466;
}
);
unicode = 100;
},
{
glyphname = e;
kernLeft = o_left;
layers = (
{
layerId = m01;
shapes = (
{
closed = 1;
nodes = (
(233,-8,o),
(282,33,o),
(313,87,cs),
(320,103,o),
(316,125,o),
(298,135,cs),
(279,146,o),
(256,139,o),
(248,123,cs),
(227,82,o),
(198,61,o),
(170,61,cs),
(130,61,o),
(109,88,o),
(99,128,c),
(195,189,o),
(328,274,o),
(328,339,cs),
(328,387,o),
(268,429,o),
(208,429,cs),
(116,429,o),
(37,350,o),
(22,210,cs),
(11,103,o),
(54,-8,o),
(164,-8,cs)
);
},
{
closed = 1;
nodes = (
(65,7,o),
(27,106,o),
(36,208,cs),
(51,343,o),
(123,414,o),
(208,414,cs),
(263,414,o),
(313,378,o),
(313,339,cs),
(312,282,o),
(183,199,o),
(88,139,cs),
(84,137,o),
(83,134,o),
(84,129,cs),
(94,83,o),
(121,46,o),
(170,46,cs),
(203,46,o),
(239,71,o),
(262,117,cs),
(266,126,o),
(278,129,o),
(290,121,cs),
(302,115,o),
(304,104,o),
(299,95,cs),
(270,43,o),
(227,7,o),
(164,7,cs)
);
},
{
closed = 1;
nodes = (
(90,186,o),
(94,187,o),
(97,189,cs),
(169,234,o),
(268,304,o),
(268,334,cs),
(268,352,o),
(247,374,o),
(206,374,cs),
(124,374,o),
(83,269,o),
(80,198,cs),
(80,194,o),
(82,191,o),
(86,189,cs)
);
},
{
closed = 1;
nodes = (
(107,304,o),
(152,359,o),
(206,359,cs),
(240,359,o),
(253,345,o),
(253,334,cs),
(253,314,o),
(167,251,o),
(97,206,c)
);
},
{
closed = 1;
nodes = (
(278,219,l),
(231,200,l),
(236,193,l),
(222,180,o),
(205,168,o),
(188,157,cs),
(169,144,o),
(150,132,o),
(130,122,c),
(135,113,l),
(155,124,o),
(174,136,o),
(193,149,cs),
(210,160,o),
(228,170,o),
(242,185,c),
(249,178,l)
);
},
{
closed = 1;
nodes = (
(94,154,o),
(99,159,o),
(99,165,cs),
(99,171,o),
(94,176,o),
(88,176,cs),
(82,176,o),
(77,171,o),
(77,165,cs),
(77,159,o),
(82,154,o),
(88,154,cs)
);
}
);
vertWidth = 0;
width = 389;
},
{
layerId = m002;
shapes = (
{
closed = 1;
nodes = (
(248.4,-12.4,o),
(319,25,o),
(352.8,87.6,cs),
(369,117,o),
(363,148,o),
(334,165,cs),
(299,185,o),
(276,169,o),
(254,141,cs),
(238,120,o),
(212,106,o),
(186,106,cs),
(173,106,o),
(159.6,115.2,o),
(152,126,c),
(302.4,226.8,o),
(350.4,276,o),
(350.4,329.2,cs),
(350.4,388,o),
(307.2,435.6,o),
(230,435.6,cs),
(133.6,435.6,o),
(30,360.8,o),
(15.6,220.8,cs),
(4.4,113.2,o),
(50,-12.4,o),
(172,-12.4,cs)
);
},
{
closed = 1;
nodes = (
(61.2,2.4,o),
(19.6,116,o),
(30.4,219.2,cs),
(44,352,o),
(139.6,420.4,o),
(230,420.4,cs),
(299.6,420.4,o),
(335.6,381.2,o),
(335.6,329.2,cs),
(335.6,282.4,o),
(291.2,236.8,o),
(138.8,134.4,cs),
(134.4,131.6,o),
(133.2,128.4,o),
(135.6,124,cs),
(145.6,106.8,o),
(165,90,o),
(186,90,cs),
(216,90,o),
(246,110,o),
(268,135,cs),
(286,156,o),
(299,167,o),
(326,151,cs),
(350,138,o),
(352,118,o),
(339.2,94.4,cs),
(308,37,o),
(244,2.4,o),
(172,2.4,cs)
);
},
{
closed = 1;
nodes = (
(134.4,214,o),
(137.6,214,o),
(141.6,216.4,cs),
(205.6,258.8,o),
(241.6,293.2,o),
(241.6,312,cs),
(241.6,322.8,o),
(235.2,329.6,o),
(222,329.6,cs),
(171,330,o),
(132,274,o),
(125.6,226,cs),
(125,222,o),
(125,221,o),
(129.6,217.2,cs)
);
},
{
closed = 1;
nodes = (
(157.2,291.2,o),
(192.4,314.4,o),
(222,314.4,cs),
(226.4,314.4,o),
(226.4,314.4,o),
(226.4,312,cs),
(226.4,301.2,o),
(198.4,272.8,o),
(142.8,235.2,c)
);
},
{
closed = 1;
nodes = (
(329,233,l),
(282,213,l),
(288,205,l),
(274,193,o),
(258,180,o),
(241,168,cs),
(223,155,o),
(203,143,o),
(184,132,c),
(190,122,l),
(209,133,o),
(228,146,o),
(247,160,cs),
(263,171,o),
(280,183,o),
(294,197,c),
(302,191,l)
);
},
{
closed = 1;
nodes = (
(146,167,o),
(151,172,o),
(151,178,cs),
(151,184,o),
(146,189,o),
(140,189,cs),
(134,189,o),
(129,184,o),
(129,178,cs),
(129,172,o),
(134,167,o),
(140,167,cs)
);
}
);
vertWidth = 0;
width = 423;
}
);
unicode = 101;
},
{
glyphname = f;
layers = (
{
layerId = m01;
shapes = (
{
closed = 1;
nodes = (
(113,-7,o),
(121,16,o),
(122,31,cs),
(157,355,l),
(243,355,ls),
(273,354,o),
(280,373,o),
(280,390,cs),
(280,408,o),
(268,424,o),
(240,424,cs),
(164,424,l),
(184,614,ls),
(191,678,o),
(212,711,o),
(244,711,cs),
(270,711,o),
(288,701,o),
(299,681,cs),
(306,669,o),
(325,661,o),
(345,671,cs),
(362,683,o),
(367,704,o),
(359,717,cs),
(337,754,o),
(297,780,o),
(246,780,cs),
(175,780,o),
(121,727,o),
(111,627,cs),
(89,424,l),
(35,424,ls),
(2,424,o),
(-5,407,o),
(-5,390,cs),
(-5,371,o),
(7,354,o),
(35,355,cs),
(82,355,l),
(49,34,ls),
(47,16,o),
(60,-7,o),
(86,-7,cs)
);
},
{
closed = 1;
nodes = (
(69,8,o),
(62,20,o),
(63,32,cs),
(98,362,ls),
(98,367,o),
(96,370,o),
(90,370,cs),
(35,370,ls),
(16,370,o),
(10,378,o),
(10,390,cs),
(10,402,o),
(13,408,o),
(35,409,cs),
(96,408,ls),
(100,408,o),
(103,411,o),
(104,415,cs),
(125,625,ls),
(136,720,o),
(182,765,o),
(246,765,cs),
(292,765,o),
(325,743,o),
(347,709,cs),
(351,702,o),
(348,692,o),
(337,685,cs),
(325,678,o),
(316,682,o),
(311,689,cs),
(298,712,o),
(274,726,o),
(244,726,cs),
(203,726,o),
(177,684,o),
(170,616,cs),
(148,416,ls),
(148,411,o),
(150,408,o),
(156,408,cs),
(240,409,ls),
(259,408,o),
(265,402,o),
(265,390,cs),
(265,376,o),
(262,370,o),
(243,370,cs),
(150,370,ls),
(146,370,o),
(143,367,o),
(142,363,cs),
(108,33,ls),
(106,20,o),
(102,8,o),
(86,8,cs)
);
},
{
closed = 1;
nodes = (
(332,694,o),
(337,699,o),
(337,705,cs),
(337,711,o),
(332,716,o),
(326,716,cs),
(320,716,o),
(315,711,o),
(315,705,cs),
(315,699,o),
(320,694,o),
(326,694,cs)
);
},
{
closed = 1;
nodes = (
(214,825,l),
(255,797,l),
(257,805,l),
(278,799,o),
(297,794,o),
(314,785,cs),
(334,775,o),
(353,758,o),
(370,743,c),
(376,751,l),
(360,768,o),
(339,784,o),
(319,795,cs),
(301,805,o),
(281,809,o),
(263,814,c),
(265,822,l)
);
}
);
vertWidth = 0;
width = 303;
},
{
layerId = m002;
shapes = (
{
closed = 1;
nodes = (
(149.2,-8.4,o),
(169,27,o),
(171.6,55.2,cs),
(197.6,301.6,l),
(247.2,301.6,ls),
(287,302,o),
(311.6,324.8,o),
(311.6,362,cs),
(311.6,400.4,o),
(287,424,o),
(247.2,423.6,cs),
(210.4,423.6,l),
(227.6,586,ls),
(233,637,o),
(241.2,657.6,o),
(253.2,657.6,cs),
(268.8,657.6,o),
(275.2,655.6,o),
(283.6,642,cs),
(298,618.8,o),
(327.2,602,o),
(359.6,619.6,cs),
(387.6,637.2,o),
(404.8,676.8,o),
(385.2,708,cs),
(358.4,750.8,o),
(312.4,779.6,o),
(254,779.6,cs),
(172,779.6,o),
(106,713,o),
(94.4,604.8,cs),
(75.2,423.6,l),
(51.2,423.6,ls),
(9,424,o),
(-17.6,400.4,o),
(-17.6,362,cs),
(-17.6,324.4,o),
(9,302,o),
(51.2,301.6,cs),
(62.8,301.6,l),
(37.6,64.8,ls),
(34,29,o),
(63.2,-8.4,o),
(106,-8.4,cs)
);
},
{
closed = 1;
nodes = (
(71.6,6.4,o),
(49,34,o),
(52.4,63.2,cs),
(78.4,308.4,ls),
(79,314,o),
(76,316,o),
(71.2,316.4,cs),
(51.2,316.4,ls),
(16,316,o),
(-2.4,332.4,o),
(-2.4,362,cs),
(-2.4,392.4,o),
(16,408,o),
(51.2,408.4,cs),
(81.6,408.4,ls),
(86,408,o),
(89,411,o),
(89.6,415.6,cs),
(109.6,603.2,ls),
(121,706,o),
(179.2,764.4,o),
(254,764.4,cs),
(308,764.4,o),
(347.6,739.6,o),
(372.8,700,cs),
(387.6,676.4,o),
(375.2,647.2,o),
(352.4,632.4,cs),
(328,619.6,o),
(308.4,630.4,o),
(296.4,650,cs),
(284.8,668.8,o),
(271.6,672.4,o),
(253.2,672.4,cs),
(230,672.4,o),
(218,642,o),
(212.4,588,cs),
(194.4,416.4,ls),
(194,411,o),
(196,408,o),
(201.6,408.4,cs),
(247.2,408.4,ls),
(280,408,o),
(296.4,392.8,o),
(296.4,362,cs),
(296.4,332.4,o),
(280,316,o),
(247.2,316.4,cs),
(191.6,316.4,ls),
(187,316,o),
(184,314,o),
(183.6,309.2,cs),
(156.4,56.8,ls),
(154,32,o),
(139.6,6.4,o),
(106,6.4,cs)
);
},
{
closed = 1;
nodes = (
(353,680,o),
(358,685,o),
(358,691,cs),
(358,697,o),
(353,702,o),
(347,702,cs),
(341,702,o),
(336,697,o),
(336,691,cs),
(336,685,o),
(341,680,o),
(347,680,cs)
);
},
{
closed = 1;
nodes = (
(244,827,l),
(283,796,l),
(286,804,l),
(306,796,o),
(325,790,o),
(341,780,cs),
(360,768,o),
(378,750,o),
(394,734,c),
(402,743,l),
(387,761,o),
(367,779,o),
(348,791,cs),
(331,802,o),
(311,808,o),
(293,814,c),
(296,822,l)
);
}
);
vertWidth = 0;
width = 316;
}
);
unicode = 102;
},
{
glyphname = g;
kernLeft = o_left;
layers = (
{
layerId = m01;
shapes = (
{
closed = 1;
nodes = (
(235,-363,o),
(308,-280,o),
(323,-147,cs),
(379,379,ls),
(382,408,o),
(364,424,o),
(345,424,cs),
(329,424,o),
(312,413,o),
(306,392,c),
(277,417,o),
(239,429,o),
(208,429,cs),
(116,429,o),
(37,350,o),
(22,210,cs),
(11,103,o),
(54,-8,o),
(164,-8,cs),
(206,-8,o),
(242,18,o),
(269,54,c),
(249,-145,ls),
(239,-239,o),
(194,-294,o),
(132,-294,cs),
(99,-294,o),
(69,-283,o),
(50,-263,cs),
(38,-251,o),
(21,-249,o),
(8,-258,cs),
(-14,-272,o),
(-15,-294,o),
(3,-313,cs),
(33,-344,o),
(82,-363,o),
(130,-363,cs)
);
},
{
closed = 1;
nodes = (
(85,-348,o),
(41,-331,o),
(13,-303,cs),
(1,-289,o),
(1,-280,o),
(16,-270,cs),
(24,-265,o),
(32,-266,o),
(40,-273,cs),
(61,-296,o),
(96,-309,o),
(132,-309,cs),
(202,-309,o),
(253,-246,o),
(263,-147,cs),
(287,76,ls),
(287,81,o),
(285,84,o),
(281,85,cs),
(276,87,o),
(273,86,o),
(270,82,cs),
(244,38,o),
(207,6,o),
(164,7,cs),
(65,7,o),
(27,106,o),
(36,208,cs),
(51,343,o),
(123,414,o),
(208,414,cs),
(238,414,o),
(274,402,o),
(301,377,cs),
(304,374,o),
(307,373,o),
(313,375,cs),
(317,376,o),
(319,379,o),
(320,383,cs),
(322,401,o),
(332,409,o),
(345,409,cs),
(357,409,o),
(366,401,o),
(365,381,cs),
(309,-145,ls),
(294,-273,o),
(228,-348,o),
(130,-348,cs)
);
},
{
closed = 1;
nodes = (
(233,46,o),
(286,168,o),
(307,268,c),
(313,321,ls),
(313,325,o),
(313,328,o),
(310,331,cs),
(284,361,o),
(239,374,o),
(206,374,cs),
(143,374,o),
(92,311,o),
(82,207,cs),
(72,127,o),
(97,46,o),
(165,46,cs)
);
},
{
closed = 1;
nodes = (
(109,61,o),
(88,129,o),
(96,205,cs),
(106,304,o),
(152,359,o),
(206,359,cs),
(236,359,o),
(274,348,o),
(298,322,c),
(293,270,l),
(272,173,o),
(222,61,o),
(165,61,cs)
);
},
{
closed = 1;
nodes = (
(129,459,l),
(176,441,l),
(175,450,l),
(197,450,o),
(216,449,o),
(235,445,cs),
(258,441,o),
(280,433,o),
(302,424,c),
(305,434,l),
(283,444,o),
(259,451,o),
(237,455,cs),
(217,459,o),
(199,459,o),
(179,460,c),
(179,469,l)
);
},
{
closed = 1;
nodes = (
(317,344,o),
(322,349,o),
(322,355,cs),
(322,361,o),
(317,366,o),
(311,366,cs),
(305,366,o),
(300,361,o),
(300,355,cs),
(300,349,o),
(305,344,o),
(311,344,cs)
);
}
);
vertWidth = 0;
width = 433;
},
{
layerId = m002;
shapes = (
{
closed = 1;
nodes = (
(247.6,-363.6,o),
(334,-289.6,o),
(349.6,-144,cs),
(403.6,346.4,ls),
(408,390.8,o),
(375.2,423.6,o),
(339.2,423.6,cs),
(323.6,423.6,o),
(308,418.8,o),
(294.8,408.4,c),
(267.2,425.2,o),
(235.6,435.6,o),
(210,435.6,cs),
(112,435.6,o),
(30,353.2,o),
(15.6,213.6,cs),
(4.4,106.4,o),
(41.6,-8.4,o),
(150,-8.4,cs),
(187.2,-8.4,o),
(214,10.8,o),
(234.4,35.2,c),
(215.6,-134,ls),
(206.8,-215.6,o),
(182,-241.6,o),
(140,-241.6,cs),
(116.4,-241.6,o),
(94.4,-231.6,o),
(75.2,-211.6,cs),
(62,-198.4,o),
(37.6,-178.8,o),
(2,-201.6,cs),
(-28.4,-222,o),
(-38.8,-265.2,o),
(-10.8,-297.6,cs),
(14,-328.8,o),
(67.6,-363.6,o),
(133.2,-363.6,cs)
);
},
{
closed = 1;
nodes = (
(72.4,-348.4,o),
(24,-317.2,o),
(0.8,-288.4,cs),
(-22,-262,o),
(-14.4,-230.8,o),
(10,-214.4,cs),
(36.4,-197.2,o),
(52,-209.6,o),
(64.8,-222.4,cs),
(85.6,-244.4,o),
(113.2,-256.4,o),
(140,-256.4,cs),
(189.2,-256.4,o),
(221.2,-223.2,o),
(230.4,-136,cs),
(251.6,54.4,ls),
(252,59.2,o),
(250,62,o),
(246,63.6,cs),
(241,65,o),
(237.6,64.4,o),
(235.2,60.4,cs),
(214.4,30.4,o),
(189.2,6.4,o),
(150,6.4,cs),
(53.6,6.4,o),
(19.6,108.8,o),
(30.4,212.4,cs),
(44,345.6,o),
(119.2,420.4,o),
(210,420.4,cs),
(234.8,420.4,o),
(264,410.4,o),
(291.2,393.2,cs),
(293,392,o),
(295,391,o),
(297,391,cs),
(298,392,o),
(300,392,o),
(301.6,394,cs),
(315.6,405.2,o),
(326.4,408.4,o),
(339.2,408.4,cs),
(368,408.4,o),
(392,384.4,o),
(388.4,347.6,cs),
(334.4,-142,ls),
(320,-281.2,o),
(241.2,-348.4,o),
(133.2,-348.4,cs)
);
},
{
closed = 1;
nodes = (
(212.8,98.4,o),
(246.8,141.6,o),
(272.4,273.6,cs),
(276,294,ls),
(276.8,298,o),
(275.6,301.2,o),
(272.4,304,cs),
(246.4,323.2,o),
(225.6,328.4,o),
(209.2,328.4,cs),
(166.8,328.4,o),
(138.8,283.6,o),
(130.4,202.8,cs),
(123.2,138.8,o),
(136.4,98.4,o),
(172,98.4,cs)
);
},
{
closed = 1;
nodes = (
(148.4,113.6,o),
(138.8,142,o),
(145.6,201.2,cs),
(153.2,277.6,o),
(176,313.6,o),
(209.2,313.6,cs),
(223.2,313.6,o),
(238.8,309.6,o),
(260.8,293.6,c),
(257.6,276.4,ls),
(232.8,149.2,o),
(204.4,113.6,o),
(172,113.6,cs)
);
},
{
closed = 1;
nodes = (
(122,463,l),
(170,446,l),
(170,455,l),
(191,457,o),
(211,455,o),
(232,453,cs),
(254,450,o),
(273,444,o),
(294,432,c),
(298,445,l),
(278,456,o),
(256,463,o),
(233,466,cs),
(214,469,o),
(192,470,o),
(171,469,c),
(171,478,l)
);
},
{
closed = 1;
nodes = (
(291,355,o),
(296,360,o),
(296,366,cs),
(296,372,o),
(291,377,o),
(285,377,cs),
(279,377,o),
(274,372,o),
(274,366,cs),
(274,360,o),
(279,355,o),
(285,355,cs)
);
}
);
vertWidth = 0;
width = 454;
}
);
unicode = 103;
},
{
glyphname = h;
kernLeft = h_left;
kernRight = n_right;
layers = (
{
layerId = m01;
shapes = (
{
closed = 1;
nodes = (
(80,-7,o),
(98,2,o),
(101,26,c),
(118,182,l),
(179,308,o),
(217,355,o),
(257,355,cs),
(281,355,o),
(292,329,o),
(287,279,cs),
(259,38,ls),
(255,17,o),
(259,-7,o),
(292,-7,cs),
(331,-7,o),
(330,21,o),
(331,36,cs),
(361,277,ls),
(372,369,o),
(334,429,o),
(261,429,cs),
(213,429,o),
(172,398,o),
(136,347,c),
(177,739,ls),
(180,766,o),
(164,780,o),
(145,780,cs),
(126,780,o),
(106,767,o),
(103,741,cs),
(27,28,ls),
(24,5,o),
(43,-7,o),
(61,-7,cs)
);
},
{
closed = 1;
nodes = (
(48,8,o),
(40,14,o),
(41,26,cs),
(117,739,ls),
(120,758,o),
(131,765,o),
(145,765,cs),
(157,765,o),
(164,759,o),
(163,741,cs),
(118,324,ls),
(118,319,o),
(120,316,o),
(125,314,cs),
(129,313,o),
(133,314,o),
(135,318,cs),
(173,379,o),
(212,414,o),
(261,414,cs),
(325,414,o),
(356,364,o),
(347,279,cs),
(317,38,ls),
(314,21,o),
(316,8,o),
(292,8,cs),
(272,8,o),
(271,18,o),
(273,36,cs),
(301,277,ls),
(308,332,o),
(292,370,o),
(257,370,cs),
(209,370,o),
(167,318,o),
(106,190,cs),
(104,187,o),
(103,185,o),
(103,181,cs),
(87,28,ls),
(84,13,o),
(75,8,o),
(61,8,cs)
);
},
{
closed = 1;
nodes = (
(51,565,l),
(69,613,l),
(60,614,l),
(71,742,l),
(62,743,l),
(50,615,l),
(41,616,l)
);
},
{
closed = 1;
nodes = (
(147,729,o),
(152,734,o),
(152,740,cs),
(152,746,o),
(147,751,o),
(141,751,cs),
(135,751,o),
(130,746,o),
(130,740,cs),
(130,734,o),
(135,729,o),
(141,729,cs)
);
}
);
vertWidth = 0;
width = 426;
},
{
layerId = m002;
shapes = (
{
closed = 1;
nodes = (
(138.8,-7.6,o),
(150.4,27.2,o),
(152.4,52.4,cs),
(171.2,212.4,l),
(222.8,291.6,o),
(262,313.6,o),
(274,313.6,cs),
(281.6,313.6,o),
(284.4,306,o),
(282.4,279.6,cs),
(256.4,62.8,ls),
(252.4,27.2,o),
(267.2,-7.6,o),
(318,-7.6,cs),
(365.2,-7.6,o),
(381.2,26.4,o),
(385.6,54,cs),
(412.4,271.2,ls),
(426,370.8,o),
(382,435.6,o),
(307.2,435.6,cs),
(268,435.6,o),
(228,414.4,o),
(189.2,373.6,c),
(228.4,714,ls),
(232.8,753.2,o),
(212.8,779.6,o),
(170,779.6,cs),
(130,779.6,o),
(100.8,762.4,o),
(97.6,722.8,cs),
(22.4,62.8,ls),
(18,26.8,o),
(34.4,-7.6,o),
(83.2,-7.6,cs)
);
},
{
closed = 1;
nodes = (
(44.8,7.6,o),
(33.6,30.4,o),
(37.6,61.2,cs),
(112.4,721.2,ls),
(115.2,752.4,o),
(135.2,764.4,o),
(170,764.4,cs),
(204.4,764.4,o),
(217.2,748,o),
(213.6,716,cs),
(172.4,358.4,ls),
(172,354,o),
(173.6,351.2,o),
(177.6,349.2,cs),
(182.8,346.8,o),
(186,347.6,o),
(189.2,351.2,cs),
(229.6,398,o),
(268.4,420.4,o),
(307.2,420.4,cs),
(373.2,420.4,o),
(410,366,o),
(397.6,272.8,cs),
(370.4,56,ls),
(366.8,31.2,o),
(355.2,7.6,o),
(318,7.6,cs),
(278,7.6,o),
(267.6,30,o),
(271.6,61.2,cs),
(297.6,278.4,l),
(299.6,309.2,o),
(293.2,328.4,o),
(274,328.4,cs),
(257.2,328.4,o),
(213.2,304,o),
(159.6,222,cs),
(157.6,218.8,o),
(156.8,216.4,o),
(156.4,212.8,cs),
(137.6,53.6,ls),
(135.6,30.4,o),
(127.6,7.6,o),
(83.2,7.6,cs)
);
},
{
closed = 1;
nodes = (
(39,548,l),
(59,595,l),
(50,596,l),
(64,725,l),
(51,726,l),
(37,598,l),
(29,599,l)
);
},
{
closed = 1;
nodes = (
(156,718,o),
(161,723,o),
(161,729,cs),
(161,735,o),
(156,740,o),
(150,740,cs),
(144,740,o),
(139,735,o),
(139,729,cs),
(139,723,o),
(144,718,o),
(150,718,cs)
);
}
);
vertWidth = 0;
width = 472;
}
);
unicode = 104;
},
{
glyphname = i;
layers = (
{
layerId = m01;
shapes = (
{
closed = 1;
nodes = (
(106,-7,o),
(126,7,o),
(128,32,cs),
(165,379,ls),
(168,408,o),
(150,424,o),
(132,424,cs),
(113,424,o),
(93,410,o),
(91,385,cs),
(55,34,ls),
(52,7,o),
(69,-7,o),
(89,-7,cs)
);
},
{
closed = 1;
nodes = (
(76,8,o),
(68,14,o),
(69,32,cs),
(105,383,ls),
(107,401,o),
(118,409,o),
(132,409,cs),
(143,409,o),
(153,401,o),
(151,381,cs),
(114,34,ls),
(112,16,o),
(101,8,o),
(89,8,cs)
);
},
{
closed = 1;
nodes = (
(171,501,o),
(195,526,o),
(195,555,cs),
(195,585,o),
(170,608,o),
(142,608,cs),
(113,608,o),
(89,584,o),
(89,555,cs),
(89,525,o),
(115,501,o),
(142,501,cs)
);
},
{
closed = 1;
nodes = (
(122,516,o),
(104,532,o),
(104,555,cs),
(104,577,o),
(120,593,o),
(142,593,cs),
(163,593,o),
(180,578,o),
(180,555,cs),
(180,533,o),
(164,516,o),
(142,516,cs)
);
},
{
closed = 1;
nodes = (
(39,209,l),
(57,257,l),
(48,258,l),
(59,386,l),
(50,387,l),
(38,259,l),
(29,260,l)
);
},
{
closed = 1;
nodes = (
(135,373,o),
(140,378,o),
(140,384,cs),
(140,390,o),
(135,395,o),
(129,395,cs),
(123,395,o),
(118,390,o),
(118,384,cs),
(118,378,o),
(123,373,o),
(129,373,cs)
);
}
);
vertWidth = 0;
width = 232;
},
{
layerId = m002;
shapes = (
{
closed = 1;
nodes = (
(118,-7.6,o),
(150,13,o),
(153.6,50.4,cs),
(185.6,354.4,ls),
(190,398,o),
(157.6,423.6,o),
(124,423.6,cs),
(91.2,423.6,o),
(58,406,o),
(54.4,366.8,cs),
(22.4,57.6,ls),
(18,14,o),
(49.6,-7.6,o),
(86,-7.6,cs)
);
},
{
closed = 1;
nodes = (
(55.2,7.6,o),
(34,22,o),
(37.6,56.4,cs),
(69.6,365.2,ls),
(73,395,o),
(96,408.4,o),
(124,408.4,cs),
(151.6,408.4,o),
(174,391,o),
(170.4,355.6,cs),
(138.4,51.6,ls),
(135,22,o),
(112.8,7.6,o),
(86,7.6,cs)
);
},
{
closed = 1;
nodes = (
(183.6,499.6,o),
(214.4,538.4,o),
(214.4,574,cs),
(214.4,608.8,o),
(183.6,645.6,o),
(141.2,645.6,cs),
(102,645.6,o),
(68.4,611.2,o),
(68.4,573.2,cs),
(68.4,532.8,o),
(102,499.6,o),
(141.2,499.6,cs)
);
},
{
closed = 1;
nodes = (
(109.2,514.4,o),
(83.6,540,o),
(83.6,573.2,cs),
(83.6,604,o),
(109.2,630.4,o),
(141.2,630.4,cs),
(175.6,630.4,o),
(199.6,602.4,o),
(199.6,574,cs),
(199.6,544.8,o),
(175.2,514.4,o),
(141.2,514.4,cs)
);
},
{
closed = 1;
nodes = (
(-1,194,l),
(19,241,l),
(10,242,l),
(24,371,l),
(11,372,l),
(-3,244,l),
(-11,245,l)
);
},
{
closed = 1;
nodes = (
(116,364,o),
(121,369,o),
(121,375,cs),
(121,381,o),
(116,386,o),
(110,386,cs),
(104,386,o),
(99,381,o),
(99,375,cs),
(99,369,o),
(104,364,o),
(110,364,cs)
);
}
);
vertWidth = 0;
width = 248;
}
);
unicode = 105;
},
{
glyphname = j;
layers = (
{
layerId = m01;
shapes = (
{
closed = 1;
nodes = (
(-3,-362,o),
(71,-278,o),
(84,-146,cs),
(140,379,ls),
(143,408,o),
(125,424,o),
(107,424,cs),
(88,424,o),
(69,410,o),
(66,385,cs),
(11,-144,ls),
(0,-238,o),
(-45,-293,o),
(-107,-293,cs),
(-139,-293,o),
(-170,-281,o),
(-189,-262,cs),
(-200,-251,o),
(-218,-246,o),
(-231,-257,c),
(-253,-270,o),
(-254,-293,o),
(-236,-312,cs),
(-206,-343,o),
(-157,-362,o),
(-108,-362,cs)
);
},
{
closed = 1;
nodes = (
(-154,-347,o),
(-198,-330,o),
(-226,-302,cs),
(-238,-288,o),
(-238,-278,o),
(-223,-269,cs),
(-215,-263,o),
(-207,-265,o),
(-199,-272,cs),
(-178,-294,o),
(-142,-308,o),
(-107,-308,cs),
(-37,-308,o),
(14,-245,o),
(25,-146,cs),
(80,383,ls),
(83,401,o),
(93,409,o),
(107,409,cs),
(118,409,o),
(127,401,o),
(126,381,cs),
(70,-144,ls),
(57,-271,o),
(-10,-347,o),
(-108,-347,cs)
);
},
{
closed = 1;
nodes = (
(146,501,o),
(170,526,o),
(170,555,cs),
(170,585,o),
(145,608,o),
(117,608,cs),
(88,608,o),
(64,584,o),
(64,555,cs),
(64,525,o),
(90,501,o),
(117,501,cs)
);
},
{
closed = 1;
nodes = (
(97,516,o),
(79,532,o),
(79,555,cs),
(79,577,o),
(95,593,o),
(117,593,cs),
(138,593,o),
(155,578,o),
(155,555,cs),
(155,533,o),
(139,516,o),
(117,516,cs)
);
},
{
closed = 1;
nodes = (
(14,209,l),
(32,257,l),
(23,258,l),
(34,386,l),
(25,387,l),
(13,259,l),
(4,260,l)
);
},
{
closed = 1;
nodes = (
(110,373,o),
(115,378,o),
(115,384,cs),
(115,390,o),
(110,395,o),
(104,395,cs),
(98,395,o),
(93,390,o),
(93,384,cs),
(93,378,o),
(98,373,o),
(104,373,cs)
);
}
);
vertWidth = 0;
width = 207;
},
{
layerId = m002;
shapes = (
{
closed = 1;
nodes = (
(32.8,-363.6,o),
(116,-289.6,o),
(132.4,-144,cs),
(185.6,354,ls),
(191.2,398.4,o),
(157.6,423.6,o),
(124,423.6,cs),
(91.2,423.6,o),
(58,405.6,o),
(54.4,366.8,cs),
(0.4,-134.4,ls),
(-7.2,-215.6,o),
(-33.2,-241.6,o),
(-74.8,-241.6,cs),
(-98.4,-241.6,o),
(-120.8,-231.6,o),
(-139.6,-211.6,cs),
(-153.2,-198.4,o),
(-177.2,-178.8,o),
(-213.2,-201.6,cs),
(-243.6,-222,o),
(-254,-265.2,o),
(-225.6,-297.6,cs),
(-200.8,-328.8,o),
(-147.6,-363.6,o),
(-82,-363.6,cs)
);
},
{
closed = 1;
nodes = (
(-142.8,-348.4,o),
(-190.8,-317.2,o),
(-214.4,-288.4,cs),
(-236.8,-262,o),
(-229.2,-230.8,o),
(-204.8,-214.4,cs),
(-178.4,-197.2,o),
(-163.2,-209.6,o),
(-150.4,-222.4,cs),
(-129.2,-244.4,o),
(-101.6,-256.4,o),
(-74.8,-256.4,cs),
(-26,-256.4,o),
(7.2,-223.2,o),
(15.6,-135.6,cs),
(69.6,365.2,ls),
(72,395.2,o),
(96,408.4,o),
(124,408.4,cs),
(151.6,408.4,o),
(175.2,390.8,o),
(170.4,356,cs),
(117.6,-142,ls),
(102,-281.2,o),
(26,-348.4,o),
(-82,-348.4,cs)
);
},
{
closed = 1;
nodes = (
(183.6,499.6,o),
(214.4,538.4,o),
(214.4,574,cs),
(214.4,608.8,o),
(183.6,645.6,o),
(141.2,645.6,cs),
(102,645.6,o),
(68.4,611.2,o),
(68.4,573.2,cs),
(68.4,532.8,o),
(102,499.6,o),
(141.2,499.6,cs)
);
},
{
closed = 1;
nodes = (
(109.2,514.4,o),
(83.6,540,o),
(83.6,573.2,cs),
(83.6,604,o),
(109.2,630.4,o),
(141.2,630.4,cs),
(175.6,630.4,o),
(199.6,602.4,o),
(199.6,574,cs),
(199.6,544.8,o),
(175.2,514.4,o),
(141.2,514.4,cs)
);
},
{
closed = 1;
nodes = (
(-1,194,l),
(19,241,l),
(10,242,l),
(24,371,l),
(11,372,l),
(-3,244,l),
(-11,245,l)
);
},
{
closed = 1;
nodes = (
(116,364,o),
(121,369,o),
(121,375,cs),
(121,381,o),
(116,386,o),
(110,386,cs),
(104,386,o),
(99,381,o),
(99,375,cs),
(99,369,o),
(104,364,o),
(110,364,cs)
);
}
);
vertWidth = 0;
width = 248;
}
);
unicode = 106;
},
{
glyphname = k;
kernLeft = h_left;
layers = (
{
layerId = m01;
shapes = (
{
closed = 1;
nodes = (
(82,-7,o),
(98,3,o),
(101,30,cs),
(118,177,l),
(265,18,ls),
(275,6,o),
(289,-7,o),
(308,-7,cs),
(322,-7,o),
(337,3,o),
(341,20,cs),
(343,30,o),
(343,43,o),
(329,56,cs),
(163,236,l),
(323,355,ls),
(340,367,o),
(347,381,o),
(348,393,cs),
(349,411,o),
(335,424,o),
(316,423,cs),
(303,425,o),
(289,417,o),
(274,406,cs),
(130,298,l),
(177,737,ls),
(180,768,o),
(162,780,o),
(140,780,cs),
(117,780,o),
(106,763,o),
(103,740,cs),
(27,32,ls),
(24,8,o),
(41,-7,o),
(60,-7,cs)
);
},
{
closed = 1;
nodes = (
(48,8,o),
(40,15,o),
(41,30,cs),
(117,738,ls),
(120,756,o),
(126,765,o),
(140,765,cs),
(157,765,o),
(164,759,o),
(163,739,cs),
(113,278,ls),
(112,272,o),
(117,269,o),
(122,273,cs),
(284,394,ls),
(297,405,o),
(306,409,o),
(316,409,cs),
(328,409,o),
(334,404,o),
(334,393,cs),
(333,385,o),
(328,377,o),
(315,367,cs),
(147,243,ls),
(143,240,o),
(143,236,o),
(146,232,cs),
(319,46,ls),
(328,37,o),
(328,30,o),
(327,22,cs),
(324,13,o),
(317,8,o),
(308,8,cs),
(295,8,o),
(287,16,o),
(277,28,cs),
(114,202,ls),
(110,207,o),
(106,206,o),
(105,199,cs),
(87,32,ls),
(84,12,o),
(77,8,o),
(60,8,cs)
);
},
{
closed = 1;
nodes = (
(50,565,l),
(68,613,l),
(59,614,l),
(70,742,l),
(61,743,l),
(49,615,l),
(40,616,l)
);
},
{
closed = 1;
nodes = (
(146,729,o),
(151,734,o),
(151,740,cs),
(151,746,o),
(146,751,o),
(140,751,cs),
(134,751,o),
(129,746,o),
(129,740,cs),
(129,734,o),
(134,729,o),
(140,729,cs)
);
}
);
vertWidth = 0;
width = 421;
},
{
layerId = m002;
shapes = (
{
closed = 1;
nodes = (
(123.6,-7.6,o),
(152,16.4,o),
(157.6,60,cs),
(165.6,135.6,l),
(248,27.6,ls),
(268.4,0.4,o),
(287.2,-7.6,o),
(311.2,-7.6,cs),
(340,-7.6,o),
(367.6,11.6,o),
(374.4,42.8,c),
(376.4,60.4,o),
(376.4,79.6,o),
(358.8,103.6,cs),
(258,230.4,l),
(358.4,302,ls),
(380.4,317.2,o),
(388.4,341.2,o),
(390.4,359.6,cs),
(391.6,388.8,o),
(370,422.4,o),
(330.4,423.6,cs),
(310.8,424.4,o),
(292.4,416.4,o),
(269.6,400,cs),
(188.4,342,l),
(227.6,708.4,ls),
(230.8,745.6,o),
(211.2,779.6,o),
(164,779.6,cs),
(124,779.6,o),
(98,751.2,o),
(93.6,716,cs),
(23.6,68.8,ls),
(18,21.6,o),
(41.2,-7.6,o),
(86,-7.6,cs)
);
},
{
closed = 1;
nodes = (
(49.6,7.6,o),
(34,27.2,o),
(38.4,67.2,cs),
(108.4,714,ls),
(112,743.6,o),
(131.2,764.4,o),
(164,764.4,cs),
(201.6,764.4,o),
(215.2,741.2,o),
(212.4,709.6,cs),
(170.8,322.4,ls),
(170.4,315.6,o),
(174.4,313.2,o),
(179.6,317.2,cs),
(278.4,388,ls),
(299.6,403.6,o),
(313.2,409.6,o),
(329.6,408.4,cs),
(360.8,407.6,o),
(376.4,384,o),
(375.6,360.4,cs),
(373.6,344.8,o),
(367.6,326.8,o),
(349.6,314,cs),
(242.4,238,ls),
(238.4,235.2,o),
(237.6,231.6,o),
(240.8,227.6,cs),
(347.2,94.4,ls),
(361.6,74.4,o),
(361.6,61.6,o),
(359.6,45.2,cs),
(354.4,21.6,o),
(334.8,7.6,o),
(311.2,7.6,cs),
(290.4,7.6,o),
(277.6,13.2,o),
(260,36.4,cs),
(162.4,163.6,ls),
(158.4,169.2,o),
(153.6,168,o),
(152.8,161.2,cs),
(142.4,62,ls),
(138,24.8,o),
(117.2,7.6,o),
(86,7.6,cs)
);
},
{
closed = 1;
nodes = (
(39,548,l),
(59,595,l),
(50,596,l),
(64,725,l),
(51,726,l),
(37,598,l),
(29,599,l)
);
},
{
closed = 1;
nodes = (
(156,718,o),
(161,723,o),
(161,729,cs),
(161,735,o),
(156,740,o),
(150,740,cs),
(144,740,o),
(139,735,o),
(139,729,cs),
(139,723,o),
(144,718,o),
(150,718,cs)
);
}
);
vertWidth = 0;
width = 446;
}
);
unicode = 107;
},
{
glyphname = l;
kernLeft = h_left;
layers = (
{
layerId = m01;
shapes = (
{
closed = 1;
nodes = (
(82,-7,o),
(98,3,o),
(101,30,cs),
(177,737,ls),
(180,768,o),
(162,780,o),
(140,780,cs),
(117,780,o),
(106,763,o),
(103,740,cs),
(27,32,ls),
(24,8,o),
(41,-7,o),
(60,-7,cs)
);
},
{
closed = 1;
nodes = (
(48,8,o),
(40,15,o),
(41,30,cs),
(117,738,ls),
(120,756,o),
(126,765,o),
(140,765,cs),
(157,765,o),
(164,759,o),
(163,739,cs),
(87,32,ls),
(84,12,o),
(77,8,o),
(60,8,cs)
);
},
{
closed = 1;
nodes = (
(50,565,l),
(68,613,l),
(59,614,l),
(70,742,l),
(61,743,l),
(49,615,l),
(40,616,l)
);
},
{
closed = 1;
nodes = (
(146,729,o),
(151,734,o),
(151,740,cs),
(151,746,o),
(146,751,o),
(140,751,cs),
(134,751,o),
(129,746,o),
(129,740,cs),
(129,734,o),
(134,729,o),
(140,729,cs)
);
}
);
vertWidth = 0;
width = 206;
},
{
layerId = m002;
shapes = (
{
closed = 1;
nodes = (
(123.6,-7.6,o),
(152,16.4,o),
(157.6,60,cs),
(227.6,708.4,ls),
(230.8,745.6,o),
(211.2,779.6,o),
(164,779.6,cs),
(124,779.6,o),
(98,751.2,o),
(93.6,716,cs),
(23.6,68.8,ls),
(18,21.6,o),
(41.2,-7.6,o),
(86,-7.6,cs)
);
},
{
closed = 1;
nodes = (
(49.6,7.6,o),
(34,27.2,o),
(38.4,67.2,cs),
(108.4,714,ls),
(112,743.6,o),
(131.2,764.4,o),
(164,764.4,cs),
(201.6,764.4,o),
(215.2,741.2,o),
(212.4,709.6,cs),
(142.4,62,ls),
(138,24.8,o),
(117.2,7.6,o),
(86,7.6,cs)
);
},
{
closed = 1;
nodes = (
(39,548,l),
(59,595,l),
(50,596,l),
(64,725,l),
(51,726,l),
(37,598,l),
(29,599,l)
);
},
{
closed = 1;
nodes = (
(156,718,o),
(161,723,o),
(161,729,cs),
(161,735,o),
(156,740,o),
(150,740,cs),
(144,740,o),
(139,735,o),
(139,729,cs),
(139,723,o),
(144,718,o),
(150,718,cs)
);
}
);
vertWidth = 0;
width = 252;
}
);
unicode = 108;
},
{
glyphname = m;
kernLeft = n_left;
kernRight = n_right;
layers = (
{
layerId = m01;
shapes = (
{
closed = 1;
nodes = (
(106,-8,o),
(109,14,o),
(110,28,cs),
(128,180,l),
(188,308,o),
(216,355,o),
(257,355,cs),
(280,355,o),
(292,329,o),
(287,279,cs),
(258,38,ls),
(255,18,o),
(258,-7,o),
(291,-7,cs),
(330,-7,o),
(328,21,o),
(330,36,cs),
(348,178,l),
(409,308,o),
(437,355,o),
(478,355,cs),
(501,355,o),
(514,329,o),
(508,279,cs),
(479,38,ls),
(476,18,o),
(479,-7,o),
(512,-7,cs),
(551,-7,o),
(550,21,o),
(551,36,cs),
(581,277,ls),
(593,369,o),
(554,429,o),
(481,429,cs),
(429,429,o),
(393,394,o),
(360,338,c),
(351,394,o),
(315,429,o),
(260,429,cs),
(213,429,o),
(179,399,o),
(148,352,c),
(151,383,ls),
(154,405,o),
(149,424,o),
(123,424,cs),
(95,424,o),
(80,409,o),
(78,385,cs),
(38,38,ls),
(35,17,o),
(40,-7,o),
(73,-7,cs)
);
},
{
closed = 1;
nodes = (
(53,8,o),
(50,18,o),
(52,36,cs),
(92,383,ls),
(95,402,o),
(102,409,o),
(123,409,cs),
(137,409,o),
(139,404,o),
(137,385,cs),
(129,326,ls),
(129,321,o),
(131,318,o),
(135,317,cs),
(140,315,o),
(144,316,o),
(146,320,cs),
(180,380,o),
(212,414,o),
(260,414,cs),
(312,414,o),
(343,380,o),
(347,320,cs),
(348,315,o),
(350,312,o),
(355,311,cs),
(360,310,o),
(363,312,o),
(365,316,cs),
(399,379,o),
(432,414,o),
(481,414,cs),
(545,414,o),
(577,364,o),
(567,279,cs),
(537,38,ls),
(534,21,o),
(536,8,o),
(512,8,cs),
(493,8,o),
(491,18,o),
(493,36,cs),
(522,277,ls),
(529,332,o),
(512,370,o),
(478,370,cs),
(429,370,o),
(396,316,o),
(336,186,cs),
(334,183,o),
(334,181,o),
(333,177,cs),
(316,38,ls),
(313,21,o),
(315,8,o),
(291,8,cs),
(272,8,o),
(270,18,o),
(272,36,cs),
(301,277,ls),
(308,332,o),
(291,370,o),
(257,370,cs),
(208,370,o),
(175,316,o),
(116,188,cs),
(114,185,o),
(114,183,o),
(113,179,cs),
(95,30,ls),
(94,16,o),
(93,8,o),
(73,8,cs)
);
},
{
closed = 1;
nodes = (
(25,209,l),
(43,257,l),
(34,258,l),
(45,386,l),
(36,387,l),
(24,259,l),
(15,260,l)
);
},
{
closed = 1;
nodes = (
(121,373,o),
(126,378,o),
(126,384,cs),
(126,390,o),
(121,395,o),
(115,395,cs),
(109,395,o),
(104,390,o),
(104,384,cs),
(104,378,o),
(109,373,o),
(115,373,cs)
);
}
);
vertWidth = 0;
width = 646;
},
{
layerId = m002;
shapes = (
{
closed = 1;
nodes = (
(126.8,-7.6,o),
(137,27,o),
(140.4,52.4,cs),
(159.2,213.2,l),
(212,292,o),
(244.4,313.6,o),
(257.2,313.6,cs),
(265.2,313.6,o),
(268,306,o),
(264.4,280,cs),
(238.4,62.8,ls),
(234,27,o),
(249.2,-7.6,o),
(301.2,-7.6,cs),
(347.2,-7.6,o),
(364,26,o),
(367.6,54,cs),
(387.2,211.2,l),
(440,290.8,o),
(473.2,313.6,o),
(486,313.6,cs),
(494,313.6,o),
(497,306,o),
(493.6,280,cs),
(467.6,62.8,ls),
(463,27,o),
(479.2,-7.6,o),
(530,-7.6,cs),
(576,-7.6,o),
(593,26,o),
(596.4,54,cs),
(624.4,271.2,ls),
(637,371,o),
(593.2,435.6,o),
(518,435.6,cs),
(473.2,435.6,o),
(433.6,408,o),
(390,355.6,c),
(376,405.6,o),
(339.6,435.6,o),
(289.2,435.6,cs),
(250.4,435.6,o),
(214,413.6,o),
(176.4,373.2,c),
(175,382,ls),
(171,407,o),
(152,424,o),
(118,423.6,cs),
(78,423.6,o),
(49,405,o),
(44.4,366.8,cs),
(10.4,62.8,ls),
(6,27,o),
(23.6,-7.6,o),
(71.2,-7.6,cs)
);
},
{
closed = 1;
nodes = (
(33.6,7.6,o),
(22,30,o),
(25.6,61.2,cs),
(59.6,365.2,ls),
(63,396,o),
(83.2,408.4,o),
(118,408.4,cs),
(149,408,o),
(163,394,o),
(162,369,cs),
(161.6,360,l),
(160.8,355.2,o),
(162.4,352.4,o),
(166.4,350.4,cs),
(171.6,348,o),
(174.8,348.8,o),
(178,352.4,cs),
(217.6,398,o),
(251.6,420.4,o),
(289.2,420.4,cs),
(339.6,420.4,o),
(370.8,389.6,o),
(379.2,333.2,cs),
(380,330,o),
(381,328,o),
(382,328,cs),
(384,327,o),
(386,328,o),
(388.8,330.8,cs),
(436.4,391.2,o),
(474.8,420.4,o),
(518,420.4,cs),
(584,420.4,o),
(622,366,o),
(609.6,272.8,cs),
(581.6,56,ls),
(578,31,o),
(566.4,7.6,o),
(530,7.6,cs),
(490,7.6,o),
(479,30,o),
(482.4,61.2,cs),
(508.4,278,ls),
(512,310,o),
(504.8,328.4,o),
(486,328.4,cs),
(468,328.4,o),
(430,302.8,o),
(375.6,221.2,cs),
(373.6,218,o),
(372,216,o),
(372,212,cs),
(352.4,56,ls),
(349,31,o),
(337.2,7.6,o),
(301.2,7.6,cs),
(260,7.6,o),
(250,30,o),
(253.6,61.2,cs),
(279.6,278,ls),
(283,310,o),
(276,328.4,o),
(257.2,328.4,cs),
(239.2,328.4,o),
(202,303.6,o),
(147.6,223.2,cs),
(145.6,220,o),
(145,218,o),
(144.4,214,cs),
(125.6,53.6,ls),
(123,30,o),
(115.6,7.6,o),
(71.2,7.6,cs)
);
},
{
closed = 1;
nodes = (
(-15,194,l),
(5,241,l),
(-4,242,l),
(10,371,l),
(-3,372,l),
(-17,244,l),
(-25,245,l)
);
},
{
closed = 1;
nodes = (
(102,364,o),
(107,369,o),
(107,375,cs),
(107,381,o),
(102,386,o),
(96,386,cs),
(90,386,o),
(85,381,o),
(85,375,cs),
(85,369,o),
(90,364,o),
(96,364,cs)
);
}
);
vertWidth = 0;
width = 683;
}
);
unicode = 109;
},
{
glyphname = n;
kernLeft = n_left;
kernRight = n_right;
layers = (
{
layerId = m01;
shapes = (
{
closed = 1;
nodes = (
(100,-8,o),
(108,5,o),
(111,32,cs),
(128,179,l),
(190,307,o),
(228,355,o),
(269,355,cs),
(292,355,o),
(304,329,o),
(299,279,cs),
(270,38,ls),
(267,18,o),
(270,-7,o),
(303,-7,cs),
(342,-7,o),
(341,21,o),
(342,36,cs),
(372,277,ls),
(384,369,o),
(345,429,o),
(272,429,cs),
(224,429,o),
(183,397,o),
(147,347,c),
(151,383,ls),
(154,405,o),
(149,424,o),
(123,424,cs),
(95,424,o),
(80,409,o),
(78,385,cs),
(38,38,ls),
(35,17,o),
(40,-7,o),
(73,-7,cs)
);
},
{
closed = 1;
nodes = (
(53,8,o),
(51,18,o),
(52,36,cs),
(92,383,ls),
(94,401,o),
(102,409,o),
(123,409,cs),
(137,409,o),
(138,403,o),
(137,385,cs),
(129,324,ls),
(129,319,o),
(130,316,o),
(135,315,cs),
(140,313,o),
(144,314,o),
(146,318,cs),
(183,378,o),
(224,414,o),
(272,414,cs),
(336,414,o),
(368,364,o),
(358,279,cs),
(328,38,ls),
(325,21,o),
(327,8,o),
(303,8,cs),
(284,8,o),
(283,18,o),
(284,36,cs),
(313,277,ls),
(320,332,o),
(303,370,o),
(269,370,cs),
(220,370,o),
(178,317,o),
(116,188,cs),
(114,184,o),
(113,182,o),
(113,179,cs),
(97,38,ls),
(93,21,o),
(97,8,o),
(73,8,cs)
);
},
{
closed = 1;
nodes = (
(25,209,l),
(43,257,l),
(34,258,l),
(45,386,l),
(36,387,l),
(24,259,l),
(15,260,l)
);
},
{
closed = 1;
nodes = (
(121,373,o),
(126,378,o),
(126,384,cs),
(126,390,o),
(121,395,o),
(115,395,cs),
(109,395,o),
(104,390,o),
(104,384,cs),
(104,378,o),
(109,373,o),
(115,373,cs)
);
}
);
vertWidth = 0;
width = 437;
},
{
layerId = m002;
shapes = (
{
closed = 1;
nodes = (
(126.8,-7.6,o),
(137,27,o),
(140.4,52.4,cs),
(159.2,213.2,l),
(211.6,291.6,o),
(250,313.6,o),
(263.2,313.6,cs),
(270.4,313.6,o),
(274,306,o),
(270.4,279.6,cs),
(244.4,62.8,ls),
(240,27,o),
(255.2,-7.6,o),
(307.2,-7.6,cs),
(353.2,-7.6,o),
(370,26,o),
(373.6,54,cs),
(400.4,271.2,ls),
(413,371,o),
(370,435.6,o),
(295.2,435.6,cs),
(255.6,435.6,o),
(216,413.6,o),
(176.8,372.8,c),
(176,378,l),
(175,405,o),
(153,424,o),
(118,423.6,cs),
(78,423.6,o),
(49,405,o),
(44.4,366.8,cs),
(10.4,62.8,ls),
(6,27,o),
(23.6,-7.6,o),
(71.2,-7.6,cs)
);
},
{
closed = 1;
nodes = (
(33.6,7.6,o),
(22,30,o),
(25.6,61.2,cs),
(59.6,365.2,ls),
(63,396,o),
(83.2,408.4,o),
(118,408.4,cs),
(150,408,o),
(164,393,o),
(162,366,cs),
(161.6,360,ls),
(161,355,o),
(162.4,352.4,o),
(166.4,350.4,cs),
(171.6,348,o),
(174.8,348.8,o),
(178,352.4,cs),
(218.8,398,o),
(256.4,420.4,o),
(295.2,420.4,cs),
(361.2,420.4,o),
(397,366,o),
(385.6,272.8,cs),
(358.4,56,ls),
(355,31,o),
(343.2,7.6,o),
(307.2,7.6,cs),
(266,7.6,o),
(256,30,o),
(259.6,61.2,cs),
(285.6,278.4,ls),
(290,313,o),
(280.4,328.4,o),
(263.2,328.4,cs),
(245.6,328.4,o),
(202.4,303.6,o),
(147.6,223.2,cs),
(145.6,220,o),
(145,218,o),
(144.4,214,cs),
(125.6,53.6,ls),
(123,30,o),
(115.6,7.6,o),
(71.2,7.6,cs)
);
},
{
closed = 1;
nodes = (
(-15,194,l),
(5,241,l),
(-4,242,l),
(10,371,l),
(-3,372,l),
(-17,244,l),
(-25,245,l)
);
},
{
closed = 1;
nodes = (
(102,364,o),
(107,369,o),
(107,375,cs),
(107,381,o),
(102,386,o),
(96,386,cs),
(90,386,o),
(85,381,o),
(85,375,cs),
(85,369,o),
(90,364,o),
(96,364,cs)
);
}
);
vertWidth = 0;
width = 460;
}
);
unicode = 110;
},
{
glyphname = o;
kernLeft = o_left;
kernRight = o_right;
layers = (
{
layerId = m01;
shapes = (
{
closed = 1;
nodes = (
(279,-8,o),
(338,105,o),
(349,208,cs),
(361,316,o),
(317,429,o),
(208,429,cs),
(116,429,o),
(37,350,o),
(22,210,cs),
(11,103,o),
(54,-8,o),
(164,-8,cs)
);
},
{
closed = 1;
nodes = (
(65,7,o),
(27,106,o),
(36,208,cs),
(51,343,o),
(123,414,o),
(208,414,cs),
(306,414,o),
(345,313,o),
(335,210,cs),
(324,110,o),
(269,7,o),
(164,7,cs)
);
},
{
closed = 1;
nodes = (
(222,46,o),
(279,110,o),
(289,210,cs),
(296,267,o),
(285,374,o),
(206,374,cs),
(143,374,o),
(92,311,o),
(82,207,cs),
(72,127,o),
(97,46,o),
(170,46,cs)
);
},
{
closed = 1;
nodes = (
(109,61,o),
(88,129,o),
(96,205,cs),
(106,304,o),
(152,359,o),
(206,359,cs),
(271,359,o),
(280,266,o),
(275,212,cs),
(265,117,o),
(215,61,o),
(170,61,cs)
);
},
{
closed = 1;
nodes = (
(294,339,o),
(299,344,o),
(299,350,cs),
(299,356,o),
(294,361,o),
(288,361,cs),
(282,361,o),
(277,356,o),
(277,350,cs),
(277,344,o),
(282,339,o),
(288,339,cs)
);
},
{
closed = 1;
nodes = (
(176,470,l),
(217,442,l),
(219,450,l),
(240,444,o),
(259,439,o),
(276,430,cs),
(296,420,o),
(315,403,o),
(332,388,c),
(338,396,l),
(322,413,o),
(301,429,o),
(281,440,cs),
(263,450,o),
(243,454,o),
(225,459,c),
(227,467,l)
);
}
);
vertWidth = 0;
width = 411;
},
{
layerId = m002;
shapes = (
{
closed = 1;
nodes = (
(288,-8.4,o),
(365.2,76.8,o),
(379.6,213.2,cs),
(392.8,349.2,o),
(332,435.6,o),
(216,435.6,cs),
(106,435.6,o),
(30,350,o),
(15.6,213.6,cs),
(2,78,o),
(63.2,-8.4,o),
(175.2,-8.4,cs)
);
},
{
closed = 1;
nodes = (
(72,6.4,o),
(17.6,83.2,o),
(30.4,212.4,cs),
(44.4,342.8,o),
(113.2,420.4,o),
(216,420.4,cs),
(323.2,420.4,o),
(377.2,344,o),
(364.4,214.8,cs),
(350.8,84.4,o),
(280.8,6.4,o),
(175.2,6.4,cs)
);
},
{
closed = 1;
nodes = (
(224,98.4,o),
(254,147.6,o),
(262.4,224,cs),
(272,286,o),
(254,328.4,o),
(215.2,328.4,cs),
(170.8,328.4,o),
(140,279.6,o),
(131.6,202.8,cs),
(123.2,140.8,o),
(139.6,98.4,o),
(179.2,98.4,cs)
);
},
{
closed = 1;
nodes = (
(151.2,113.6,o),
(138.8,144,o),
(146.4,201.2,cs),
(154.4,273.6,o),
(180,313.6,o),
(215.2,313.6,cs),
(243.2,313.6,o),
(256.4,283.2,o),
(247.6,226,cs),
(239.6,153.6,o),
(214.8,113.6,o),
(179.2,113.6,cs)
);
},
{
closed = 1;
nodes = (
(312,332,o),
(317,337,o),
(317,343,cs),
(317,349,o),
(312,354,o),
(306,354,cs),
(300,354,o),
(295,349,o),
(295,343,cs),
(295,337,o),
(300,332,o),
(306,332,cs)
);
},
{
closed = 1;
nodes = (
(200,473,l),
(241,445,l),
(243,453,l),
(264,447,o),
(283,442,o),
(300,433,cs),
(320,423,o),
(339,406,o),
(356,391,c),
(363,401,l),
(347,418,o),
(326,434,o),
(306,445,cs),
(288,455,o),
(268,459,o),
(250,464,c),
(252,472,l)
);
}
);
vertWidth = 0;
width = 432;
}
);
unicode = 111;
},
